G75*
%MOIN*%
%OFA0B0*%
%FSLAX24Y24*%
%IPPOS*%
%LPD*%
%AMOC8*
5,1,8,0,0,1.08239X$1,22.5*
%
%ADD10R,0.0631X0.1261*%
%ADD11R,0.0680X0.0580*%
%ADD12R,0.0631X0.0631*%
%ADD13R,0.0316X0.0946*%
%ADD14C,0.0680*%
%ADD15OC8,0.0680*%
%ADD16C,0.0965*%
%ADD17R,0.0480X0.0330*%
%ADD18R,0.0671X0.0592*%
%ADD19R,0.0592X0.0671*%
%ADD20R,0.0631X0.0474*%
%ADD21R,0.4178X0.4332*%
%ADD22R,0.0930X0.0500*%
%ADD23R,0.1230X0.1178*%
%ADD24R,0.1261X0.0631*%
%ADD25R,0.0634X0.0634*%
%ADD26C,0.1379*%
%ADD27R,0.0867X0.2245*%
%ADD28R,0.0552X0.0552*%
%ADD29OC8,0.0710*%
%ADD30C,0.0640*%
%ADD31OC8,0.0640*%
%ADD32C,0.0476*%
%ADD33C,0.0516*%
%ADD34R,0.0476X0.0476*%
%ADD35C,0.0380*%
D10*
X013628Y001259D03*
X013628Y003149D03*
D11*
X014967Y004394D03*
X014967Y005144D03*
D12*
X015712Y002428D03*
X017208Y002428D03*
X023786Y012643D03*
X025282Y012643D03*
D13*
X018697Y007789D03*
X018197Y007789D03*
X017697Y007789D03*
X017197Y007789D03*
X017197Y005742D03*
X017697Y005742D03*
X018197Y005742D03*
X018697Y005742D03*
D14*
X015904Y006702D02*
X015904Y007302D01*
X014904Y007302D02*
X014904Y006702D01*
X013904Y006702D02*
X013904Y007302D01*
X012904Y007302D02*
X012904Y006702D01*
X011904Y006702D02*
X011904Y007302D01*
X010904Y007302D02*
X010904Y006702D01*
X024337Y004506D02*
X024337Y003906D01*
X025337Y003906D02*
X025337Y004506D01*
X026337Y004506D02*
X026337Y003906D01*
X027337Y003906D02*
X027337Y004506D01*
D15*
X025294Y015047D03*
X023514Y015047D03*
D16*
X023024Y014067D03*
X025784Y014067D03*
D17*
X016573Y014248D03*
X016573Y014748D03*
X016573Y015248D03*
X016573Y015748D03*
X016573Y013748D03*
X016573Y013248D03*
X016573Y012748D03*
X016573Y012248D03*
X016573Y011748D03*
X016573Y011248D03*
X016573Y010748D03*
X016573Y010248D03*
X016573Y009748D03*
X016573Y009248D03*
X012573Y009248D03*
X012573Y009748D03*
X012573Y010248D03*
X012573Y010748D03*
X012573Y011248D03*
X012573Y011748D03*
X012573Y012248D03*
X012573Y012748D03*
X012573Y013248D03*
X012573Y013748D03*
X012573Y014248D03*
X012573Y014748D03*
X012573Y015248D03*
X012573Y015748D03*
D18*
X011349Y013639D03*
X011349Y012891D03*
X017644Y009998D03*
X017644Y009250D03*
X018224Y011312D03*
X018224Y012060D03*
X018236Y012718D03*
X018236Y013466D03*
X021306Y015061D03*
X022144Y015069D03*
X022144Y015817D03*
X021306Y015809D03*
D19*
X026656Y015789D03*
X027404Y015789D03*
X022495Y012155D03*
X021747Y012155D03*
X020369Y008620D03*
X019621Y008620D03*
X016495Y003588D03*
X015747Y003588D03*
D20*
X016530Y004506D03*
X015664Y004880D03*
X016530Y005254D03*
D21*
X008075Y002979D03*
D22*
X011355Y002979D03*
X011355Y003649D03*
X011355Y004319D03*
X011355Y002309D03*
X011355Y001639D03*
D23*
X018891Y003054D03*
X023049Y003054D03*
D24*
X024895Y002004D03*
X026785Y002004D03*
D25*
X022955Y006631D03*
X021955Y007135D03*
X022951Y007628D03*
X021947Y008128D03*
X022955Y008628D03*
X021940Y009108D03*
X022955Y009620D03*
X021940Y010124D03*
D26*
X025455Y010628D03*
X025455Y006139D03*
D27*
X019628Y010679D03*
X019628Y014419D03*
D28*
X027428Y014238D03*
X027428Y015065D03*
X020365Y007915D03*
X020365Y007088D03*
D29*
X020711Y005655D03*
X019699Y005647D03*
D30*
X001617Y003143D03*
D31*
X002617Y003143D03*
X002617Y004143D03*
X001617Y004143D03*
X001617Y005143D03*
X002617Y005143D03*
X002617Y006143D03*
X001617Y006143D03*
X001617Y007143D03*
X002617Y007143D03*
X002617Y008143D03*
X001617Y008143D03*
X001617Y009143D03*
X002617Y009143D03*
X002617Y010143D03*
X001617Y010143D03*
X001617Y011143D03*
X002617Y011143D03*
X002617Y012143D03*
X001617Y012143D03*
X001617Y013143D03*
X002617Y013143D03*
X002617Y014143D03*
X001617Y014143D03*
D32*
X021109Y009100D03*
X027609Y013600D03*
D33*
X014640Y002438D03*
D34*
X012298Y003647D03*
X014400Y006242D03*
X015384Y007738D03*
X016601Y008112D03*
X018258Y009194D03*
X018617Y008647D03*
X019754Y007069D03*
X018211Y006978D03*
X019097Y005706D03*
X022097Y002411D03*
X011487Y008013D03*
X013321Y009533D03*
X015069Y010297D03*
X015936Y010651D03*
X015184Y011238D03*
X017077Y010257D03*
X017266Y011218D03*
X017223Y011785D03*
X017105Y012722D03*
X014833Y012502D03*
X013180Y012462D03*
X011924Y011163D03*
X010975Y011754D03*
X010463Y012147D03*
X009754Y012305D03*
X009321Y011754D03*
X009361Y011202D03*
X010817Y010612D03*
X008888Y009076D03*
X005463Y010336D03*
X004951Y006911D03*
X004479Y006006D03*
X003928Y005533D03*
X003455Y004943D03*
X009006Y006832D03*
X018888Y011281D03*
X019463Y012238D03*
X021046Y012124D03*
X021085Y013376D03*
X018290Y014730D03*
X015621Y015691D03*
X015109Y015218D03*
X010751Y013702D03*
X006251Y014667D03*
X005542Y015257D03*
X004518Y015809D03*
X003731Y015021D03*
X003770Y014155D03*
D35*
X016109Y004100D03*
M02*
