G75*
%MOIN*%
%OFA0B0*%
%FSLAX24Y24*%
%IPPOS*%
%LPD*%
%AMOC8*
5,1,8,0,0,1.08239X$1,22.5*
%
%ADD10C,0.0680*%
%ADD11OC8,0.0680*%
%ADD12C,0.0965*%
%ADD13R,0.0634X0.0634*%
%ADD14C,0.1379*%
%ADD15OC8,0.0710*%
%ADD16C,0.0640*%
%ADD17OC8,0.0640*%
%ADD18C,0.0476*%
%ADD19C,0.0516*%
%ADD20R,0.0476X0.0476*%
%ADD21C,0.0380*%
D10*
X010904Y006702D02*
X010904Y007302D01*
X011904Y007302D02*
X011904Y006702D01*
X012904Y006702D02*
X012904Y007302D01*
X013904Y007302D02*
X013904Y006702D01*
X014904Y006702D02*
X014904Y007302D01*
X015904Y007302D02*
X015904Y006702D01*
X024337Y004506D02*
X024337Y003906D01*
X025337Y003906D02*
X025337Y004506D01*
X026337Y004506D02*
X026337Y003906D01*
X027337Y003906D02*
X027337Y004506D01*
D11*
X025294Y015047D03*
X023514Y015047D03*
D12*
X023024Y014067D03*
X025784Y014067D03*
D13*
X021940Y010124D03*
X022955Y009620D03*
X021940Y009108D03*
X022955Y008628D03*
X021947Y008128D03*
X022951Y007628D03*
X021955Y007135D03*
X022955Y006631D03*
D14*
X025455Y006139D03*
X025455Y010628D03*
D15*
X020711Y005655D03*
X019699Y005647D03*
D16*
X001617Y003143D03*
D17*
X002617Y003143D03*
X002617Y004143D03*
X001617Y004143D03*
X001617Y005143D03*
X002617Y005143D03*
X002617Y006143D03*
X001617Y006143D03*
X001617Y007143D03*
X002617Y007143D03*
X002617Y008143D03*
X001617Y008143D03*
X001617Y009143D03*
X002617Y009143D03*
X002617Y010143D03*
X001617Y010143D03*
X001617Y011143D03*
X002617Y011143D03*
X002617Y012143D03*
X001617Y012143D03*
X001617Y013143D03*
X002617Y013143D03*
X002617Y014143D03*
X001617Y014143D03*
D18*
X021109Y009100D03*
X027609Y013600D03*
D19*
X014640Y002438D03*
D20*
X012298Y003647D03*
X014400Y006242D03*
X015384Y007738D03*
X016601Y008112D03*
X018258Y009194D03*
X018617Y008647D03*
X019754Y007069D03*
X018211Y006978D03*
X019097Y005706D03*
X022097Y002411D03*
X011487Y008013D03*
X013321Y009533D03*
X015069Y010297D03*
X015936Y010651D03*
X015184Y011238D03*
X017077Y010257D03*
X017266Y011218D03*
X017223Y011785D03*
X017105Y012722D03*
X014833Y012502D03*
X013180Y012462D03*
X011924Y011163D03*
X010975Y011754D03*
X010463Y012147D03*
X009754Y012305D03*
X009321Y011754D03*
X009361Y011202D03*
X010817Y010612D03*
X008888Y009076D03*
X005463Y010336D03*
X004951Y006911D03*
X004479Y006006D03*
X003928Y005533D03*
X003455Y004943D03*
X009006Y006832D03*
X018888Y011281D03*
X019463Y012238D03*
X021046Y012124D03*
X021085Y013376D03*
X018290Y014730D03*
X015621Y015691D03*
X015109Y015218D03*
X010751Y013702D03*
X006251Y014667D03*
X005542Y015257D03*
X004518Y015809D03*
X003731Y015021D03*
X003770Y014155D03*
D21*
X016109Y004100D03*
M02*
