G75*
%MOIN*%
%OFA0B0*%
%FSLAX24Y24*%
%IPPOS*%
%LPD*%
%AMOC8*
5,1,8,0,0,1.08239X$1,22.5*
%
%ADD10C,0.0060*%
%ADD11C,0.0030*%
%ADD12C,0.0000*%
%ADD13C,0.0040*%
%ADD14C,0.0050*%
%ADD15C,0.0080*%
%ADD16C,0.0250*%
%ADD17R,0.0660X0.0380*%
%ADD18C,0.0100*%
%ADD19R,0.0059X0.0118*%
%ADD20R,0.0118X0.0118*%
D10*
X001167Y002643D02*
X003067Y002643D01*
X003097Y002645D01*
X003127Y002650D01*
X003156Y002659D01*
X003183Y002672D01*
X003209Y002687D01*
X003233Y002706D01*
X003254Y002727D01*
X003273Y002751D01*
X003288Y002777D01*
X003301Y002804D01*
X003310Y002833D01*
X003315Y002863D01*
X003317Y002893D01*
X003317Y014393D01*
X003315Y014423D01*
X003310Y014453D01*
X003301Y014482D01*
X003288Y014509D01*
X003273Y014535D01*
X003254Y014559D01*
X003233Y014580D01*
X003209Y014599D01*
X003183Y014614D01*
X003156Y014627D01*
X003127Y014636D01*
X003097Y014641D01*
X003067Y014643D01*
X001167Y014643D01*
X001137Y014641D01*
X001107Y014636D01*
X001078Y014627D01*
X001051Y014614D01*
X001025Y014599D01*
X001001Y014580D01*
X000980Y014559D01*
X000961Y014535D01*
X000946Y014509D01*
X000933Y014482D01*
X000924Y014453D01*
X000919Y014423D01*
X000917Y014393D01*
X000917Y002893D01*
X000919Y002863D01*
X000924Y002833D01*
X000933Y002804D01*
X000946Y002777D01*
X000961Y002751D01*
X000980Y002727D01*
X001001Y002706D01*
X001025Y002687D01*
X001051Y002672D01*
X001078Y002659D01*
X001107Y002650D01*
X001137Y002645D01*
X001167Y002643D01*
X010404Y006752D02*
X010404Y007252D01*
X010654Y007502D01*
X011154Y007502D01*
X011404Y007252D01*
X011654Y007502D01*
X012154Y007502D01*
X012404Y007252D01*
X012654Y007502D01*
X013154Y007502D01*
X013404Y007252D01*
X013654Y007502D01*
X014154Y007502D01*
X014404Y007252D01*
X014654Y007502D01*
X015154Y007502D01*
X015404Y007252D01*
X015654Y007502D01*
X016154Y007502D01*
X016404Y007252D01*
X016404Y006752D01*
X016154Y006502D01*
X015654Y006502D01*
X015404Y006752D01*
X015154Y006502D01*
X014654Y006502D01*
X014404Y006752D01*
X014154Y006502D01*
X013654Y006502D01*
X013404Y006752D01*
X013154Y006502D01*
X012654Y006502D01*
X012404Y006752D01*
X012154Y006502D01*
X011654Y006502D01*
X011404Y006752D01*
X011154Y006502D01*
X010654Y006502D01*
X010404Y006752D01*
X013785Y004855D02*
X013785Y004628D01*
X013842Y004572D01*
X013955Y004572D01*
X014012Y004628D01*
X014153Y004628D02*
X014210Y004572D01*
X014323Y004572D01*
X014380Y004628D01*
X014380Y004685D01*
X014323Y004742D01*
X014267Y004742D01*
X014323Y004742D02*
X014380Y004798D01*
X014380Y004855D01*
X014323Y004912D01*
X014210Y004912D01*
X014153Y004855D01*
X014012Y004855D02*
X013955Y004912D01*
X013842Y004912D01*
X013785Y004855D01*
X015837Y004540D02*
X015837Y004320D01*
X016157Y004320D01*
X015837Y005220D02*
X015837Y005440D01*
X016157Y005440D01*
X019399Y005447D02*
X019399Y005347D01*
X019499Y005347D01*
X019899Y005347D02*
X019999Y005347D01*
X019999Y005447D01*
X019999Y005847D02*
X019999Y005947D01*
X019899Y005947D01*
X019499Y005947D02*
X019399Y005947D01*
X019399Y005847D01*
X020411Y005855D02*
X020411Y005955D01*
X020511Y005955D01*
X020911Y005955D02*
X021011Y005955D01*
X021011Y005855D01*
X021011Y005455D02*
X021011Y005355D01*
X020911Y005355D01*
X020511Y005355D02*
X020411Y005355D01*
X020411Y005455D01*
X023837Y004456D02*
X023837Y003956D01*
X024087Y003706D01*
X024587Y003706D01*
X024837Y003956D01*
X025087Y003706D01*
X025587Y003706D01*
X025837Y003956D01*
X026087Y003706D01*
X026587Y003706D01*
X026837Y003956D01*
X027087Y003706D01*
X027587Y003706D01*
X027837Y003956D01*
X027837Y004456D01*
X027587Y004706D01*
X027087Y004706D01*
X026837Y004456D01*
X026587Y004706D01*
X026087Y004706D01*
X025837Y004456D01*
X025587Y004706D01*
X025087Y004706D01*
X024837Y004456D01*
X024587Y004706D01*
X024087Y004706D01*
X023837Y004456D01*
X023704Y014457D02*
X023354Y014457D01*
X023354Y014557D01*
X023054Y014557D01*
X023054Y014757D01*
X022954Y014557D02*
X022954Y015957D01*
X023404Y015957D01*
X025854Y015957D01*
X025854Y014557D01*
X025754Y014557D02*
X025754Y014757D01*
X025754Y014557D02*
X025454Y014557D01*
X025454Y014457D01*
X025154Y014457D01*
X025154Y014557D01*
X024704Y014557D01*
X024704Y014657D01*
X024104Y014657D01*
X024104Y014557D01*
X023704Y014557D01*
X023704Y014457D01*
X023054Y015357D02*
X023054Y015857D01*
X024154Y015857D01*
X024154Y015457D01*
X024654Y015457D01*
X024654Y015857D01*
X024154Y015857D01*
X023904Y016057D02*
X023404Y016057D01*
X023404Y015957D01*
X023904Y016057D02*
X023904Y016207D01*
X024904Y016207D01*
X024904Y016057D01*
X023904Y016057D01*
X024654Y015857D02*
X025754Y015857D01*
X025754Y015357D01*
X025404Y015957D02*
X025404Y016057D01*
X024904Y016057D01*
X009968Y016023D02*
X009968Y015703D01*
X009648Y015703D01*
X009541Y015810D01*
X009648Y015917D01*
X009968Y015917D01*
X009968Y016023D02*
X009861Y016130D01*
X009648Y016130D01*
X009324Y016130D02*
X009003Y016130D01*
X008897Y016023D01*
X009003Y015917D01*
X009217Y015917D01*
X009324Y015810D01*
X009217Y015703D01*
X008897Y015703D01*
X008679Y015810D02*
X008572Y015917D01*
X008359Y015917D01*
X008252Y016023D01*
X008359Y016130D01*
X008679Y016130D01*
X008679Y015810D02*
X008572Y015703D01*
X008252Y015703D01*
X007928Y015703D02*
X007714Y015703D01*
X007608Y015810D01*
X007608Y016023D01*
X007714Y016130D01*
X007928Y016130D01*
X008035Y016023D01*
X008035Y015917D01*
X007608Y015917D01*
X007390Y016130D02*
X007070Y016130D01*
X006963Y016023D01*
X006963Y015810D01*
X007070Y015703D01*
X007390Y015703D01*
X007390Y016344D01*
X006746Y016237D02*
X006639Y016344D01*
X006425Y016344D01*
X006318Y016237D01*
X006318Y015810D01*
X006425Y015703D01*
X006639Y015703D01*
X006746Y015810D01*
X006746Y016237D01*
D11*
X007718Y015312D02*
X007842Y015435D01*
X007965Y015312D01*
X007965Y015065D01*
X007718Y015065D02*
X007718Y015312D01*
X007718Y015250D02*
X007965Y015250D01*
X007229Y015312D02*
X007105Y015065D01*
X006982Y015312D01*
X006860Y015250D02*
X006860Y015188D01*
X006613Y015188D01*
X006613Y015127D02*
X006613Y015250D01*
X006675Y015312D01*
X006799Y015312D01*
X006860Y015250D01*
X006675Y015065D02*
X006613Y015127D01*
X006675Y015065D02*
X006799Y015065D01*
X006430Y015312D02*
X006306Y015188D01*
X006306Y015065D02*
X006306Y015312D01*
X006430Y015312D02*
X006492Y015312D01*
X007605Y013283D02*
X007790Y013283D01*
X007790Y013160D02*
X007605Y013160D01*
X007543Y013222D01*
X007605Y013283D01*
X007605Y013160D02*
X007543Y013098D01*
X007543Y013037D01*
X007790Y013037D01*
X007728Y012915D02*
X007605Y012915D01*
X007543Y012853D01*
X007543Y012730D01*
X007605Y012668D01*
X007728Y012668D01*
X007790Y012730D01*
X007790Y012853D01*
X007728Y012915D01*
X007790Y012547D02*
X007790Y012362D01*
X007728Y012300D01*
X007605Y012300D01*
X007543Y012362D01*
X007543Y012547D01*
X007728Y012177D02*
X007790Y012177D01*
X007790Y012116D01*
X007728Y012116D01*
X007728Y012177D01*
X007728Y011994D02*
X007666Y011933D01*
X007666Y011809D01*
X007605Y011747D01*
X007543Y011809D01*
X007543Y011994D01*
X007728Y011994D02*
X007790Y011933D01*
X007790Y011747D01*
X007790Y011625D02*
X007790Y011502D01*
X007790Y011564D02*
X007543Y011564D01*
X007543Y011502D01*
X007543Y011380D02*
X007543Y011195D01*
X007605Y011134D01*
X007728Y011134D01*
X007790Y011195D01*
X007790Y011380D01*
X007420Y011380D01*
X007420Y011564D02*
X007358Y011564D01*
X007605Y011012D02*
X007790Y011012D01*
X007790Y010827D01*
X007728Y010765D01*
X007666Y010827D01*
X007666Y011012D01*
X007605Y011012D02*
X007543Y010950D01*
X007543Y010827D01*
X007543Y010643D02*
X007543Y010582D01*
X007666Y010458D01*
X007666Y010337D02*
X007666Y010152D01*
X007728Y010090D01*
X007790Y010152D01*
X007790Y010337D01*
X007605Y010337D01*
X007543Y010275D01*
X007543Y010152D01*
X007605Y009969D02*
X007728Y009969D01*
X007790Y009907D01*
X007790Y009722D01*
X007913Y009722D02*
X007543Y009722D01*
X007543Y009907D01*
X007605Y009969D01*
X007543Y009600D02*
X007543Y009415D01*
X007605Y009353D01*
X007666Y009415D01*
X007666Y009539D01*
X007728Y009600D01*
X007790Y009539D01*
X007790Y009353D01*
X007790Y009232D02*
X007605Y009232D01*
X007543Y009170D01*
X007543Y008985D01*
X007790Y008985D01*
X007790Y008864D02*
X007605Y008864D01*
X007543Y008802D01*
X007543Y008678D01*
X007666Y008678D02*
X007666Y008864D01*
X007790Y008864D02*
X007790Y008678D01*
X007728Y008617D01*
X007666Y008678D01*
X007543Y008495D02*
X007543Y008310D01*
X007605Y008248D01*
X007728Y008248D01*
X007790Y008310D01*
X007790Y008495D01*
X007420Y008495D01*
X007605Y008127D02*
X007543Y008065D01*
X007543Y007942D01*
X007605Y007880D01*
X007728Y007880D01*
X007790Y007942D01*
X007790Y008065D01*
X007728Y008127D01*
X007605Y008127D01*
X007543Y007758D02*
X007543Y007697D01*
X007666Y007573D01*
X007543Y007573D02*
X007790Y007573D01*
X007790Y007452D02*
X007790Y007267D01*
X007728Y007205D01*
X007605Y007205D01*
X007543Y007267D01*
X007543Y007452D01*
X007852Y007452D01*
X007913Y007390D01*
X007913Y007328D01*
X007790Y007082D02*
X007790Y007021D01*
X007728Y007021D01*
X007728Y007082D01*
X007790Y007082D01*
X007728Y006899D02*
X007543Y006899D01*
X007728Y006899D02*
X007790Y006838D01*
X007728Y006776D01*
X007790Y006714D01*
X007728Y006652D01*
X007543Y006652D01*
X007543Y006531D02*
X007728Y006531D01*
X007790Y006469D01*
X007728Y006408D01*
X007790Y006346D01*
X007728Y006284D01*
X007543Y006284D01*
X007543Y006163D02*
X007728Y006163D01*
X007790Y006101D01*
X007728Y006039D01*
X007790Y005978D01*
X007728Y005916D01*
X007543Y005916D01*
X007543Y010458D02*
X007790Y010458D01*
X019899Y006781D02*
X019899Y006410D01*
X019899Y006534D02*
X020085Y006534D01*
X020146Y006595D01*
X020146Y006719D01*
X020085Y006781D01*
X019899Y006781D01*
X020268Y006781D02*
X020268Y006410D01*
X020391Y006534D01*
X020515Y006410D01*
X020515Y006781D01*
X020636Y006781D02*
X020821Y006781D01*
X020883Y006719D01*
X020883Y006595D01*
X020821Y006534D01*
X020636Y006534D01*
X020759Y006534D02*
X020883Y006410D01*
X020636Y006410D02*
X020636Y006781D01*
X015353Y001227D02*
X015353Y000856D01*
X015230Y000856D02*
X015477Y000856D01*
X015230Y001103D02*
X015353Y001227D01*
X015108Y001165D02*
X015047Y001227D01*
X014923Y001227D01*
X014862Y001165D01*
X014862Y000918D01*
X014923Y000856D01*
X015047Y000856D01*
X015108Y000918D01*
X023677Y000860D02*
X023739Y000799D01*
X023862Y000799D01*
X023924Y000860D01*
X024046Y000799D02*
X024292Y001045D01*
X024292Y001107D01*
X024231Y001169D01*
X024107Y001169D01*
X024046Y001107D01*
X023924Y001107D02*
X023862Y001169D01*
X023739Y001169D01*
X023677Y001107D01*
X023677Y000860D01*
X024046Y000799D02*
X024292Y000799D01*
X026700Y013391D02*
X026700Y013514D01*
X026700Y013452D02*
X027070Y013452D01*
X027070Y013391D02*
X027070Y013514D01*
X027070Y013636D02*
X026700Y013636D01*
X027070Y013883D01*
X026700Y013883D01*
X026700Y014004D02*
X026700Y014128D01*
X026700Y014066D02*
X027070Y014066D01*
X027070Y014004D02*
X027070Y014128D01*
X027070Y014373D02*
X026700Y014373D01*
X026700Y014250D02*
X026700Y014497D01*
D12*
X028455Y000100D02*
X000109Y000100D01*
X000109Y016635D01*
X028455Y016635D01*
X028455Y000100D01*
X024805Y006139D02*
X024807Y006189D01*
X024813Y006239D01*
X024823Y006289D01*
X024836Y006337D01*
X024853Y006385D01*
X024874Y006431D01*
X024898Y006475D01*
X024926Y006517D01*
X024957Y006557D01*
X024991Y006594D01*
X025028Y006629D01*
X025067Y006660D01*
X025108Y006689D01*
X025152Y006714D01*
X025198Y006736D01*
X025245Y006754D01*
X025293Y006768D01*
X025342Y006779D01*
X025392Y006786D01*
X025442Y006789D01*
X025493Y006788D01*
X025543Y006783D01*
X025593Y006774D01*
X025641Y006762D01*
X025689Y006745D01*
X025735Y006725D01*
X025780Y006702D01*
X025823Y006675D01*
X025863Y006645D01*
X025901Y006612D01*
X025936Y006576D01*
X025969Y006537D01*
X025998Y006496D01*
X026024Y006453D01*
X026047Y006408D01*
X026066Y006361D01*
X026081Y006313D01*
X026093Y006264D01*
X026101Y006214D01*
X026105Y006164D01*
X026105Y006114D01*
X026101Y006064D01*
X026093Y006014D01*
X026081Y005965D01*
X026066Y005917D01*
X026047Y005870D01*
X026024Y005825D01*
X025998Y005782D01*
X025969Y005741D01*
X025936Y005702D01*
X025901Y005666D01*
X025863Y005633D01*
X025823Y005603D01*
X025780Y005576D01*
X025735Y005553D01*
X025689Y005533D01*
X025641Y005516D01*
X025593Y005504D01*
X025543Y005495D01*
X025493Y005490D01*
X025442Y005489D01*
X025392Y005492D01*
X025342Y005499D01*
X025293Y005510D01*
X025245Y005524D01*
X025198Y005542D01*
X025152Y005564D01*
X025108Y005589D01*
X025067Y005618D01*
X025028Y005649D01*
X024991Y005684D01*
X024957Y005721D01*
X024926Y005761D01*
X024898Y005803D01*
X024874Y005847D01*
X024853Y005893D01*
X024836Y005941D01*
X024823Y005989D01*
X024813Y006039D01*
X024807Y006089D01*
X024805Y006139D01*
X024805Y010628D02*
X024807Y010678D01*
X024813Y010728D01*
X024823Y010778D01*
X024836Y010826D01*
X024853Y010874D01*
X024874Y010920D01*
X024898Y010964D01*
X024926Y011006D01*
X024957Y011046D01*
X024991Y011083D01*
X025028Y011118D01*
X025067Y011149D01*
X025108Y011178D01*
X025152Y011203D01*
X025198Y011225D01*
X025245Y011243D01*
X025293Y011257D01*
X025342Y011268D01*
X025392Y011275D01*
X025442Y011278D01*
X025493Y011277D01*
X025543Y011272D01*
X025593Y011263D01*
X025641Y011251D01*
X025689Y011234D01*
X025735Y011214D01*
X025780Y011191D01*
X025823Y011164D01*
X025863Y011134D01*
X025901Y011101D01*
X025936Y011065D01*
X025969Y011026D01*
X025998Y010985D01*
X026024Y010942D01*
X026047Y010897D01*
X026066Y010850D01*
X026081Y010802D01*
X026093Y010753D01*
X026101Y010703D01*
X026105Y010653D01*
X026105Y010603D01*
X026101Y010553D01*
X026093Y010503D01*
X026081Y010454D01*
X026066Y010406D01*
X026047Y010359D01*
X026024Y010314D01*
X025998Y010271D01*
X025969Y010230D01*
X025936Y010191D01*
X025901Y010155D01*
X025863Y010122D01*
X025823Y010092D01*
X025780Y010065D01*
X025735Y010042D01*
X025689Y010022D01*
X025641Y010005D01*
X025593Y009993D01*
X025543Y009984D01*
X025493Y009979D01*
X025442Y009978D01*
X025392Y009981D01*
X025342Y009988D01*
X025293Y009999D01*
X025245Y010013D01*
X025198Y010031D01*
X025152Y010053D01*
X025108Y010078D01*
X025067Y010107D01*
X025028Y010138D01*
X024991Y010173D01*
X024957Y010210D01*
X024926Y010250D01*
X024898Y010292D01*
X024874Y010336D01*
X024853Y010382D01*
X024836Y010430D01*
X024823Y010478D01*
X024813Y010528D01*
X024807Y010578D01*
X024805Y010628D01*
D13*
X025916Y011868D02*
X026146Y011868D01*
X026223Y011945D01*
X026223Y012252D01*
X026146Y012329D01*
X025916Y012329D01*
X025916Y011868D01*
X026377Y011868D02*
X026684Y011868D01*
X026530Y011868D02*
X026530Y012329D01*
X026377Y012175D01*
X023235Y012894D02*
X022928Y012894D01*
X023158Y013124D01*
X023158Y012663D01*
X022775Y012663D02*
X022468Y012663D01*
X022621Y012663D02*
X022621Y013124D01*
X022468Y012970D01*
X022314Y013047D02*
X022238Y013124D01*
X022084Y013124D01*
X022007Y013047D01*
X022007Y012740D01*
X022084Y012663D01*
X022238Y012663D01*
X022314Y012740D01*
X022331Y013711D02*
X022024Y013711D01*
X021947Y013788D01*
X021947Y013941D01*
X022024Y014018D01*
X021947Y014171D02*
X021947Y014478D01*
X022024Y014478D01*
X022331Y014171D01*
X022408Y014171D01*
X022331Y014018D02*
X022408Y013941D01*
X022408Y013788D01*
X022331Y013711D01*
X021484Y013891D02*
X021024Y013891D01*
X021024Y014121D01*
X021100Y014198D01*
X021254Y014198D01*
X021331Y014121D01*
X021331Y013891D01*
X021331Y014044D02*
X021484Y014198D01*
X021254Y014351D02*
X021254Y014658D01*
X021484Y014581D02*
X021024Y014581D01*
X021254Y014351D01*
X020211Y012801D02*
X020211Y012340D01*
X020058Y012340D02*
X020365Y012340D01*
X020058Y012647D02*
X020211Y012801D01*
X019904Y012724D02*
X019904Y012417D01*
X019827Y012340D01*
X019674Y012340D01*
X019597Y012417D01*
X019597Y012724D01*
X019674Y012801D01*
X019827Y012801D01*
X019904Y012724D01*
X019751Y012494D02*
X019904Y012340D01*
X018373Y010981D02*
X018220Y010904D01*
X018067Y010751D01*
X018297Y010751D01*
X018373Y010674D01*
X018373Y010597D01*
X018297Y010521D01*
X018143Y010521D01*
X018067Y010597D01*
X018067Y010751D01*
X017913Y010904D02*
X017836Y010981D01*
X017683Y010981D01*
X017606Y010904D01*
X017606Y010597D01*
X017683Y010521D01*
X017836Y010521D01*
X017913Y010597D01*
X017984Y008931D02*
X017908Y008854D01*
X017984Y008931D02*
X018138Y008931D01*
X018215Y008854D01*
X018215Y008778D01*
X017908Y008471D01*
X018215Y008471D01*
X017754Y008471D02*
X017601Y008624D01*
X017678Y008624D02*
X017447Y008624D01*
X017447Y008471D02*
X017447Y008931D01*
X017678Y008931D01*
X017754Y008854D01*
X017754Y008701D01*
X017678Y008624D01*
X018891Y008242D02*
X018891Y007781D01*
X018891Y007935D02*
X019121Y007935D01*
X019198Y008012D01*
X019198Y008165D01*
X019121Y008242D01*
X018891Y008242D01*
X019351Y008088D02*
X019504Y008242D01*
X019504Y007781D01*
X019351Y007781D02*
X019658Y007781D01*
X019811Y007781D02*
X020118Y007781D01*
X019965Y007781D02*
X019965Y008242D01*
X019811Y008088D01*
X019198Y007781D02*
X019044Y007935D01*
X016893Y007171D02*
X016893Y007017D01*
X016816Y006940D01*
X016816Y006787D02*
X016893Y006710D01*
X016893Y006557D01*
X016816Y006480D01*
X016509Y006480D01*
X016433Y006557D01*
X016433Y006710D01*
X016509Y006787D01*
X016509Y006940D02*
X016433Y007017D01*
X016433Y007171D01*
X016509Y007247D01*
X016586Y007247D01*
X016663Y007171D01*
X016740Y007247D01*
X016816Y007247D01*
X016893Y007171D01*
X016663Y007171D02*
X016663Y007094D01*
X016893Y006327D02*
X016893Y006173D01*
X016893Y006250D02*
X016433Y006250D01*
X016433Y006173D02*
X016433Y006327D01*
X016856Y005224D02*
X017086Y005224D01*
X017163Y005147D01*
X017163Y004840D01*
X017086Y004764D01*
X016856Y004764D01*
X016856Y005224D01*
X017316Y005147D02*
X017393Y005224D01*
X017546Y005224D01*
X017623Y005147D01*
X017623Y005071D01*
X017316Y004764D01*
X017623Y004764D01*
X018032Y004707D02*
X018032Y004247D01*
X018339Y004247D01*
X018492Y004247D02*
X018799Y004247D01*
X018646Y004247D02*
X018646Y004707D01*
X018492Y004554D01*
X017349Y003772D02*
X017272Y003772D01*
X016965Y004079D01*
X016888Y004079D01*
X016888Y003772D01*
X017349Y003618D02*
X017349Y003311D01*
X017349Y003158D02*
X017195Y003004D01*
X017195Y003081D02*
X017195Y002851D01*
X017349Y002851D02*
X016888Y002851D01*
X016888Y003081D01*
X016965Y003158D01*
X017118Y003158D01*
X017195Y003081D01*
X017042Y003311D02*
X016888Y003465D01*
X017349Y003465D01*
X014907Y003484D02*
X014907Y001594D01*
X014238Y000924D01*
X014002Y000924D01*
X013254Y000924D02*
X013017Y000924D01*
X012348Y001594D01*
X012348Y003484D01*
X013254Y003484D01*
X014002Y003484D02*
X014907Y003484D01*
X013254Y003365D02*
X013190Y003343D01*
X013127Y003316D01*
X013065Y003286D01*
X013006Y003253D01*
X012948Y003217D01*
X012892Y003177D01*
X012839Y003134D01*
X012788Y003089D01*
X012740Y003041D01*
X012695Y002990D01*
X012652Y002936D01*
X012613Y002880D01*
X012576Y002823D01*
X012543Y002763D01*
X012514Y002701D01*
X012488Y002638D01*
X012465Y002574D01*
X012446Y002508D01*
X012431Y002441D01*
X012420Y002374D01*
X012412Y002306D01*
X012408Y002238D01*
X012408Y002170D01*
X012412Y002102D01*
X012420Y002034D01*
X012431Y001967D01*
X012446Y001900D01*
X012465Y001834D01*
X012488Y001770D01*
X012514Y001707D01*
X012543Y001645D01*
X012576Y001585D01*
X012613Y001528D01*
X012652Y001472D01*
X012695Y001418D01*
X012740Y001367D01*
X012788Y001319D01*
X012839Y001274D01*
X012892Y001231D01*
X012948Y001191D01*
X013006Y001155D01*
X013065Y001122D01*
X013127Y001092D01*
X013190Y001065D01*
X013254Y001043D01*
X014002Y001043D02*
X014066Y001065D01*
X014129Y001092D01*
X014191Y001122D01*
X014250Y001155D01*
X014308Y001191D01*
X014364Y001231D01*
X014417Y001274D01*
X014468Y001319D01*
X014516Y001367D01*
X014561Y001418D01*
X014604Y001472D01*
X014643Y001528D01*
X014680Y001585D01*
X014713Y001645D01*
X014742Y001707D01*
X014768Y001770D01*
X014791Y001834D01*
X014810Y001900D01*
X014825Y001967D01*
X014836Y002034D01*
X014844Y002102D01*
X014848Y002170D01*
X014848Y002238D01*
X014844Y002306D01*
X014836Y002374D01*
X014825Y002441D01*
X014810Y002508D01*
X014791Y002574D01*
X014768Y002638D01*
X014742Y002701D01*
X014713Y002763D01*
X014680Y002823D01*
X014643Y002880D01*
X014604Y002936D01*
X014561Y002990D01*
X014516Y003041D01*
X014468Y003089D01*
X014417Y003134D01*
X014364Y003177D01*
X014308Y003217D01*
X014250Y003253D01*
X014191Y003286D01*
X014129Y003316D01*
X014066Y003343D01*
X014002Y003365D01*
X005548Y003387D02*
X005088Y003387D01*
X005318Y003157D01*
X005318Y003464D01*
X005165Y003003D02*
X005088Y002927D01*
X005088Y002773D01*
X005165Y002696D01*
X005472Y002696D01*
X005548Y002773D01*
X005548Y002927D01*
X005472Y003003D01*
X005548Y002543D02*
X005548Y002389D01*
X005548Y002466D02*
X005088Y002466D01*
X005088Y002389D02*
X005088Y002543D01*
X022480Y004795D02*
X022556Y004718D01*
X022633Y004718D01*
X022710Y004795D01*
X022710Y005179D01*
X022633Y005179D02*
X022787Y005179D01*
X022940Y005102D02*
X023017Y005179D01*
X023170Y005179D01*
X023247Y005102D01*
X023247Y005025D01*
X022940Y004718D01*
X023247Y004718D01*
X025230Y003283D02*
X027120Y003283D01*
X027120Y002378D01*
X027001Y002378D02*
X026979Y002442D01*
X026952Y002505D01*
X026922Y002567D01*
X026889Y002626D01*
X026853Y002684D01*
X026813Y002740D01*
X026770Y002793D01*
X026725Y002844D01*
X026677Y002892D01*
X026626Y002937D01*
X026572Y002980D01*
X026516Y003019D01*
X026459Y003056D01*
X026399Y003089D01*
X026337Y003118D01*
X026274Y003144D01*
X026210Y003167D01*
X026144Y003186D01*
X026077Y003201D01*
X026010Y003212D01*
X025942Y003220D01*
X025874Y003224D01*
X025806Y003224D01*
X025738Y003220D01*
X025670Y003212D01*
X025603Y003201D01*
X025536Y003186D01*
X025470Y003167D01*
X025406Y003144D01*
X025343Y003118D01*
X025281Y003089D01*
X025221Y003056D01*
X025164Y003019D01*
X025108Y002980D01*
X025054Y002937D01*
X025003Y002892D01*
X024955Y002844D01*
X024910Y002793D01*
X024867Y002740D01*
X024827Y002684D01*
X024791Y002626D01*
X024758Y002567D01*
X024728Y002505D01*
X024701Y002442D01*
X024679Y002378D01*
X024561Y002378D02*
X024561Y002614D01*
X025230Y003283D01*
X024679Y001630D02*
X024701Y001566D01*
X024728Y001503D01*
X024758Y001441D01*
X024791Y001382D01*
X024827Y001324D01*
X024867Y001268D01*
X024910Y001215D01*
X024955Y001164D01*
X025003Y001116D01*
X025054Y001071D01*
X025108Y001028D01*
X025164Y000989D01*
X025221Y000952D01*
X025281Y000919D01*
X025343Y000890D01*
X025406Y000864D01*
X025470Y000841D01*
X025536Y000822D01*
X025603Y000807D01*
X025670Y000796D01*
X025738Y000788D01*
X025806Y000784D01*
X025874Y000784D01*
X025942Y000788D01*
X026010Y000796D01*
X026077Y000807D01*
X026144Y000822D01*
X026210Y000841D01*
X026274Y000864D01*
X026337Y000890D01*
X026399Y000919D01*
X026459Y000952D01*
X026516Y000989D01*
X026572Y001028D01*
X026626Y001071D01*
X026677Y001116D01*
X026725Y001164D01*
X026770Y001215D01*
X026813Y001268D01*
X026853Y001324D01*
X026889Y001382D01*
X026922Y001441D01*
X026952Y001503D01*
X026979Y001566D01*
X027001Y001630D01*
X027120Y001630D02*
X027120Y000724D01*
X025230Y000724D01*
X024561Y001394D01*
X024561Y001630D01*
X017690Y013465D02*
X017690Y013926D01*
X017460Y013695D01*
X017767Y013695D01*
X017306Y013542D02*
X017229Y013465D01*
X017076Y013465D01*
X016999Y013542D01*
X016999Y013849D01*
X017076Y013926D01*
X017229Y013926D01*
X017306Y013849D01*
X011727Y014206D02*
X011650Y014129D01*
X011497Y014129D01*
X011420Y014206D01*
X011267Y014206D02*
X011190Y014129D01*
X011036Y014129D01*
X010960Y014206D01*
X010960Y014513D01*
X011036Y014590D01*
X011190Y014590D01*
X011267Y014513D01*
X011420Y014590D02*
X011420Y014360D01*
X011573Y014436D01*
X011650Y014436D01*
X011727Y014360D01*
X011727Y014206D01*
X011727Y014590D02*
X011420Y014590D01*
X025984Y014893D02*
X025984Y015354D01*
X026215Y015354D01*
X026291Y015277D01*
X026291Y015123D01*
X026215Y015047D01*
X025984Y015047D01*
X026138Y015047D02*
X026291Y014893D01*
X026445Y014970D02*
X026522Y014893D01*
X026675Y014893D01*
X026752Y014970D01*
X026752Y015047D01*
X026675Y015123D01*
X026598Y015123D01*
X026675Y015123D02*
X026752Y015200D01*
X026752Y015277D01*
X026675Y015354D01*
X026522Y015354D01*
X026445Y015277D01*
D14*
X027955Y011419D02*
X021117Y011419D01*
X021117Y005348D01*
X027975Y005348D01*
X027955Y005348D02*
X027955Y011419D01*
X016019Y007677D02*
X015719Y007677D01*
X015869Y007677D02*
X015869Y008127D01*
X015719Y007977D01*
X011796Y008011D02*
X011721Y007936D01*
X011571Y007936D01*
X011496Y008011D01*
X011646Y008161D02*
X011721Y008161D01*
X011796Y008086D01*
X011796Y008011D01*
X011721Y008161D02*
X011796Y008236D01*
X011796Y008311D01*
X011721Y008386D01*
X011571Y008386D01*
X011496Y008311D01*
X011336Y008386D02*
X011186Y008386D01*
X011261Y008386D02*
X011261Y008011D01*
X011186Y007936D01*
X011111Y007936D01*
X011036Y008011D01*
X011019Y006327D02*
X010869Y006252D01*
X010719Y006102D01*
X010944Y006102D01*
X011019Y006027D01*
X011019Y005952D01*
X010944Y005877D01*
X010794Y005877D01*
X010719Y005952D01*
X010719Y006102D01*
X002556Y002233D02*
X002556Y002158D01*
X002256Y001858D01*
X002556Y001858D01*
X002096Y002083D02*
X002021Y002008D01*
X001796Y002008D01*
X001796Y001858D02*
X001796Y002308D01*
X002021Y002308D01*
X002096Y002233D01*
X002096Y002083D01*
X002256Y002233D02*
X002331Y002308D01*
X002481Y002308D01*
X002556Y002233D01*
X001636Y002308D02*
X001485Y002308D01*
X001560Y002308D02*
X001560Y001933D01*
X001485Y001858D01*
X001410Y001858D01*
X001335Y001933D01*
X000742Y003018D02*
X000742Y003319D01*
X000742Y003168D02*
X000291Y003168D01*
X000441Y003018D01*
X003566Y013818D02*
X003491Y013893D01*
X003491Y014043D01*
X003566Y014119D01*
X003641Y014119D01*
X003942Y013818D01*
X003942Y014119D01*
X003716Y014279D02*
X003716Y014579D01*
X003491Y014504D02*
X003716Y014279D01*
X003942Y014504D02*
X003491Y014504D01*
X023412Y004282D02*
X023562Y004432D01*
X023562Y003981D01*
X023412Y003981D02*
X023712Y003981D01*
X024119Y003536D02*
X024269Y003536D01*
X024194Y003536D02*
X024194Y003161D01*
X024119Y003086D01*
X024044Y003086D01*
X023968Y003161D01*
X024429Y003311D02*
X024729Y003311D01*
X024654Y003086D02*
X024654Y003536D01*
X024429Y003311D01*
X027962Y004206D02*
X028262Y004206D01*
X028187Y003981D02*
X028187Y004432D01*
X027962Y004206D01*
D15*
X016773Y008698D02*
X016573Y008998D01*
X016373Y008698D01*
X016773Y008698D01*
X016748Y008735D02*
X016398Y008735D01*
X016451Y008814D02*
X016696Y008814D01*
X016644Y008892D02*
X016503Y008892D01*
X016555Y008971D02*
X016591Y008971D01*
X016273Y008998D02*
X016273Y015998D01*
X012873Y015998D01*
X012873Y008998D01*
X014198Y008998D01*
X014200Y009036D01*
X014206Y009073D01*
X014215Y009110D01*
X014228Y009146D01*
X014245Y009180D01*
X014265Y009212D01*
X014288Y009242D01*
X014315Y009270D01*
X014343Y009295D01*
X014375Y009316D01*
X014408Y009335D01*
X014443Y009350D01*
X014479Y009361D01*
X014516Y009369D01*
X014554Y009373D01*
X014592Y009373D01*
X014630Y009369D01*
X014667Y009361D01*
X014703Y009350D01*
X014738Y009335D01*
X014771Y009316D01*
X014803Y009295D01*
X014831Y009270D01*
X014858Y009242D01*
X014881Y009212D01*
X014901Y009180D01*
X014918Y009146D01*
X014931Y009110D01*
X014940Y009073D01*
X014946Y009036D01*
X014948Y008998D01*
X016273Y008998D01*
X015356Y008627D02*
X015216Y008487D01*
X015036Y008557D02*
X014966Y008627D01*
X014826Y008627D01*
X014756Y008557D01*
X014756Y008276D01*
X014826Y008206D01*
X014966Y008206D01*
X015036Y008276D01*
X015216Y008206D02*
X015496Y008206D01*
X015356Y008206D02*
X015356Y008627D01*
X014589Y008627D02*
X014449Y008627D01*
X014519Y008627D02*
X014519Y008206D01*
X014449Y008206D02*
X014589Y008206D01*
X010209Y004984D02*
X010209Y000973D01*
D16*
X016073Y009248D03*
D17*
X010505Y004319D03*
X010505Y003649D03*
X010505Y002979D03*
X010505Y002309D03*
X010505Y001639D03*
D18*
X018470Y002304D02*
X020220Y001254D01*
X021720Y001254D01*
X023470Y002304D01*
X023470Y003804D02*
X021720Y004854D01*
X020220Y004854D01*
X018470Y003804D01*
X019470Y002354D02*
X019506Y002283D01*
X019545Y002213D01*
X019587Y002145D01*
X019632Y002079D01*
X019681Y002016D01*
X019733Y001955D01*
X019787Y001897D01*
X019844Y001841D01*
X019904Y001788D01*
X019966Y001738D01*
X020031Y001691D01*
X020098Y001647D01*
X020167Y001607D01*
X020238Y001570D01*
X020310Y001536D01*
X020384Y001506D01*
X020459Y001480D01*
X020536Y001457D01*
X020613Y001438D01*
X020692Y001423D01*
X020771Y001411D01*
X020850Y001403D01*
X020930Y001399D01*
X021010Y001399D01*
X021090Y001403D01*
X021169Y001411D01*
X021248Y001423D01*
X021327Y001438D01*
X021404Y001457D01*
X021481Y001480D01*
X021556Y001506D01*
X021630Y001536D01*
X021702Y001570D01*
X021773Y001607D01*
X021842Y001647D01*
X021909Y001691D01*
X021974Y001738D01*
X022036Y001788D01*
X022096Y001841D01*
X022153Y001897D01*
X022207Y001955D01*
X022259Y002016D01*
X022308Y002079D01*
X022353Y002145D01*
X022395Y002213D01*
X022434Y002283D01*
X022470Y002354D01*
X022470Y003754D02*
X022434Y003825D01*
X022395Y003895D01*
X022353Y003963D01*
X022308Y004029D01*
X022259Y004092D01*
X022207Y004153D01*
X022153Y004211D01*
X022096Y004267D01*
X022036Y004320D01*
X021974Y004370D01*
X021909Y004417D01*
X021842Y004461D01*
X021773Y004501D01*
X021702Y004538D01*
X021630Y004572D01*
X021556Y004602D01*
X021481Y004628D01*
X021404Y004651D01*
X021327Y004670D01*
X021248Y004685D01*
X021169Y004697D01*
X021090Y004705D01*
X021010Y004709D01*
X020930Y004709D01*
X020850Y004705D01*
X020771Y004697D01*
X020692Y004685D01*
X020613Y004670D01*
X020536Y004651D01*
X020459Y004628D01*
X020384Y004602D01*
X020310Y004572D01*
X020238Y004538D01*
X020167Y004501D01*
X020098Y004461D01*
X020031Y004417D01*
X019966Y004370D01*
X019904Y004320D01*
X019844Y004267D01*
X019787Y004211D01*
X019733Y004153D01*
X019681Y004092D01*
X019632Y004029D01*
X019587Y003963D01*
X019545Y003895D01*
X019506Y003825D01*
X019470Y003754D01*
D19*
X020128Y007443D03*
X020601Y007443D03*
X027191Y014592D03*
X027664Y014592D03*
D20*
X027428Y014592D03*
X020365Y007443D03*
M02*
