%
M48
M72
T01C0.0140
T02C0.0236
T03C0.0276
T04C0.0320
T05C0.0354
T06C0.0360
T07C0.0400
T08C0.0590
T09C0.1299
%
T01
X16109Y4100
T02
X22097Y2411
X19097Y5706
X18211Y6978
X19754Y7069
X18617Y8647
X18258Y9194
X16601Y8112
X15384Y7738
X14400Y6242
X11487Y8013
X13321Y9533
X15069Y10297
X15936Y10651
X15184Y11238
X17077Y10257
X17266Y11218
X17223Y11785
X17105Y12722
X14833Y12502
X13180Y12462
X11924Y11163
X10975Y11754
X10463Y12147
X9754Y12305
X9321Y11754
X9361Y11202
X10817Y10612
X8888Y9076
X5463Y10336
X4951Y6911
X4479Y6006
X3928Y5533
X3455Y4943
X9006Y6832
X12298Y3647
X21109Y9100
X18888Y11281
X19463Y12238
X21046Y12124
X21085Y13376
X18290Y14730
X15621Y15691
X15109Y15218
X10751Y13702
X6251Y14667
X5542Y15257
X4518Y15809
X3731Y15021
X3770Y14155
X27609Y13600
T03
X14640Y2438
T04
X20711Y5655
X19699Y5647
T05
X22955Y6631
X21955Y7135
X22951Y7628
X21947Y8128
X22955Y8628
X21940Y9108
X22955Y9620
X21940Y10124
T06
X2617Y10143
X1617Y10143
X1617Y9143
X2617Y9143
X2617Y8143
X1617Y8143
X1617Y7143
X2617Y7143
X2617Y6143
X1617Y6143
X1617Y5143
X2617Y5143
X2617Y4143
X1617Y4143
X1617Y3143
X2617Y3143
X2617Y11143
X1617Y11143
X1617Y12143
X2617Y12143
X2617Y13143
X1617Y13143
X1617Y14143
X2617Y14143
T07
X10904Y7002
X11904Y7002
X12904Y7002
X13904Y7002
X14904Y7002
X15904Y7002
X24337Y4206
X25337Y4206
X26337Y4206
X27337Y4206
X25294Y15047
X23514Y15047
T08
X25784Y14067
X23024Y14067
T09
X25455Y6139
X25455Y10628
M30
