G75*
%MOIN*%
%OFA0B0*%
%FSLAX24Y24*%
%IPPOS*%
%LPD*%
%AMOC8*
5,1,8,0,0,1.08239X$1,22.5*
%
%ADD10R,0.0551X0.1181*%
%ADD11R,0.0600X0.0500*%
%ADD12R,0.0551X0.0551*%
%ADD13R,0.0236X0.0866*%
%ADD14C,0.0600*%
%ADD15OC8,0.0600*%
%ADD16C,0.0885*%
%ADD17R,0.0400X0.0250*%
%ADD18R,0.0591X0.0512*%
%ADD19R,0.0512X0.0591*%
%ADD20R,0.0551X0.0394*%
%ADD21R,0.4098X0.4252*%
%ADD22R,0.0850X0.0420*%
%ADD23R,0.1150X0.1098*%
%ADD24R,0.1181X0.0551*%
%ADD25R,0.0554X0.0554*%
%ADD26R,0.0787X0.2165*%
%ADD27R,0.0472X0.0472*%
%ADD28OC8,0.0630*%
%ADD29C,0.0560*%
%ADD30OC8,0.0560*%
%ADD31C,0.0160*%
%ADD32C,0.0320*%
%ADD33C,0.0080*%
%ADD34C,0.0240*%
%ADD35C,0.0396*%
%ADD36C,0.0070*%
%ADD37C,0.0100*%
%ADD38C,0.0120*%
%ADD39C,0.0436*%
%ADD40R,0.0396X0.0396*%
%ADD41C,0.0300*%
D10*
X013628Y001259D03*
X013628Y003149D03*
D11*
X014967Y004394D03*
X014967Y005144D03*
D12*
X015712Y002428D03*
X017208Y002428D03*
X023786Y012643D03*
X025282Y012643D03*
D13*
X018697Y007789D03*
X018197Y007789D03*
X017697Y007789D03*
X017197Y007789D03*
X017197Y005742D03*
X017697Y005742D03*
X018197Y005742D03*
X018697Y005742D03*
D14*
X015904Y006702D02*
X015904Y007302D01*
X014904Y007302D02*
X014904Y006702D01*
X013904Y006702D02*
X013904Y007302D01*
X012904Y007302D02*
X012904Y006702D01*
X011904Y006702D02*
X011904Y007302D01*
X010904Y007302D02*
X010904Y006702D01*
X024337Y004506D02*
X024337Y003906D01*
X025337Y003906D02*
X025337Y004506D01*
X026337Y004506D02*
X026337Y003906D01*
X027337Y003906D02*
X027337Y004506D01*
D15*
X025294Y015047D03*
X023514Y015047D03*
D16*
X023024Y014067D03*
X025784Y014067D03*
D17*
X016573Y014248D03*
X016573Y014748D03*
X016573Y015248D03*
X016573Y015748D03*
X016573Y013748D03*
X016573Y013248D03*
X016573Y012748D03*
X016573Y012248D03*
X016573Y011748D03*
X016573Y011248D03*
X016573Y010748D03*
X016573Y010248D03*
X016573Y009748D03*
X016573Y009248D03*
X012573Y009248D03*
X012573Y009748D03*
X012573Y010248D03*
X012573Y010748D03*
X012573Y011248D03*
X012573Y011748D03*
X012573Y012248D03*
X012573Y012748D03*
X012573Y013248D03*
X012573Y013748D03*
X012573Y014248D03*
X012573Y014748D03*
X012573Y015248D03*
X012573Y015748D03*
D18*
X011349Y013639D03*
X011349Y012891D03*
X017644Y009998D03*
X017644Y009250D03*
X018224Y011312D03*
X018224Y012060D03*
X018236Y012718D03*
X018236Y013466D03*
X021306Y015061D03*
X022144Y015069D03*
X022144Y015817D03*
X021306Y015809D03*
D19*
X026656Y015789D03*
X027404Y015789D03*
X022495Y012155D03*
X021747Y012155D03*
X020369Y008620D03*
X019621Y008620D03*
X016495Y003588D03*
X015747Y003588D03*
D20*
X016530Y004506D03*
X015664Y004880D03*
X016530Y005254D03*
D21*
X008075Y002979D03*
D22*
X011355Y002979D03*
X011355Y003649D03*
X011355Y004319D03*
X011355Y002309D03*
X011355Y001639D03*
D23*
X018891Y003054D03*
X023049Y003054D03*
D24*
X024895Y002004D03*
X026785Y002004D03*
D25*
X022955Y006631D03*
X021955Y007135D03*
X022951Y007628D03*
X021947Y008128D03*
X022955Y008628D03*
X021940Y009108D03*
X022955Y009620D03*
X021940Y010124D03*
D26*
X019628Y010679D03*
X019628Y014419D03*
D27*
X027428Y014238D03*
X027428Y015065D03*
X020365Y007915D03*
X020365Y007088D03*
D28*
X020711Y005655D03*
X019699Y005647D03*
D29*
X001617Y003143D03*
D30*
X002617Y003143D03*
X002617Y004143D03*
X001617Y004143D03*
X001617Y005143D03*
X002617Y005143D03*
X002617Y006143D03*
X001617Y006143D03*
X001617Y007143D03*
X002617Y007143D03*
X002617Y008143D03*
X001617Y008143D03*
X001617Y009143D03*
X002617Y009143D03*
X002617Y010143D03*
X001617Y010143D03*
X001617Y011143D03*
X002617Y011143D03*
X002617Y012143D03*
X001617Y012143D03*
X001617Y013143D03*
X002617Y013143D03*
X002617Y014143D03*
X001617Y014143D03*
D31*
X010751Y013702D02*
X010814Y013639D01*
X011349Y013639D01*
X011457Y013748D01*
X012573Y013748D01*
X016573Y013748D02*
X016599Y013722D01*
X017550Y013722D01*
X017774Y013498D01*
X018030Y013498D01*
X018204Y013498D01*
X018236Y013466D01*
X018085Y013443D02*
X018030Y013498D01*
X018085Y013443D02*
X019046Y013443D01*
X019628Y014025D01*
X019628Y014419D01*
X017739Y012876D02*
X017365Y013250D01*
X016575Y013250D01*
X016573Y013248D01*
X016573Y012748D02*
X017079Y012748D01*
X017105Y012722D01*
X017739Y012876D02*
X017739Y011561D01*
X017987Y011312D01*
X018224Y011312D01*
X018857Y010679D01*
X019628Y010679D01*
X017648Y010561D02*
X019609Y008600D01*
X019207Y012060D02*
X018224Y012060D01*
X018236Y012072D01*
X018236Y012718D01*
X018206Y012748D01*
X019207Y012060D02*
X019463Y012238D01*
X023660Y012635D02*
X023786Y012643D01*
X025282Y012643D02*
X025495Y012643D01*
X025534Y012604D01*
X024931Y002050D02*
X024895Y002004D01*
X013995Y000565D02*
X013628Y001259D01*
X013634Y001422D01*
D32*
X000857Y000533D02*
X000699Y000691D01*
X000699Y012817D01*
X001026Y013143D01*
X002617Y013143D01*
X001617Y013143D01*
X011355Y004319D02*
X013156Y004315D01*
X013680Y003428D01*
X013513Y002983D02*
X011355Y002979D01*
X011374Y002304D02*
X011587Y002324D01*
X011374Y002304D02*
X012281Y002305D01*
X014024Y002112D01*
X014740Y001558D01*
X018060Y001558D01*
X018891Y002389D01*
X018891Y003054D02*
X017208Y002428D01*
X015594Y002414D02*
X015079Y002928D01*
X014530Y002928D01*
X014530Y002498D01*
X013634Y001422D02*
X011355Y001639D01*
X013964Y000533D02*
X013995Y000565D01*
X020176Y000545D01*
X021089Y000541D01*
X021002Y000545D01*
X021928Y000565D01*
X028054Y000541D01*
X028042Y004844D01*
X028042Y011698D01*
X026585Y012604D01*
X025534Y012604D01*
X022955Y009891D02*
X022747Y010100D01*
X022668Y010100D01*
X022628Y010139D01*
X021955Y010139D01*
X021940Y010124D01*
X021940Y009108D01*
X022955Y009620D02*
X023144Y009431D01*
X026093Y009431D01*
X027337Y008187D01*
X027337Y004206D01*
X027432Y004112D01*
X027432Y002738D01*
X026785Y002091D01*
X026785Y002004D01*
X024931Y002050D02*
X023049Y003054D01*
X019097Y005706D02*
X019085Y005836D01*
X019085Y006990D02*
X019203Y007069D01*
X019754Y007069D01*
X018278Y006911D02*
X018211Y006978D01*
X022109Y007100D02*
X023109Y007100D01*
X023109Y006600D01*
X023109Y007100D02*
X023109Y007600D01*
X022951Y007628D01*
X022955Y009620D02*
X022955Y009891D01*
X013964Y000533D02*
X000857Y000533D01*
D33*
X016530Y005254D02*
X016821Y005116D01*
X017609Y005600D02*
X017697Y005742D01*
X020609Y005600D02*
X020711Y005655D01*
X020609Y005600D02*
X021609Y005600D01*
X021609Y006100D01*
X021127Y006582D01*
X021109Y006600D01*
X021955Y007135D02*
X022109Y007100D01*
X022955Y006631D02*
X023109Y006600D01*
X019621Y008620D02*
X019609Y008600D01*
X017648Y010561D02*
X017644Y010600D01*
X023609Y012600D02*
X023786Y012643D01*
X027428Y014238D02*
X027609Y014100D01*
X027609Y013600D01*
X027428Y015065D02*
X027609Y015100D01*
X027609Y015600D01*
D34*
X023735Y012687D02*
X023595Y012644D01*
X023602Y012609D01*
X023467Y011541D01*
X023443Y011521D01*
X021109Y011100D01*
X021109Y009100D01*
X020369Y008620D02*
X020369Y007919D01*
X020365Y007915D01*
X020365Y007088D02*
X019774Y007088D01*
X014943Y007041D02*
X014943Y007651D01*
X014636Y007958D01*
X014148Y007958D01*
X014077Y008081D01*
X014109Y008100D02*
X014109Y016100D01*
X020609Y016100D01*
X021109Y015600D01*
X021306Y015809D01*
X014904Y007002D02*
X014904Y006348D01*
X014924Y005659D01*
X014883Y005475D01*
X014967Y005144D01*
X014967Y004394D02*
X014976Y003832D01*
X014936Y003517D01*
X015079Y003149D01*
X015079Y002928D01*
X015436Y002642D02*
X015650Y002428D01*
X015712Y002428D01*
X015594Y002414D01*
X015630Y002378D01*
X015650Y002428D02*
X015690Y002388D01*
X014640Y002438D02*
X014530Y002498D01*
X014530Y002928D02*
X013628Y003149D01*
X013667Y002915D01*
X013680Y002928D01*
X013680Y003428D01*
X013628Y003149D02*
X013749Y002928D01*
X013740Y002938D01*
X013625Y002717D01*
X013513Y002983D01*
X013630Y002878D02*
X013667Y002915D01*
X013749Y002928D02*
X013770Y002908D01*
X012296Y003629D02*
X011355Y003649D01*
X011355Y002309D02*
X011587Y002324D01*
X011537Y002303D01*
X018891Y002389D02*
X018891Y003054D01*
X018920Y002428D01*
X018940Y002408D01*
X022097Y002411D02*
X023032Y002411D01*
D35*
X021109Y009100D03*
X027609Y013600D03*
D36*
X023609Y012600D02*
X023595Y012644D01*
X017266Y011679D02*
X017266Y011218D01*
X017266Y011179D01*
X017266Y011679D02*
X017223Y011785D01*
X017609Y005600D02*
X017609Y005100D01*
X016609Y005100D01*
X016530Y005254D01*
X016109Y004100D02*
X015609Y003600D01*
X015747Y003588D01*
D37*
X015371Y003548D02*
X014053Y003548D01*
X014053Y003646D02*
X015371Y003646D01*
X015371Y003745D02*
X014053Y003745D01*
X014053Y003759D02*
X014043Y003797D01*
X014023Y003832D01*
X013995Y003859D01*
X013961Y003879D01*
X013923Y003889D01*
X013678Y003889D01*
X013678Y003199D01*
X014053Y003199D01*
X014053Y003759D01*
X014012Y003843D02*
X015371Y003843D01*
X015371Y003933D02*
X015371Y003243D01*
X015441Y003173D01*
X016052Y003173D01*
X016121Y003241D01*
X016189Y003173D01*
X016800Y003173D01*
X016871Y003243D01*
X016871Y003933D01*
X016800Y004003D01*
X016700Y004003D01*
X016700Y004189D01*
X016855Y004189D01*
X016926Y004259D01*
X016926Y004338D01*
X017103Y004339D01*
X017103Y004339D01*
X017173Y004339D01*
X017243Y004340D01*
X017244Y004340D01*
X018192Y004351D01*
X018262Y004351D01*
X018263Y004352D01*
X018264Y004352D01*
X018312Y004402D01*
X018361Y004451D01*
X018361Y004452D01*
X018362Y004453D01*
X018361Y004522D01*
X018361Y004790D01*
X019006Y004089D01*
X019006Y004085D01*
X019053Y004037D01*
X019098Y003988D01*
X019102Y003988D01*
X019105Y003985D01*
X019172Y003985D01*
X019239Y003982D01*
X019242Y003985D01*
X023053Y003985D01*
X023982Y004914D01*
X024225Y004914D01*
X024099Y004862D01*
X023981Y004744D01*
X023917Y004590D01*
X023917Y003823D01*
X023981Y003668D01*
X024099Y003550D01*
X024254Y003486D01*
X024421Y003486D01*
X024575Y003550D01*
X024693Y003668D01*
X024757Y003823D01*
X024757Y004590D01*
X024693Y004744D01*
X024607Y004830D01*
X024926Y004611D01*
X024917Y004590D01*
X024917Y003823D01*
X024981Y003668D01*
X025099Y003550D01*
X025254Y003486D01*
X025421Y003486D01*
X025575Y003550D01*
X025693Y003668D01*
X025757Y003823D01*
X025757Y004590D01*
X025693Y004744D01*
X025575Y004862D01*
X025421Y004926D01*
X025254Y004926D01*
X025137Y004878D01*
X024988Y004981D01*
X025403Y004981D01*
X025848Y004893D01*
X025848Y004365D01*
X025834Y004329D01*
X025848Y004297D01*
X025848Y004262D01*
X025875Y004235D01*
X025890Y004200D01*
X025917Y004189D01*
X025917Y003823D01*
X025981Y003668D01*
X026099Y003550D01*
X026254Y003486D01*
X026421Y003486D01*
X026575Y003550D01*
X026693Y003668D01*
X026757Y003823D01*
X026757Y004590D01*
X026693Y004744D01*
X026575Y004862D01*
X026421Y004926D01*
X026254Y004926D01*
X026188Y004899D01*
X026188Y005016D01*
X026199Y005069D01*
X026188Y005085D01*
X026188Y005103D01*
X026150Y005142D01*
X026120Y005186D01*
X026102Y005190D01*
X026089Y005203D01*
X026035Y005203D01*
X025703Y005268D01*
X025965Y005377D01*
X026218Y005630D01*
X026355Y005960D01*
X026355Y006318D01*
X026218Y006649D01*
X025965Y006902D01*
X025634Y007039D01*
X025276Y007039D01*
X024946Y006902D01*
X024693Y006649D01*
X024556Y006318D01*
X024556Y006205D01*
X024263Y006497D01*
X024263Y008474D01*
X024163Y008573D01*
X023939Y008798D01*
X023352Y008798D01*
X023352Y008954D01*
X023282Y009025D01*
X022628Y009025D01*
X022558Y008954D01*
X022558Y008798D01*
X022363Y008798D01*
X022367Y008811D01*
X022367Y009069D01*
X021978Y009069D01*
X021978Y009146D01*
X022367Y009146D01*
X022367Y009405D01*
X022356Y009443D01*
X022337Y009477D01*
X022309Y009505D01*
X022275Y009525D01*
X022236Y009535D01*
X021978Y009535D01*
X021978Y009146D01*
X021901Y009146D01*
X021901Y009069D01*
X021512Y009069D01*
X021512Y008811D01*
X021516Y008798D01*
X021381Y008798D01*
X021093Y008510D01*
X020994Y008411D01*
X020994Y006711D01*
X020949Y006666D01*
X020949Y006645D01*
X020912Y006609D01*
X017779Y006609D01*
X017625Y006455D01*
X017525Y006355D01*
X017525Y006291D01*
X017459Y006225D01*
X017459Y005670D01*
X017454Y005664D01*
X017454Y005654D01*
X017438Y005629D01*
X017454Y005560D01*
X017454Y005255D01*
X017432Y005255D01*
X017435Y005259D01*
X017435Y006225D01*
X017365Y006295D01*
X017030Y006295D01*
X016959Y006225D01*
X016959Y005259D01*
X016963Y005255D01*
X016926Y005255D01*
X016926Y005500D01*
X016855Y005570D01*
X016205Y005570D01*
X016134Y005500D01*
X016134Y005007D01*
X016205Y004937D01*
X016610Y004937D01*
X016622Y004933D01*
X016630Y004937D01*
X016855Y004937D01*
X016864Y004945D01*
X017673Y004945D01*
X017764Y005036D01*
X017764Y005189D01*
X017865Y005189D01*
X017935Y005259D01*
X017935Y006225D01*
X017905Y006255D01*
X017919Y006269D01*
X018003Y006269D01*
X017959Y006225D01*
X017959Y005259D01*
X018021Y005197D01*
X018021Y004689D01*
X017170Y004679D01*
X016926Y004678D01*
X016926Y004752D01*
X016855Y004822D01*
X016205Y004822D01*
X016134Y004752D01*
X016134Y004370D01*
X016055Y004370D01*
X015956Y004329D01*
X015880Y004253D01*
X015839Y004154D01*
X015839Y004049D01*
X015793Y004003D01*
X015441Y004003D01*
X015371Y003933D01*
X015379Y003942D02*
X012569Y003942D01*
X012546Y003965D02*
X012050Y003965D01*
X011980Y003895D01*
X011980Y003876D01*
X011900Y003878D01*
X011900Y003909D01*
X011839Y003970D01*
X011872Y003989D01*
X011900Y004017D01*
X011920Y004051D01*
X011930Y004089D01*
X011930Y004269D01*
X011405Y004269D01*
X011405Y004369D01*
X011305Y004369D01*
X011305Y004679D01*
X010910Y004679D01*
X010872Y004669D01*
X010838Y004649D01*
X010810Y004621D01*
X010790Y004587D01*
X010780Y004549D01*
X010780Y004369D01*
X011305Y004369D01*
X011305Y004269D01*
X010780Y004269D01*
X010780Y004089D01*
X010790Y004051D01*
X010810Y004017D01*
X010838Y003989D01*
X010871Y003970D01*
X010810Y003909D01*
X010810Y003389D01*
X010871Y003328D01*
X010838Y003309D01*
X010810Y003281D01*
X010790Y003247D01*
X010780Y003209D01*
X010780Y003029D01*
X011305Y003029D01*
X011305Y002929D01*
X010780Y002929D01*
X010780Y002749D01*
X010790Y002711D01*
X010810Y002677D01*
X010838Y002649D01*
X010871Y002630D01*
X010810Y002569D01*
X010810Y002049D01*
X010880Y001979D01*
X011830Y001979D01*
X011875Y002024D01*
X012265Y002025D01*
X013249Y001916D01*
X013232Y001899D01*
X013232Y001742D01*
X011900Y001868D01*
X011900Y001899D01*
X011830Y001969D01*
X010880Y001969D01*
X010810Y001899D01*
X010810Y001379D01*
X010880Y001309D01*
X011830Y001309D01*
X011833Y001312D01*
X013232Y001179D01*
X013232Y000813D01*
X010244Y000813D01*
X010244Y005155D01*
X010174Y005225D01*
X005976Y005225D01*
X005906Y005155D01*
X005906Y000813D01*
X000979Y000813D01*
X000979Y003660D01*
X001018Y003621D01*
X001176Y003463D01*
X001329Y003463D01*
X001289Y003423D01*
X001249Y003369D01*
X001218Y003308D01*
X001197Y003244D01*
X001188Y003183D01*
X001577Y003183D01*
X001577Y003103D01*
X001657Y003103D01*
X001657Y003183D01*
X002046Y003183D01*
X002036Y003244D01*
X002015Y003308D01*
X001984Y003369D01*
X001945Y003423D01*
X001905Y003463D01*
X002309Y003463D01*
X002415Y003569D01*
X002589Y003743D01*
X002782Y003743D01*
X003017Y003978D01*
X003017Y004309D01*
X002839Y004487D01*
X003254Y004487D01*
X003392Y004624D01*
X003703Y004624D01*
X003773Y004695D01*
X003773Y005190D01*
X003749Y005215D01*
X004176Y005215D01*
X004246Y005285D01*
X004246Y005687D01*
X004727Y005687D01*
X004797Y005758D01*
X004797Y006219D01*
X004861Y006219D01*
X004889Y006182D01*
X004889Y006167D01*
X004933Y006123D01*
X004970Y006074D01*
X004985Y006072D01*
X004995Y006062D01*
X005057Y006062D01*
X005118Y006053D01*
X005129Y006062D01*
X014082Y006062D01*
X014082Y005994D01*
X014152Y005924D01*
X014648Y005924D01*
X014675Y005951D01*
X014683Y005682D01*
X014657Y005564D01*
X014653Y005557D01*
X014647Y005518D01*
X014646Y005514D01*
X014617Y005514D01*
X014547Y005444D01*
X014547Y004845D01*
X014608Y004783D01*
X014575Y004764D01*
X014547Y004736D01*
X014527Y004702D01*
X014517Y004664D01*
X014517Y004444D01*
X014917Y004444D01*
X014917Y004344D01*
X015017Y004344D01*
X015017Y003994D01*
X015287Y003994D01*
X015325Y004005D01*
X015359Y004024D01*
X015387Y004052D01*
X015407Y004086D01*
X015417Y004125D01*
X015417Y004344D01*
X015017Y004344D01*
X015017Y004444D01*
X015417Y004444D01*
X015417Y004533D01*
X015615Y004533D01*
X015615Y004831D01*
X015712Y004831D01*
X015712Y004533D01*
X015959Y004533D01*
X015997Y004543D01*
X016032Y004563D01*
X016060Y004591D01*
X016079Y004625D01*
X016089Y004663D01*
X016089Y004831D01*
X015712Y004831D01*
X015712Y004928D01*
X015615Y004928D01*
X015615Y005226D01*
X015387Y005226D01*
X015387Y005444D01*
X015317Y005514D01*
X015138Y005514D01*
X015154Y005590D01*
X015165Y005618D01*
X015164Y005636D01*
X015168Y005654D01*
X015163Y005684D01*
X015157Y005900D01*
X016069Y005900D01*
X016175Y006006D01*
X016223Y006054D01*
X016557Y006054D01*
X016663Y006159D01*
X017313Y006810D01*
X017518Y006810D01*
X017623Y006915D01*
X017877Y007169D01*
X017877Y007248D01*
X017935Y007306D01*
X017935Y007313D01*
X017939Y007298D01*
X017959Y007264D01*
X017987Y007236D01*
X018021Y007216D01*
X018060Y007206D01*
X018188Y007206D01*
X018188Y007780D01*
X018206Y007780D01*
X018206Y007206D01*
X018335Y007206D01*
X018373Y007216D01*
X018408Y007236D01*
X018436Y007264D01*
X018455Y007298D01*
X018459Y007313D01*
X018459Y007306D01*
X018530Y007236D01*
X018865Y007236D01*
X018935Y007306D01*
X018935Y008272D01*
X018877Y008330D01*
X018877Y008342D01*
X018935Y008399D01*
X018935Y008895D01*
X018864Y008965D01*
X018577Y008965D01*
X018577Y009349D01*
X019245Y008681D01*
X019245Y008275D01*
X019315Y008204D01*
X019926Y008204D01*
X019995Y008273D01*
X020038Y008230D01*
X020008Y008201D01*
X020008Y007629D01*
X020079Y007559D01*
X020651Y007559D01*
X020721Y007629D01*
X020721Y008201D01*
X020696Y008226D01*
X020745Y008275D01*
X020745Y008965D01*
X020674Y009035D01*
X020063Y009035D01*
X019995Y008967D01*
X019926Y009035D01*
X019457Y009035D01*
X017824Y010667D01*
X017824Y010915D01*
X017584Y011155D01*
X017584Y011432D01*
X017656Y011361D01*
X017808Y011208D01*
X017808Y011006D01*
X017879Y010936D01*
X018317Y010936D01*
X018774Y010479D01*
X019115Y010479D01*
X019115Y009546D01*
X019185Y009476D01*
X020072Y009476D01*
X020142Y009546D01*
X020142Y011811D01*
X020072Y011881D01*
X019185Y011881D01*
X019115Y011811D01*
X019115Y010879D01*
X018940Y010879D01*
X018639Y011180D01*
X018639Y011618D01*
X018587Y011670D01*
X018611Y011684D01*
X018639Y011712D01*
X018659Y011746D01*
X018669Y011784D01*
X018669Y012010D01*
X018274Y012010D01*
X018274Y012110D01*
X018669Y012110D01*
X018669Y012336D01*
X018659Y012374D01*
X018656Y012378D01*
X018671Y012404D01*
X018681Y012442D01*
X018681Y012668D01*
X018286Y012668D01*
X018286Y012768D01*
X018681Y012768D01*
X018681Y012993D01*
X018671Y013032D01*
X018651Y013066D01*
X018623Y013094D01*
X018599Y013108D01*
X018651Y013160D01*
X018651Y013243D01*
X019129Y013243D01*
X019144Y013258D01*
X019185Y013216D01*
X020072Y013216D01*
X020142Y013287D01*
X020142Y015511D01*
X020306Y015511D01*
X020393Y015423D01*
X020393Y015116D01*
X020499Y015011D01*
X020629Y014881D01*
X020890Y014881D01*
X020890Y014755D01*
X020961Y014685D01*
X021651Y014685D01*
X021721Y014755D01*
X021721Y014881D01*
X021729Y014881D01*
X021729Y014763D01*
X021799Y014693D01*
X022489Y014693D01*
X022559Y014763D01*
X022559Y014896D01*
X022601Y014896D01*
X022881Y014616D01*
X022705Y014544D01*
X022547Y014385D01*
X022462Y014179D01*
X022462Y013955D01*
X022547Y013748D01*
X022705Y013590D01*
X022912Y013504D01*
X023136Y013504D01*
X023343Y013590D01*
X023501Y013748D01*
X023587Y013955D01*
X023587Y014179D01*
X023529Y014318D01*
X023774Y014318D01*
X023879Y014423D01*
X024323Y014867D01*
X024880Y014867D01*
X025120Y014627D01*
X025468Y014627D01*
X025714Y014873D01*
X025714Y015221D01*
X025468Y015467D01*
X025120Y015467D01*
X024880Y015227D01*
X024174Y015227D01*
X023944Y014997D01*
X023564Y014997D01*
X023564Y015097D01*
X023464Y015097D01*
X023464Y015497D01*
X023328Y015497D01*
X023064Y015233D01*
X023064Y015097D01*
X023464Y015097D01*
X023464Y014997D01*
X023064Y014997D01*
X023064Y014961D01*
X023046Y014961D01*
X022856Y015151D01*
X022750Y015256D01*
X022559Y015256D01*
X022559Y015374D01*
X022507Y015426D01*
X022532Y015441D01*
X022560Y015469D01*
X022579Y015503D01*
X022589Y015541D01*
X022589Y015767D01*
X022194Y015767D01*
X022194Y015867D01*
X022094Y015867D01*
X022094Y016222D01*
X021829Y016222D01*
X021791Y016212D01*
X021757Y016192D01*
X021729Y016165D01*
X021709Y016130D01*
X021708Y016127D01*
X021651Y016185D01*
X020961Y016185D01*
X020912Y016136D01*
X020812Y016236D01*
X020745Y016303D01*
X020657Y016340D01*
X014061Y016340D01*
X013973Y016303D01*
X013905Y016236D01*
X013869Y016148D01*
X013869Y013428D01*
X012888Y013428D01*
X012832Y013483D01*
X012865Y013503D01*
X012893Y013531D01*
X012913Y013565D01*
X012923Y013603D01*
X012923Y013735D01*
X012586Y013735D01*
X012586Y013760D01*
X012923Y013760D01*
X012923Y013892D01*
X012913Y013931D01*
X012893Y013965D01*
X012865Y013993D01*
X012832Y014012D01*
X012893Y014073D01*
X012893Y014422D01*
X012823Y014493D01*
X012324Y014493D01*
X012253Y014422D01*
X012253Y014335D01*
X004088Y014335D01*
X004088Y014403D01*
X004018Y014473D01*
X003522Y014473D01*
X003452Y014403D01*
X003452Y013907D01*
X003522Y013837D01*
X003906Y013837D01*
X003696Y013626D01*
X003538Y013626D01*
X003360Y013448D01*
X003360Y016010D01*
X003530Y016180D01*
X012948Y016180D01*
X013354Y015773D01*
X013354Y015056D01*
X013223Y014926D01*
X012890Y014926D01*
X012823Y014993D01*
X012324Y014993D01*
X012253Y014922D01*
X012253Y014573D01*
X012324Y014503D01*
X012823Y014503D01*
X012886Y014566D01*
X013372Y014566D01*
X013478Y014671D01*
X013478Y014671D01*
X013714Y014907D01*
X013714Y015923D01*
X013251Y016385D01*
X028172Y016385D01*
X028172Y011948D01*
X028170Y011948D01*
X026760Y012825D01*
X026744Y012841D01*
X026714Y012854D01*
X026686Y012871D01*
X026663Y012875D01*
X026641Y012884D01*
X026608Y012884D01*
X026576Y012889D01*
X026553Y012884D01*
X025678Y012884D01*
X025678Y012969D01*
X025607Y013039D01*
X024957Y013039D01*
X024886Y012969D01*
X024886Y012318D01*
X024957Y012248D01*
X025607Y012248D01*
X025678Y012318D01*
X025678Y012324D01*
X026505Y012324D01*
X027762Y011543D01*
X027762Y004899D01*
X027762Y004844D01*
X027762Y004788D01*
X027762Y004654D01*
X027754Y004679D01*
X027722Y004742D01*
X027680Y004799D01*
X027630Y004850D01*
X027573Y004891D01*
X027510Y004923D01*
X027443Y004945D01*
X027387Y004954D01*
X027387Y004256D01*
X027287Y004256D01*
X027287Y004156D01*
X027387Y004156D01*
X027387Y003459D01*
X027443Y003467D01*
X027510Y003489D01*
X027573Y003521D01*
X027630Y003563D01*
X027680Y003613D01*
X027722Y003670D01*
X027754Y003734D01*
X027765Y003766D01*
X027773Y000822D01*
X021981Y000844D01*
X021977Y000846D01*
X021925Y000845D01*
X021873Y000845D01*
X021870Y000843D01*
X021006Y000825D01*
X020960Y000827D01*
X020950Y000824D01*
X020941Y000824D01*
X020936Y000822D01*
X020232Y000825D01*
X020176Y000825D01*
X020121Y000825D01*
X014074Y000844D01*
X014023Y000939D01*
X014023Y001759D01*
X014555Y001347D01*
X014581Y001320D01*
X014598Y001313D01*
X014613Y001302D01*
X014649Y001292D01*
X014684Y001278D01*
X014703Y001278D01*
X014720Y001273D01*
X014758Y001278D01*
X018116Y001278D01*
X018219Y001320D01*
X018297Y001399D01*
X019129Y002230D01*
X019171Y002333D01*
X019171Y002339D01*
X019180Y002360D01*
X019180Y002384D01*
X019516Y002384D01*
X019586Y002455D01*
X019586Y003653D01*
X019516Y003723D01*
X018267Y003723D01*
X018197Y003653D01*
X018197Y003094D01*
X017469Y002823D01*
X016883Y002823D01*
X016812Y002753D01*
X016812Y002102D01*
X016883Y002032D01*
X017533Y002032D01*
X017604Y002102D01*
X017604Y002276D01*
X018197Y002496D01*
X018197Y002455D01*
X018267Y002384D01*
X018491Y002384D01*
X017944Y001838D01*
X014836Y001838D01*
X014222Y002313D01*
X014208Y002330D01*
X014179Y002347D01*
X014152Y002367D01*
X014130Y002373D01*
X014111Y002384D01*
X014077Y002388D01*
X014044Y002397D01*
X014022Y002394D01*
X013890Y002408D01*
X013923Y002408D01*
X013961Y002419D01*
X013995Y002438D01*
X014023Y002466D01*
X014043Y002500D01*
X014053Y002539D01*
X014053Y003099D01*
X013678Y003099D01*
X013678Y003199D01*
X013578Y003199D01*
X013578Y003889D01*
X013332Y003889D01*
X013294Y003879D01*
X013260Y003859D01*
X013232Y003832D01*
X013212Y003797D01*
X013202Y003759D01*
X013202Y003199D01*
X013578Y003199D01*
X013578Y003099D01*
X013578Y002443D01*
X013678Y002432D01*
X013678Y003099D01*
X013578Y003099D01*
X013202Y003099D01*
X013202Y002539D01*
X013212Y002500D01*
X013223Y002482D01*
X012351Y002579D01*
X012336Y002585D01*
X012296Y002585D01*
X012256Y002589D01*
X012241Y002585D01*
X011884Y002584D01*
X011839Y002630D01*
X011872Y002649D01*
X011900Y002677D01*
X011920Y002711D01*
X011930Y002749D01*
X011930Y002929D01*
X011405Y002929D01*
X011405Y003029D01*
X011930Y003029D01*
X011930Y003209D01*
X011920Y003247D01*
X011900Y003281D01*
X011872Y003309D01*
X011839Y003328D01*
X011900Y003389D01*
X011900Y003397D01*
X011983Y003396D01*
X012050Y003329D01*
X012546Y003329D01*
X012616Y003399D01*
X012616Y003895D01*
X012546Y003965D01*
X012616Y003843D02*
X013243Y003843D01*
X013202Y003745D02*
X012616Y003745D01*
X012616Y003646D02*
X013202Y003646D01*
X013202Y003548D02*
X012616Y003548D01*
X012616Y003449D02*
X013202Y003449D01*
X013202Y003351D02*
X012567Y003351D01*
X012029Y003351D02*
X011861Y003351D01*
X011917Y003252D02*
X013202Y003252D01*
X013202Y003055D02*
X011930Y003055D01*
X011930Y003154D02*
X013578Y003154D01*
X013578Y003252D02*
X013678Y003252D01*
X013678Y003154D02*
X018197Y003154D01*
X018197Y003252D02*
X016871Y003252D01*
X016871Y003351D02*
X018197Y003351D01*
X018197Y003449D02*
X016871Y003449D01*
X016871Y003548D02*
X018197Y003548D01*
X018197Y003646D02*
X016871Y003646D01*
X016871Y003745D02*
X023950Y003745D01*
X023917Y003843D02*
X016871Y003843D01*
X016862Y003942D02*
X023917Y003942D01*
X023917Y004040D02*
X023108Y004040D01*
X023207Y004139D02*
X023917Y004139D01*
X023917Y004237D02*
X023305Y004237D01*
X023404Y004336D02*
X023917Y004336D01*
X023917Y004434D02*
X023502Y004434D01*
X023601Y004533D02*
X023917Y004533D01*
X023934Y004631D02*
X023699Y004631D01*
X023798Y004730D02*
X023975Y004730D01*
X023896Y004828D02*
X024065Y004828D01*
X023912Y005084D02*
X024270Y005084D01*
X024286Y005100D01*
X024538Y005084D01*
X025219Y004616D01*
X025337Y004206D01*
X024917Y004237D02*
X024757Y004237D01*
X024757Y004139D02*
X024917Y004139D01*
X024917Y004040D02*
X024757Y004040D01*
X024757Y003942D02*
X024917Y003942D01*
X024917Y003843D02*
X024757Y003843D01*
X024725Y003745D02*
X024950Y003745D01*
X025003Y003646D02*
X024671Y003646D01*
X024568Y003548D02*
X025106Y003548D01*
X025568Y003548D02*
X026106Y003548D01*
X026003Y003646D02*
X025671Y003646D01*
X025725Y003745D02*
X025950Y003745D01*
X025917Y003843D02*
X025757Y003843D01*
X025757Y003942D02*
X025917Y003942D01*
X025917Y004040D02*
X025757Y004040D01*
X025757Y004139D02*
X025917Y004139D01*
X025873Y004237D02*
X025757Y004237D01*
X025757Y004336D02*
X025837Y004336D01*
X025848Y004434D02*
X025757Y004434D01*
X025757Y004533D02*
X025848Y004533D01*
X025848Y004631D02*
X025740Y004631D01*
X025699Y004730D02*
X025848Y004730D01*
X025848Y004828D02*
X025609Y004828D01*
X025680Y004927D02*
X025067Y004927D01*
X024873Y005151D02*
X025420Y005151D01*
X026018Y005033D01*
X026018Y004332D01*
X026337Y004206D01*
X026757Y004237D02*
X027287Y004237D01*
X027287Y004256D02*
X026887Y004256D01*
X026887Y004542D01*
X026898Y004612D01*
X026920Y004679D01*
X026952Y004742D01*
X026994Y004799D01*
X027044Y004850D01*
X027101Y004891D01*
X027164Y004923D01*
X027232Y004945D01*
X027287Y004954D01*
X027287Y004256D01*
X027287Y004336D02*
X027387Y004336D01*
X027387Y004434D02*
X027287Y004434D01*
X027287Y004533D02*
X027387Y004533D01*
X027387Y004631D02*
X027287Y004631D01*
X027287Y004730D02*
X027387Y004730D01*
X027387Y004828D02*
X027287Y004828D01*
X027287Y004927D02*
X027387Y004927D01*
X027500Y004927D02*
X027762Y004927D01*
X027762Y004899D02*
X027762Y004899D01*
X027762Y004828D02*
X027652Y004828D01*
X027762Y004788D02*
X027762Y004788D01*
X027762Y004730D02*
X027728Y004730D01*
X027762Y005025D02*
X026190Y005025D01*
X026188Y004927D02*
X027174Y004927D01*
X027022Y004828D02*
X026609Y004828D01*
X026699Y004730D02*
X026946Y004730D01*
X026905Y004631D02*
X026740Y004631D01*
X026757Y004533D02*
X026887Y004533D01*
X026887Y004434D02*
X026757Y004434D01*
X026757Y004336D02*
X026887Y004336D01*
X026887Y004156D02*
X026887Y003871D01*
X026898Y003801D01*
X026920Y003734D01*
X026952Y003670D01*
X026994Y003613D01*
X027044Y003563D01*
X027101Y003521D01*
X027164Y003489D01*
X027232Y003467D01*
X027287Y003459D01*
X027287Y004156D01*
X026887Y004156D01*
X026887Y004139D02*
X026757Y004139D01*
X026757Y004040D02*
X026887Y004040D01*
X026887Y003942D02*
X026757Y003942D01*
X026757Y003843D02*
X026892Y003843D01*
X026917Y003745D02*
X026725Y003745D01*
X026671Y003646D02*
X026970Y003646D01*
X027065Y003548D02*
X026568Y003548D01*
X027287Y003548D02*
X027387Y003548D01*
X027387Y003646D02*
X027287Y003646D01*
X027287Y003745D02*
X027387Y003745D01*
X027387Y003843D02*
X027287Y003843D01*
X027287Y003942D02*
X027387Y003942D01*
X027387Y004040D02*
X027287Y004040D01*
X027287Y004139D02*
X027387Y004139D01*
X027758Y003745D02*
X027765Y003745D01*
X027765Y003646D02*
X027704Y003646D01*
X027765Y003548D02*
X027609Y003548D01*
X027766Y003449D02*
X023744Y003449D01*
X023744Y003351D02*
X027766Y003351D01*
X027766Y003252D02*
X023744Y003252D01*
X023744Y003154D02*
X027767Y003154D01*
X027767Y003055D02*
X023744Y003055D01*
X023744Y003000D02*
X023744Y003653D01*
X023673Y003723D01*
X022424Y003723D01*
X022354Y003653D01*
X022354Y002720D01*
X022345Y002729D01*
X021849Y002729D01*
X021779Y002659D01*
X021779Y002163D01*
X021849Y002093D01*
X022345Y002093D01*
X022415Y002163D01*
X022415Y002171D01*
X023080Y002171D01*
X023168Y002208D01*
X023236Y002275D01*
X023272Y002363D01*
X023272Y002384D01*
X023673Y002384D01*
X023685Y002397D01*
X024185Y002130D01*
X024185Y001679D01*
X024255Y001608D01*
X025536Y001608D01*
X025606Y001679D01*
X025606Y002329D01*
X025536Y002399D01*
X024870Y002399D01*
X023744Y003000D01*
X023826Y002957D02*
X027767Y002957D01*
X027767Y002858D02*
X024010Y002858D01*
X024195Y002760D02*
X027768Y002760D01*
X027768Y002661D02*
X024380Y002661D01*
X024564Y002563D02*
X027768Y002563D01*
X027768Y002464D02*
X024749Y002464D01*
X024185Y002070D02*
X018968Y002070D01*
X018870Y001972D02*
X024185Y001972D01*
X024185Y001873D02*
X018771Y001873D01*
X018673Y001775D02*
X024185Y001775D01*
X024187Y001676D02*
X018574Y001676D01*
X018476Y001578D02*
X027771Y001578D01*
X027771Y001676D02*
X027517Y001676D01*
X027515Y001670D02*
X027526Y001709D01*
X027526Y001954D01*
X026835Y001954D01*
X026835Y002054D01*
X026735Y002054D01*
X026735Y002429D01*
X026175Y002429D01*
X026137Y002419D01*
X026102Y002399D01*
X026074Y002372D01*
X026055Y002337D01*
X026044Y002299D01*
X026044Y002054D01*
X026735Y002054D01*
X026735Y001954D01*
X026044Y001954D01*
X026044Y001709D01*
X026055Y001670D01*
X026074Y001636D01*
X026102Y001608D01*
X026137Y001588D01*
X026175Y001578D01*
X026735Y001578D01*
X026735Y001954D01*
X026835Y001954D01*
X026835Y001578D01*
X027395Y001578D01*
X027433Y001588D01*
X027468Y001608D01*
X027496Y001636D01*
X027515Y001670D01*
X027526Y001775D02*
X027770Y001775D01*
X027770Y001873D02*
X027526Y001873D01*
X027526Y002054D02*
X027526Y002299D01*
X027515Y002337D01*
X027496Y002372D01*
X027468Y002399D01*
X027433Y002419D01*
X027395Y002429D01*
X026835Y002429D01*
X026835Y002054D01*
X027526Y002054D01*
X027526Y002070D02*
X027769Y002070D01*
X027770Y001972D02*
X026835Y001972D01*
X026835Y002070D02*
X026735Y002070D01*
X026735Y001972D02*
X025606Y001972D01*
X025606Y002070D02*
X026044Y002070D01*
X026044Y002169D02*
X025606Y002169D01*
X025606Y002267D02*
X026044Y002267D01*
X026071Y002366D02*
X025569Y002366D01*
X025606Y001873D02*
X026044Y001873D01*
X026044Y001775D02*
X025606Y001775D01*
X025603Y001676D02*
X026053Y001676D01*
X026735Y001676D02*
X026835Y001676D01*
X026835Y001775D02*
X026735Y001775D01*
X026735Y001873D02*
X026835Y001873D01*
X026835Y002169D02*
X026735Y002169D01*
X026735Y002267D02*
X026835Y002267D01*
X026835Y002366D02*
X026735Y002366D01*
X027499Y002366D02*
X027769Y002366D01*
X027769Y002267D02*
X027526Y002267D01*
X027526Y002169D02*
X027769Y002169D01*
X027771Y001479D02*
X018377Y001479D01*
X018279Y001381D02*
X027771Y001381D01*
X027772Y001282D02*
X018126Y001282D01*
X017979Y001873D02*
X014790Y001873D01*
X014663Y001972D02*
X018078Y001972D01*
X018176Y002070D02*
X017571Y002070D01*
X017604Y002169D02*
X018275Y002169D01*
X018373Y002267D02*
X017604Y002267D01*
X017844Y002366D02*
X018472Y002366D01*
X018197Y002464D02*
X018109Y002464D01*
X017827Y002957D02*
X014053Y002957D01*
X014053Y003055D02*
X018092Y003055D01*
X017562Y002858D02*
X014053Y002858D01*
X014053Y002760D02*
X015296Y002760D01*
X015297Y002761D02*
X015286Y002723D01*
X015286Y002478D01*
X015662Y002478D01*
X015662Y002853D01*
X015417Y002853D01*
X015379Y002843D01*
X015344Y002823D01*
X015316Y002795D01*
X015297Y002761D01*
X015286Y002661D02*
X014053Y002661D01*
X014053Y002563D02*
X015286Y002563D01*
X015286Y002378D02*
X015286Y002132D01*
X015297Y002094D01*
X015316Y002060D01*
X015344Y002032D01*
X015379Y002012D01*
X015417Y002002D01*
X015662Y002002D01*
X015662Y002378D01*
X015286Y002378D01*
X015286Y002366D02*
X014154Y002366D01*
X014281Y002267D02*
X015286Y002267D01*
X015286Y002169D02*
X014409Y002169D01*
X014536Y002070D02*
X015311Y002070D01*
X015662Y002070D02*
X015762Y002070D01*
X015762Y002002D02*
X016007Y002002D01*
X016046Y002012D01*
X016080Y002032D01*
X016108Y002060D01*
X016127Y002094D01*
X016138Y002132D01*
X016138Y002378D01*
X015762Y002378D01*
X015762Y002478D01*
X015662Y002478D01*
X015662Y002378D01*
X015762Y002378D01*
X015762Y002002D01*
X015762Y002169D02*
X015662Y002169D01*
X015662Y002267D02*
X015762Y002267D01*
X015762Y002366D02*
X015662Y002366D01*
X015662Y002464D02*
X014021Y002464D01*
X013678Y002464D02*
X013578Y002464D01*
X013578Y002563D02*
X013678Y002563D01*
X013678Y002661D02*
X013578Y002661D01*
X013578Y002760D02*
X013678Y002760D01*
X013678Y002858D02*
X013578Y002858D01*
X013578Y002957D02*
X013678Y002957D01*
X013678Y003055D02*
X013578Y003055D01*
X013578Y003351D02*
X013678Y003351D01*
X013678Y003449D02*
X013578Y003449D01*
X013578Y003548D02*
X013678Y003548D01*
X013678Y003646D02*
X013578Y003646D01*
X013578Y003745D02*
X013678Y003745D01*
X013678Y003843D02*
X013578Y003843D01*
X014053Y003449D02*
X015371Y003449D01*
X015371Y003351D02*
X014053Y003351D01*
X014053Y003252D02*
X015371Y003252D01*
X015762Y002853D02*
X015762Y002478D01*
X016138Y002478D01*
X016138Y002723D01*
X016127Y002761D01*
X016108Y002795D01*
X016080Y002823D01*
X016046Y002843D01*
X016007Y002853D01*
X015762Y002853D01*
X015762Y002760D02*
X015662Y002760D01*
X015662Y002661D02*
X015762Y002661D01*
X015762Y002563D02*
X015662Y002563D01*
X015762Y002464D02*
X016812Y002464D01*
X016812Y002366D02*
X016138Y002366D01*
X016138Y002267D02*
X016812Y002267D01*
X016812Y002169D02*
X016138Y002169D01*
X016113Y002070D02*
X016845Y002070D01*
X016812Y002563D02*
X016138Y002563D01*
X016138Y002661D02*
X016812Y002661D01*
X016819Y002760D02*
X016128Y002760D01*
X016495Y003588D02*
X016530Y003624D01*
X016530Y004506D01*
X017172Y004509D01*
X018191Y004521D01*
X018191Y005191D01*
X018197Y005196D01*
X018459Y004935D01*
X019176Y004155D01*
X022983Y004155D01*
X023912Y005084D01*
X023809Y005222D02*
X020893Y005222D01*
X020891Y005220D02*
X021111Y005440D01*
X021675Y005440D01*
X021769Y005534D01*
X021769Y006166D01*
X021334Y006601D01*
X022558Y006601D01*
X022558Y006503D02*
X021433Y006503D01*
X021531Y006404D02*
X022558Y006404D01*
X022558Y006306D02*
X021630Y006306D01*
X021728Y006207D02*
X023387Y006207D01*
X023376Y006219D02*
X023608Y005986D01*
X023708Y005887D01*
X023920Y005887D01*
X024116Y005691D01*
X024116Y005254D01*
X023842Y005254D01*
X023742Y005155D01*
X022912Y004325D01*
X019250Y004325D01*
X018629Y005001D01*
X018629Y005005D01*
X018582Y005052D01*
X018537Y005102D01*
X018533Y005102D01*
X018405Y005229D01*
X018435Y005259D01*
X018435Y005266D01*
X018439Y005251D01*
X018459Y005217D01*
X018487Y005189D01*
X018521Y005169D01*
X018560Y005159D01*
X018688Y005159D01*
X018688Y005733D01*
X018706Y005733D01*
X018706Y005159D01*
X018835Y005159D01*
X018873Y005169D01*
X018908Y005189D01*
X018936Y005217D01*
X018955Y005251D01*
X018965Y005289D01*
X018965Y005733D01*
X018706Y005733D01*
X018706Y005751D01*
X018965Y005751D01*
X018965Y006195D01*
X018955Y006233D01*
X018936Y006267D01*
X018934Y006269D01*
X021053Y006269D01*
X021134Y006349D01*
X021449Y006034D01*
X021449Y005760D01*
X021146Y005760D01*
X021146Y005835D01*
X020891Y006090D01*
X020531Y006090D01*
X020276Y005835D01*
X020276Y005475D01*
X020531Y005220D01*
X020891Y005220D01*
X020992Y005321D02*
X024116Y005321D01*
X024116Y005419D02*
X021090Y005419D01*
X021146Y005813D02*
X021449Y005813D01*
X021449Y005912D02*
X021070Y005912D01*
X020971Y006010D02*
X021449Y006010D01*
X021374Y006109D02*
X018965Y006109D01*
X018962Y006207D02*
X021276Y006207D01*
X021177Y006306D02*
X021090Y006306D01*
X020983Y006439D02*
X017849Y006439D01*
X017695Y006285D01*
X017695Y005744D01*
X017697Y005742D01*
X017459Y005715D02*
X017435Y005715D01*
X017435Y005813D02*
X017459Y005813D01*
X017459Y005912D02*
X017435Y005912D01*
X017435Y006010D02*
X017459Y006010D01*
X017459Y006109D02*
X017435Y006109D01*
X017435Y006207D02*
X017459Y006207D01*
X017525Y006306D02*
X016809Y006306D01*
X016908Y006404D02*
X017574Y006404D01*
X017672Y006503D02*
X017006Y006503D01*
X017105Y006601D02*
X017771Y006601D01*
X017605Y006897D02*
X019978Y006897D01*
X019978Y006832D02*
X019989Y006794D01*
X020008Y006760D01*
X020036Y006732D01*
X020071Y006712D01*
X020109Y006702D01*
X020315Y006702D01*
X020315Y007038D01*
X020415Y007038D01*
X020415Y007138D01*
X020751Y007138D01*
X020751Y007344D01*
X020741Y007382D01*
X020721Y007417D01*
X020693Y007444D01*
X020659Y007464D01*
X020621Y007474D01*
X020415Y007474D01*
X020415Y007138D01*
X020315Y007138D01*
X020315Y007474D01*
X020109Y007474D01*
X020071Y007464D01*
X020036Y007444D01*
X020008Y007417D01*
X019989Y007382D01*
X019978Y007344D01*
X019978Y007138D01*
X020315Y007138D01*
X020315Y007038D01*
X019978Y007038D01*
X019978Y006832D01*
X019988Y006798D02*
X017302Y006798D01*
X017203Y006700D02*
X020982Y006700D01*
X020994Y006798D02*
X020742Y006798D01*
X020741Y006794D02*
X020751Y006832D01*
X020751Y007038D01*
X020415Y007038D01*
X020415Y006702D01*
X020621Y006702D01*
X020659Y006712D01*
X020693Y006732D01*
X020721Y006760D01*
X020741Y006794D01*
X020751Y006897D02*
X020994Y006897D01*
X020994Y006995D02*
X020751Y006995D01*
X020751Y007192D02*
X020994Y007192D01*
X020994Y007094D02*
X020415Y007094D01*
X020415Y007192D02*
X020315Y007192D01*
X020315Y007094D02*
X017802Y007094D01*
X017877Y007192D02*
X019978Y007192D01*
X019978Y007291D02*
X018920Y007291D01*
X018935Y007389D02*
X019993Y007389D01*
X020051Y007586D02*
X018935Y007586D01*
X018935Y007488D02*
X020994Y007488D01*
X020994Y007586D02*
X020678Y007586D01*
X020721Y007685D02*
X020994Y007685D01*
X020994Y007783D02*
X020721Y007783D01*
X020721Y007882D02*
X020994Y007882D01*
X020994Y007980D02*
X020721Y007980D01*
X020721Y008079D02*
X020994Y008079D01*
X020994Y008177D02*
X020721Y008177D01*
X020745Y008276D02*
X020994Y008276D01*
X020994Y008374D02*
X020745Y008374D01*
X020745Y008473D02*
X021056Y008473D01*
X021154Y008571D02*
X020745Y008571D01*
X020745Y008670D02*
X021253Y008670D01*
X021172Y008782D02*
X021046Y008782D01*
X020929Y008830D01*
X020839Y008920D01*
X020791Y009037D01*
X020791Y009163D01*
X020839Y009280D01*
X020869Y009310D01*
X020869Y011079D01*
X020864Y011104D01*
X020869Y011126D01*
X020869Y011148D01*
X020879Y011172D01*
X020884Y011198D01*
X020897Y011216D01*
X020905Y011236D01*
X020924Y011255D01*
X020939Y011276D01*
X020957Y011288D01*
X020973Y011303D01*
X020997Y011314D01*
X021019Y011328D01*
X021041Y011332D01*
X021061Y011340D01*
X021087Y011340D01*
X023249Y011730D01*
X023358Y012598D01*
X023352Y012619D01*
X023353Y012634D01*
X023351Y012648D01*
X023358Y012681D01*
X023361Y012714D01*
X023368Y012727D01*
X023371Y012742D01*
X023390Y012769D01*
X023390Y012769D01*
X023390Y012969D01*
X023461Y013039D01*
X024111Y013039D01*
X024182Y012969D01*
X024182Y012318D01*
X024111Y012248D01*
X023798Y012248D01*
X023706Y011515D01*
X023702Y011472D01*
X023700Y011468D01*
X023699Y011464D01*
X023678Y011426D01*
X023657Y011387D01*
X023654Y011384D01*
X023652Y011381D01*
X023622Y011357D01*
X023613Y011345D01*
X023586Y011327D01*
X023560Y011306D01*
X023546Y011302D01*
X023533Y011294D01*
X023501Y011288D01*
X023469Y011278D01*
X023454Y011279D01*
X021349Y010899D01*
X021349Y009310D01*
X021378Y009280D01*
X021427Y009163D01*
X021427Y009037D01*
X021378Y008920D01*
X021289Y008830D01*
X021172Y008782D01*
X021325Y008867D02*
X021512Y008867D01*
X021512Y008965D02*
X021397Y008965D01*
X021427Y009064D02*
X021512Y009064D01*
X021512Y009146D02*
X021901Y009146D01*
X021901Y009535D01*
X021643Y009535D01*
X021604Y009525D01*
X021570Y009505D01*
X021542Y009477D01*
X021523Y009443D01*
X021512Y009405D01*
X021512Y009146D01*
X021512Y009162D02*
X021427Y009162D01*
X021387Y009261D02*
X021512Y009261D01*
X021512Y009359D02*
X021349Y009359D01*
X021349Y009458D02*
X021531Y009458D01*
X021349Y009556D02*
X022528Y009556D01*
X022528Y009581D02*
X022528Y009323D01*
X022538Y009285D01*
X022558Y009250D01*
X022586Y009222D01*
X022620Y009203D01*
X022658Y009193D01*
X022917Y009193D01*
X022917Y009581D01*
X022994Y009581D01*
X022994Y009658D01*
X023382Y009658D01*
X023382Y009917D01*
X023372Y009955D01*
X023352Y009989D01*
X023325Y010017D01*
X023290Y010037D01*
X023252Y010047D01*
X022994Y010047D01*
X022994Y009658D01*
X022917Y009658D01*
X022917Y010047D01*
X022658Y010047D01*
X022620Y010037D01*
X022586Y010017D01*
X022558Y009989D01*
X022538Y009955D01*
X022528Y009917D01*
X022528Y009658D01*
X022917Y009658D01*
X022917Y009581D01*
X022528Y009581D01*
X022528Y009458D02*
X022348Y009458D01*
X022367Y009359D02*
X022528Y009359D01*
X022552Y009261D02*
X022367Y009261D01*
X022367Y009162D02*
X027762Y009162D01*
X027762Y009064D02*
X022367Y009064D01*
X022367Y008965D02*
X022569Y008965D01*
X022558Y008867D02*
X022367Y008867D01*
X021978Y009162D02*
X021901Y009162D01*
X021901Y009261D02*
X021978Y009261D01*
X021978Y009359D02*
X021901Y009359D01*
X021901Y009458D02*
X021978Y009458D01*
X021978Y009696D02*
X022236Y009696D01*
X022275Y009707D01*
X022309Y009726D01*
X022337Y009754D01*
X022356Y009789D01*
X022367Y009827D01*
X022367Y010085D01*
X021978Y010085D01*
X021978Y009696D01*
X021978Y009753D02*
X021901Y009753D01*
X021901Y009696D02*
X021643Y009696D01*
X021604Y009707D01*
X021570Y009726D01*
X021542Y009754D01*
X021523Y009789D01*
X021512Y009827D01*
X021512Y010085D01*
X021901Y010085D01*
X021978Y010085D01*
X021978Y010162D01*
X022367Y010162D01*
X022367Y010421D01*
X022356Y010459D01*
X022337Y010493D01*
X022309Y010521D01*
X022275Y010541D01*
X022236Y010551D01*
X021978Y010551D01*
X021978Y010162D01*
X021901Y010162D01*
X021901Y010085D01*
X021901Y009696D01*
X021901Y009852D02*
X021978Y009852D01*
X021978Y009950D02*
X021901Y009950D01*
X021901Y010049D02*
X021978Y010049D01*
X021978Y010147D02*
X024681Y010147D01*
X024693Y010118D02*
X024946Y009865D01*
X025276Y009728D01*
X025634Y009728D01*
X025965Y009865D01*
X026218Y010118D01*
X026355Y010449D01*
X026355Y010807D01*
X026218Y011137D01*
X025965Y011390D01*
X025634Y011527D01*
X025276Y011527D01*
X024946Y011390D01*
X024693Y011137D01*
X024556Y010807D01*
X024556Y010449D01*
X024693Y010118D01*
X024762Y010049D02*
X022367Y010049D01*
X022367Y009950D02*
X022537Y009950D01*
X022528Y009852D02*
X022367Y009852D01*
X022335Y009753D02*
X022528Y009753D01*
X022917Y009753D02*
X022994Y009753D01*
X022994Y009655D02*
X027762Y009655D01*
X027762Y009753D02*
X025695Y009753D01*
X025933Y009852D02*
X027762Y009852D01*
X027762Y009950D02*
X026050Y009950D01*
X026148Y010049D02*
X027762Y010049D01*
X027762Y010147D02*
X026230Y010147D01*
X026271Y010246D02*
X027762Y010246D01*
X027762Y010344D02*
X026312Y010344D01*
X026352Y010443D02*
X027762Y010443D01*
X027762Y010541D02*
X026355Y010541D01*
X026355Y010640D02*
X027762Y010640D01*
X027762Y010738D02*
X026355Y010738D01*
X026342Y010837D02*
X027762Y010837D01*
X027762Y010935D02*
X026302Y010935D01*
X026261Y011034D02*
X027762Y011034D01*
X027762Y011132D02*
X026220Y011132D01*
X026125Y011231D02*
X027762Y011231D01*
X027762Y011329D02*
X026026Y011329D01*
X025875Y011428D02*
X027762Y011428D01*
X027762Y011526D02*
X025637Y011526D01*
X025274Y011526D02*
X023707Y011526D01*
X023719Y011625D02*
X027630Y011625D01*
X027472Y011723D02*
X023732Y011723D01*
X023744Y011822D02*
X027313Y011822D01*
X027155Y011920D02*
X023757Y011920D01*
X023769Y012019D02*
X026997Y012019D01*
X026838Y012117D02*
X023781Y012117D01*
X023794Y012216D02*
X026680Y012216D01*
X026521Y012314D02*
X025674Y012314D01*
X024890Y012314D02*
X024178Y012314D01*
X024182Y012413D02*
X024886Y012413D01*
X024886Y012511D02*
X024182Y012511D01*
X024182Y012610D02*
X024886Y012610D01*
X024886Y012708D02*
X024182Y012708D01*
X024182Y012807D02*
X024886Y012807D01*
X024886Y012905D02*
X024182Y012905D01*
X024147Y013004D02*
X024921Y013004D01*
X025643Y013004D02*
X028172Y013004D01*
X028172Y013102D02*
X026184Y013102D01*
X026176Y013093D02*
X026218Y013144D01*
X026265Y013191D01*
X026265Y013200D01*
X026579Y013578D01*
X026604Y013588D01*
X026625Y013633D01*
X026657Y013672D01*
X026655Y013699D01*
X026669Y013730D01*
X026797Y013927D01*
X026836Y013966D01*
X026836Y013988D01*
X026848Y014005D01*
X026836Y014060D01*
X026836Y015374D01*
X026962Y015374D01*
X027030Y015442D01*
X027097Y015376D01*
X027071Y015350D01*
X027071Y014779D01*
X027142Y014708D01*
X027714Y014708D01*
X027784Y014779D01*
X027784Y015350D01*
X027769Y015366D01*
X027769Y015433D01*
X027780Y015444D01*
X027780Y015535D01*
X027781Y015536D01*
X027780Y015574D01*
X027780Y016134D01*
X027710Y016204D01*
X027098Y016204D01*
X027030Y016136D01*
X026962Y016204D01*
X026350Y016204D01*
X026280Y016134D01*
X026280Y015444D01*
X026350Y015374D01*
X026476Y015374D01*
X026476Y014094D01*
X026392Y013964D01*
X026377Y013959D01*
X026352Y013903D01*
X026319Y013852D01*
X026322Y013837D01*
X026317Y013826D01*
X026270Y013769D01*
X026347Y013955D01*
X026347Y014179D01*
X026261Y014385D01*
X026103Y014544D01*
X025896Y014629D01*
X025672Y014629D01*
X025465Y014544D01*
X025307Y014385D01*
X025222Y014179D01*
X025222Y013955D01*
X025307Y013748D01*
X025465Y013590D01*
X025672Y013504D01*
X025896Y013504D01*
X026103Y013590D01*
X026209Y013696D01*
X026001Y013445D01*
X023017Y013445D01*
X023017Y013446D01*
X022943Y013445D01*
X022869Y013445D01*
X022868Y013445D01*
X021770Y013438D01*
X021403Y013502D01*
X021403Y013623D01*
X021333Y013694D01*
X020837Y013694D01*
X020767Y013623D01*
X020767Y013128D01*
X020837Y013057D01*
X021333Y013057D01*
X021403Y013128D01*
X021403Y013137D01*
X021668Y013090D01*
X021681Y013077D01*
X021739Y013077D01*
X021797Y013067D01*
X021812Y013078D01*
X022944Y013085D01*
X026020Y013085D01*
X026028Y013079D01*
X026093Y013085D01*
X026160Y013085D01*
X026166Y013092D01*
X026176Y013093D01*
X026265Y013201D02*
X028172Y013201D01*
X028172Y013299D02*
X026347Y013299D01*
X026429Y013398D02*
X028172Y013398D01*
X028172Y013496D02*
X026511Y013496D01*
X026607Y013595D02*
X028172Y013595D01*
X028172Y013693D02*
X026655Y013693D01*
X026709Y013792D02*
X028172Y013792D01*
X028172Y013890D02*
X027765Y013890D01*
X027756Y013882D02*
X027784Y013909D01*
X027804Y013944D01*
X027814Y013982D01*
X027814Y014188D01*
X027478Y014188D01*
X027478Y014288D01*
X027814Y014288D01*
X027814Y014494D01*
X027804Y014532D01*
X027784Y014566D01*
X027756Y014594D01*
X027722Y014614D01*
X027684Y014624D01*
X027478Y014624D01*
X027478Y014288D01*
X027378Y014288D01*
X027378Y014624D01*
X027172Y014624D01*
X027134Y014614D01*
X027099Y014594D01*
X027071Y014566D01*
X027052Y014532D01*
X027041Y014494D01*
X027041Y014288D01*
X027378Y014288D01*
X027378Y014188D01*
X027478Y014188D01*
X027478Y013852D01*
X027684Y013852D01*
X027722Y013862D01*
X027756Y013882D01*
X027814Y013989D02*
X028172Y013989D01*
X028172Y014087D02*
X027814Y014087D01*
X027814Y014186D02*
X028172Y014186D01*
X028172Y014284D02*
X027478Y014284D01*
X027478Y014186D02*
X027378Y014186D01*
X027378Y014188D02*
X027378Y013852D01*
X027172Y013852D01*
X027134Y013862D01*
X027099Y013882D01*
X027071Y013909D01*
X027052Y013944D01*
X027041Y013982D01*
X027041Y014188D01*
X027378Y014188D01*
X027378Y014284D02*
X026836Y014284D01*
X026836Y014186D02*
X027041Y014186D01*
X027041Y014087D02*
X026836Y014087D01*
X026837Y013989D02*
X027041Y013989D01*
X027091Y013890D02*
X026773Y013890D01*
X026407Y013989D02*
X026347Y013989D01*
X026347Y014087D02*
X026471Y014087D01*
X026476Y014186D02*
X026344Y014186D01*
X026303Y014284D02*
X026476Y014284D01*
X026476Y014383D02*
X026262Y014383D01*
X026165Y014481D02*
X026476Y014481D01*
X026476Y014580D02*
X026016Y014580D01*
X025714Y014875D02*
X026476Y014875D01*
X026476Y014777D02*
X025618Y014777D01*
X025519Y014678D02*
X026476Y014678D01*
X026836Y014678D02*
X028172Y014678D01*
X028172Y014580D02*
X027771Y014580D01*
X027814Y014481D02*
X028172Y014481D01*
X028172Y014383D02*
X027814Y014383D01*
X027478Y014383D02*
X027378Y014383D01*
X027378Y014481D02*
X027478Y014481D01*
X027478Y014580D02*
X027378Y014580D01*
X027085Y014580D02*
X026836Y014580D01*
X026836Y014481D02*
X027041Y014481D01*
X027041Y014383D02*
X026836Y014383D01*
X027378Y014087D02*
X027478Y014087D01*
X027478Y013989D02*
X027378Y013989D01*
X027378Y013890D02*
X027478Y013890D01*
X026343Y013890D02*
X026320Y013890D01*
X026288Y013792D02*
X026279Y013792D01*
X026206Y013693D02*
X026206Y013693D01*
X026125Y013595D02*
X026107Y013595D01*
X026043Y013496D02*
X021438Y013496D01*
X021403Y013595D02*
X022701Y013595D01*
X022602Y013693D02*
X021334Y013693D01*
X020837Y013693D02*
X020142Y013693D01*
X020142Y013595D02*
X020767Y013595D01*
X020767Y013496D02*
X020142Y013496D01*
X020142Y013398D02*
X020767Y013398D01*
X020767Y013299D02*
X020142Y013299D01*
X020767Y013201D02*
X018651Y013201D01*
X018609Y013102D02*
X020793Y013102D01*
X021378Y013102D02*
X021600Y013102D01*
X021441Y012570D02*
X021371Y012500D01*
X021371Y012325D01*
X021364Y012325D01*
X021364Y012371D01*
X021294Y012442D01*
X020798Y012442D01*
X020728Y012371D01*
X020728Y011876D01*
X020798Y011806D01*
X021294Y011806D01*
X021364Y011876D01*
X021364Y011985D01*
X021371Y011985D01*
X021371Y011810D01*
X021441Y011740D01*
X022052Y011740D01*
X022105Y011792D01*
X022119Y011768D01*
X022147Y011740D01*
X022181Y011720D01*
X022219Y011710D01*
X022445Y011710D01*
X022445Y012105D01*
X022545Y012105D01*
X022545Y012205D01*
X022901Y012205D01*
X022901Y012470D01*
X022890Y012508D01*
X022871Y012542D01*
X022843Y012570D01*
X022808Y012590D01*
X022770Y012600D01*
X022545Y012600D01*
X022545Y012205D01*
X022445Y012205D01*
X022445Y012600D01*
X022219Y012600D01*
X022181Y012590D01*
X022147Y012570D01*
X022119Y012542D01*
X022105Y012518D01*
X022052Y012570D01*
X021441Y012570D01*
X021382Y012511D02*
X018681Y012511D01*
X018681Y012610D02*
X023355Y012610D01*
X023360Y012708D02*
X018286Y012708D01*
X018286Y012668D02*
X018286Y012466D01*
X018274Y012466D01*
X018274Y012110D01*
X018174Y012110D01*
X018174Y012312D01*
X018186Y012312D01*
X018186Y012668D01*
X018286Y012668D01*
X018286Y012610D02*
X018186Y012610D01*
X018186Y012511D02*
X018286Y012511D01*
X018274Y012413D02*
X018186Y012413D01*
X018186Y012314D02*
X018274Y012314D01*
X018274Y012216D02*
X018174Y012216D01*
X018174Y012117D02*
X018274Y012117D01*
X018274Y012019D02*
X020728Y012019D01*
X020728Y012117D02*
X018669Y012117D01*
X018669Y012216D02*
X020728Y012216D01*
X020728Y012314D02*
X018669Y012314D01*
X018673Y012413D02*
X020769Y012413D01*
X021046Y012124D02*
X021077Y012155D01*
X021747Y012155D01*
X021371Y011920D02*
X021364Y011920D01*
X021371Y011822D02*
X021310Y011822D01*
X021572Y011428D02*
X020142Y011428D01*
X020142Y011526D02*
X022118Y011526D01*
X022176Y011723D02*
X020142Y011723D01*
X020142Y011625D02*
X022664Y011625D01*
X022770Y011710D02*
X022808Y011720D01*
X022843Y011740D01*
X022871Y011768D01*
X022890Y011802D01*
X022901Y011840D01*
X022901Y012105D01*
X022545Y012105D01*
X022545Y011710D01*
X022770Y011710D01*
X022814Y011723D02*
X023210Y011723D01*
X023260Y011822D02*
X022896Y011822D01*
X022901Y011920D02*
X023273Y011920D01*
X023285Y012019D02*
X022901Y012019D01*
X022901Y012216D02*
X023310Y012216D01*
X023322Y012314D02*
X022901Y012314D01*
X022901Y012413D02*
X023335Y012413D01*
X023347Y012511D02*
X022889Y012511D01*
X022545Y012511D02*
X022445Y012511D01*
X022445Y012413D02*
X022545Y012413D01*
X022545Y012314D02*
X022445Y012314D01*
X022445Y012216D02*
X022545Y012216D01*
X022545Y012117D02*
X023298Y012117D01*
X022545Y012019D02*
X022445Y012019D01*
X022445Y011920D02*
X022545Y011920D01*
X022545Y011822D02*
X022445Y011822D01*
X022445Y011723D02*
X022545Y011723D01*
X022638Y011132D02*
X024690Y011132D01*
X024650Y011034D02*
X022092Y011034D01*
X021546Y010935D02*
X024609Y010935D01*
X024568Y010837D02*
X021349Y010837D01*
X021349Y010738D02*
X024556Y010738D01*
X024556Y010640D02*
X021349Y010640D01*
X021349Y010541D02*
X021606Y010541D01*
X021604Y010541D02*
X021570Y010521D01*
X021542Y010493D01*
X021523Y010459D01*
X021512Y010421D01*
X021512Y010162D01*
X021901Y010162D01*
X021901Y010551D01*
X021643Y010551D01*
X021604Y010541D01*
X021518Y010443D02*
X021349Y010443D01*
X021349Y010344D02*
X021512Y010344D01*
X021512Y010246D02*
X021349Y010246D01*
X021349Y010147D02*
X021901Y010147D01*
X021901Y010246D02*
X021978Y010246D01*
X021978Y010344D02*
X021901Y010344D01*
X021901Y010443D02*
X021978Y010443D01*
X021978Y010541D02*
X021901Y010541D01*
X022273Y010541D02*
X024556Y010541D01*
X024558Y010443D02*
X022361Y010443D01*
X022367Y010344D02*
X024599Y010344D01*
X024640Y010246D02*
X022367Y010246D01*
X022917Y009950D02*
X022994Y009950D01*
X022994Y009852D02*
X022917Y009852D01*
X022917Y009655D02*
X021349Y009655D01*
X021349Y009753D02*
X021544Y009753D01*
X021512Y009852D02*
X021349Y009852D01*
X021349Y009950D02*
X021512Y009950D01*
X021512Y010049D02*
X021349Y010049D01*
X020869Y010049D02*
X020142Y010049D01*
X020142Y010147D02*
X020869Y010147D01*
X020869Y010246D02*
X020142Y010246D01*
X020142Y010344D02*
X020869Y010344D01*
X020869Y010443D02*
X020142Y010443D01*
X020142Y010541D02*
X020869Y010541D01*
X020869Y010640D02*
X020142Y010640D01*
X020142Y010738D02*
X020869Y010738D01*
X020869Y010837D02*
X020142Y010837D01*
X020142Y010935D02*
X020869Y010935D01*
X020869Y011034D02*
X020142Y011034D01*
X020142Y011132D02*
X020869Y011132D01*
X020903Y011231D02*
X020142Y011231D01*
X020142Y011329D02*
X021027Y011329D01*
X020782Y011822D02*
X020132Y011822D01*
X020728Y011920D02*
X018669Y011920D01*
X018669Y011822D02*
X019125Y011822D01*
X019115Y011723D02*
X018645Y011723D01*
X018632Y011625D02*
X019115Y011625D01*
X019115Y011526D02*
X018639Y011526D01*
X018639Y011428D02*
X019115Y011428D01*
X019115Y011329D02*
X018639Y011329D01*
X018639Y011231D02*
X019115Y011231D01*
X019115Y011132D02*
X018686Y011132D01*
X018785Y011034D02*
X019115Y011034D01*
X019115Y010935D02*
X018883Y010935D01*
X018613Y010640D02*
X017852Y010640D01*
X017824Y010738D02*
X018515Y010738D01*
X018416Y010837D02*
X017824Y010837D01*
X017804Y010935D02*
X018318Y010935D01*
X017808Y011034D02*
X017705Y011034D01*
X017607Y011132D02*
X017808Y011132D01*
X017786Y011231D02*
X017584Y011231D01*
X017584Y011329D02*
X017687Y011329D01*
X017589Y011428D02*
X017584Y011428D01*
X017223Y011785D02*
X016611Y011785D01*
X016573Y011748D01*
X016253Y011723D02*
X014349Y011723D01*
X014349Y011625D02*
X016253Y011625D01*
X016253Y011573D02*
X016324Y011503D01*
X016823Y011503D01*
X016893Y011573D01*
X016893Y011615D01*
X016905Y011615D01*
X016905Y011537D01*
X016962Y011480D01*
X016948Y011466D01*
X016948Y010970D01*
X017018Y010900D01*
X017330Y010900D01*
X017464Y010766D01*
X017464Y010660D01*
X017448Y010643D01*
X017448Y010478D01*
X017464Y010462D01*
X017464Y010374D01*
X017395Y010374D01*
X017395Y010505D01*
X017325Y010576D01*
X016893Y010576D01*
X016893Y010922D01*
X016823Y010993D01*
X016324Y010993D01*
X016253Y010922D01*
X016253Y010899D01*
X016183Y010969D01*
X015918Y010969D01*
X016016Y011068D01*
X016259Y011068D01*
X016324Y011003D01*
X016823Y011003D01*
X016893Y011073D01*
X016893Y011422D01*
X016823Y011493D01*
X016324Y011493D01*
X016259Y011428D01*
X015867Y011428D01*
X015625Y011186D01*
X015585Y011186D01*
X015502Y011102D01*
X015502Y011486D01*
X015431Y011556D01*
X014936Y011556D01*
X014865Y011486D01*
X014865Y011407D01*
X014349Y011389D01*
X014349Y015860D01*
X015302Y015860D01*
X015302Y015536D01*
X014861Y015536D01*
X014791Y015466D01*
X014349Y015466D01*
X014349Y015368D02*
X014791Y015368D01*
X014791Y015466D02*
X014791Y014970D01*
X014861Y014900D01*
X015357Y014900D01*
X015427Y014970D01*
X015427Y015038D01*
X016288Y015038D01*
X016324Y015003D01*
X016823Y015003D01*
X016893Y015073D01*
X016893Y015422D01*
X016823Y015493D01*
X016324Y015493D01*
X016253Y015422D01*
X016253Y015398D01*
X015894Y015398D01*
X015939Y015443D01*
X015939Y015511D01*
X016316Y015511D01*
X016324Y015503D01*
X016823Y015503D01*
X016893Y015573D01*
X016893Y015860D01*
X019075Y015860D01*
X018818Y015603D01*
X018712Y015497D01*
X018712Y014600D01*
X018608Y014496D01*
X018608Y014978D01*
X018538Y015048D01*
X018042Y015048D01*
X017972Y014978D01*
X017972Y014894D01*
X016893Y014894D01*
X016893Y014922D01*
X016823Y014993D01*
X016324Y014993D01*
X016253Y014922D01*
X016253Y014573D01*
X016324Y014503D01*
X016823Y014503D01*
X016855Y014534D01*
X017972Y014534D01*
X017972Y014482D01*
X018032Y014422D01*
X016893Y014422D01*
X016893Y014422D01*
X016823Y014493D01*
X016324Y014493D01*
X016253Y014422D01*
X016253Y014073D01*
X016324Y014003D01*
X016823Y014003D01*
X016882Y014062D01*
X018683Y014062D01*
X018789Y014167D01*
X019072Y014451D01*
X019072Y015348D01*
X019115Y015391D01*
X019115Y013794D01*
X018963Y013643D01*
X018651Y013643D01*
X018651Y013771D01*
X018581Y013842D01*
X017891Y013842D01*
X017821Y013771D01*
X017821Y013734D01*
X017750Y013805D01*
X017633Y013922D01*
X016893Y013922D01*
X016893Y013922D01*
X016823Y013993D01*
X016324Y013993D01*
X016253Y013922D01*
X016253Y013573D01*
X016324Y013503D01*
X016823Y013503D01*
X016842Y013522D01*
X017467Y013522D01*
X017691Y013298D01*
X017821Y013298D01*
X017821Y013160D01*
X017873Y013108D01*
X017848Y013094D01*
X017826Y013071D01*
X017565Y013332D01*
X017448Y013450D01*
X016866Y013450D01*
X016823Y013493D01*
X016324Y013493D01*
X016253Y013422D01*
X016253Y013073D01*
X016314Y013012D01*
X016281Y012993D01*
X016253Y012965D01*
X016234Y012931D01*
X016223Y012892D01*
X016223Y012760D01*
X016561Y012760D01*
X016561Y012735D01*
X016223Y012735D01*
X016223Y012603D01*
X016234Y012565D01*
X016253Y012531D01*
X016281Y012503D01*
X016314Y012483D01*
X016253Y012422D01*
X016253Y012367D01*
X015577Y012367D01*
X015262Y012682D01*
X015151Y012682D01*
X015151Y012749D01*
X015081Y012820D01*
X014585Y012820D01*
X014515Y012749D01*
X014515Y012254D01*
X014585Y012183D01*
X015081Y012183D01*
X015151Y012254D01*
X015151Y012283D01*
X015322Y012112D01*
X015428Y012007D01*
X016320Y012007D01*
X016324Y012003D01*
X016823Y012003D01*
X016893Y012073D01*
X016893Y012422D01*
X016832Y012483D01*
X016865Y012503D01*
X016893Y012531D01*
X016913Y012565D01*
X016923Y012603D01*
X016923Y012735D01*
X016586Y012735D01*
X016586Y012760D01*
X016923Y012760D01*
X016923Y012892D01*
X016913Y012931D01*
X016893Y012965D01*
X016865Y012993D01*
X016832Y013012D01*
X016870Y013050D01*
X017282Y013050D01*
X017539Y012793D01*
X017539Y012035D01*
X017471Y012103D01*
X016975Y012103D01*
X016905Y012033D01*
X016905Y011955D01*
X016861Y011955D01*
X016823Y011993D01*
X016324Y011993D01*
X016253Y011922D01*
X016253Y011573D01*
X016300Y011526D02*
X015461Y011526D01*
X015502Y011428D02*
X015867Y011428D01*
X015768Y011329D02*
X015502Y011329D01*
X015502Y011231D02*
X015670Y011231D01*
X015532Y011132D02*
X015502Y011132D01*
X015982Y011034D02*
X016293Y011034D01*
X016266Y010935D02*
X016218Y010935D01*
X016854Y011034D02*
X016948Y011034D01*
X016948Y011132D02*
X016893Y011132D01*
X016893Y011231D02*
X016948Y011231D01*
X016948Y011329D02*
X016893Y011329D01*
X016888Y011428D02*
X016948Y011428D01*
X016916Y011526D02*
X016846Y011526D01*
X016253Y011822D02*
X014349Y011822D01*
X014349Y011920D02*
X016253Y011920D01*
X016839Y012019D02*
X016905Y012019D01*
X016893Y012117D02*
X017539Y012117D01*
X017539Y012216D02*
X016893Y012216D01*
X016893Y012314D02*
X017539Y012314D01*
X017539Y012413D02*
X016893Y012413D01*
X016874Y012511D02*
X017539Y012511D01*
X017539Y012610D02*
X016923Y012610D01*
X016923Y012708D02*
X017539Y012708D01*
X017525Y012807D02*
X016923Y012807D01*
X016920Y012905D02*
X017426Y012905D01*
X017328Y013004D02*
X016847Y013004D01*
X016300Y013004D02*
X014349Y013004D01*
X014349Y013102D02*
X016253Y013102D01*
X016253Y013201D02*
X014349Y013201D01*
X014349Y013299D02*
X016253Y013299D01*
X016253Y013398D02*
X014349Y013398D01*
X014349Y013496D02*
X017493Y013496D01*
X017500Y013398D02*
X017591Y013398D01*
X017598Y013299D02*
X017690Y013299D01*
X017697Y013201D02*
X017821Y013201D01*
X017795Y013102D02*
X017863Y013102D01*
X018678Y013004D02*
X023425Y013004D01*
X023390Y012905D02*
X018681Y012905D01*
X018681Y012807D02*
X023390Y012807D01*
X023347Y013595D02*
X025461Y013595D01*
X025362Y013693D02*
X023446Y013693D01*
X023519Y013792D02*
X025289Y013792D01*
X025248Y013890D02*
X023560Y013890D01*
X023587Y013989D02*
X025222Y013989D01*
X025222Y014087D02*
X023587Y014087D01*
X023584Y014186D02*
X025224Y014186D01*
X025265Y014284D02*
X023543Y014284D01*
X023839Y014383D02*
X025306Y014383D01*
X025403Y014481D02*
X023937Y014481D01*
X024036Y014580D02*
X025552Y014580D01*
X025714Y014974D02*
X026476Y014974D01*
X026476Y015072D02*
X025714Y015072D01*
X025714Y015171D02*
X026476Y015171D01*
X026476Y015269D02*
X025666Y015269D01*
X025567Y015368D02*
X026476Y015368D01*
X026280Y015466D02*
X025469Y015466D01*
X025119Y015466D02*
X023731Y015466D01*
X023700Y015497D02*
X023564Y015497D01*
X023564Y015097D01*
X023964Y015097D01*
X023964Y015233D01*
X023700Y015497D01*
X023564Y015466D02*
X023464Y015466D01*
X023464Y015368D02*
X023564Y015368D01*
X023564Y015269D02*
X023464Y015269D01*
X023464Y015171D02*
X023564Y015171D01*
X023564Y015072D02*
X024019Y015072D01*
X023964Y015171D02*
X024118Y015171D01*
X023928Y015269D02*
X024922Y015269D01*
X025021Y015368D02*
X023830Y015368D01*
X023464Y015072D02*
X022935Y015072D01*
X023033Y014974D02*
X023064Y014974D01*
X023064Y015171D02*
X022836Y015171D01*
X023100Y015269D02*
X022559Y015269D01*
X022559Y015368D02*
X023199Y015368D01*
X023297Y015466D02*
X022557Y015466D01*
X022589Y015565D02*
X026280Y015565D01*
X026280Y015663D02*
X022589Y015663D01*
X022589Y015762D02*
X026280Y015762D01*
X026280Y015860D02*
X022194Y015860D01*
X022194Y015867D02*
X022589Y015867D01*
X022589Y016092D01*
X022579Y016130D01*
X022560Y016165D01*
X022532Y016192D01*
X022497Y016212D01*
X022459Y016222D01*
X022194Y016222D01*
X022194Y015867D01*
X022194Y015959D02*
X022094Y015959D01*
X022094Y016057D02*
X022194Y016057D01*
X022194Y016156D02*
X022094Y016156D01*
X022565Y016156D02*
X026302Y016156D01*
X026280Y016057D02*
X022589Y016057D01*
X022589Y015959D02*
X026280Y015959D01*
X027010Y016156D02*
X027050Y016156D01*
X027404Y015789D02*
X027609Y015600D01*
X027780Y015565D02*
X028172Y015565D01*
X028172Y015663D02*
X027780Y015663D01*
X027780Y015762D02*
X028172Y015762D01*
X028172Y015860D02*
X027780Y015860D01*
X027780Y015959D02*
X028172Y015959D01*
X028172Y016057D02*
X027780Y016057D01*
X027758Y016156D02*
X028172Y016156D01*
X028172Y016254D02*
X020794Y016254D01*
X020893Y016156D02*
X020932Y016156D01*
X021680Y016156D02*
X021724Y016156D01*
X020350Y015466D02*
X020142Y015466D01*
X020142Y015368D02*
X020393Y015368D01*
X020393Y015269D02*
X020142Y015269D01*
X020142Y015171D02*
X020393Y015171D01*
X020437Y015072D02*
X020142Y015072D01*
X020142Y014974D02*
X020536Y014974D01*
X020890Y014875D02*
X020142Y014875D01*
X020142Y014777D02*
X020890Y014777D01*
X021721Y014777D02*
X021729Y014777D01*
X021721Y014875D02*
X021729Y014875D01*
X022559Y014875D02*
X022623Y014875D01*
X022559Y014777D02*
X022721Y014777D01*
X022820Y014678D02*
X020142Y014678D01*
X020142Y014580D02*
X022792Y014580D01*
X022643Y014481D02*
X020142Y014481D01*
X020142Y014383D02*
X022546Y014383D01*
X022505Y014284D02*
X020142Y014284D01*
X020142Y014186D02*
X022464Y014186D01*
X022462Y014087D02*
X020142Y014087D01*
X020142Y013989D02*
X022462Y013989D01*
X022488Y013890D02*
X020142Y013890D01*
X020142Y013792D02*
X022529Y013792D01*
X024134Y014678D02*
X025069Y014678D01*
X024970Y014777D02*
X024233Y014777D01*
X026836Y014777D02*
X027074Y014777D01*
X027071Y014875D02*
X026836Y014875D01*
X026836Y014974D02*
X027071Y014974D01*
X027071Y015072D02*
X026836Y015072D01*
X026836Y015171D02*
X027071Y015171D01*
X027071Y015269D02*
X026836Y015269D01*
X026836Y015368D02*
X027089Y015368D01*
X027769Y015368D02*
X028172Y015368D01*
X028172Y015466D02*
X027780Y015466D01*
X027784Y015269D02*
X028172Y015269D01*
X028172Y015171D02*
X027784Y015171D01*
X027784Y015072D02*
X028172Y015072D01*
X028172Y014974D02*
X027784Y014974D01*
X027784Y014875D02*
X028172Y014875D01*
X028172Y014777D02*
X027782Y014777D01*
X028172Y016353D02*
X013284Y016353D01*
X013383Y016254D02*
X013923Y016254D01*
X013872Y016156D02*
X013481Y016156D01*
X013580Y016057D02*
X013869Y016057D01*
X013869Y015959D02*
X013678Y015959D01*
X013714Y015860D02*
X013869Y015860D01*
X013869Y015762D02*
X013714Y015762D01*
X013714Y015663D02*
X013869Y015663D01*
X013869Y015565D02*
X013714Y015565D01*
X013714Y015466D02*
X013869Y015466D01*
X013869Y015368D02*
X013714Y015368D01*
X013714Y015269D02*
X013869Y015269D01*
X013869Y015171D02*
X013714Y015171D01*
X013714Y015072D02*
X013869Y015072D01*
X013869Y014974D02*
X013714Y014974D01*
X013682Y014875D02*
X013869Y014875D01*
X013869Y014777D02*
X013583Y014777D01*
X013485Y014678D02*
X013869Y014678D01*
X013869Y014580D02*
X013386Y014580D01*
X013271Y014974D02*
X012842Y014974D01*
X012823Y015003D02*
X012893Y015073D01*
X012893Y015422D01*
X012823Y015493D01*
X012324Y015493D01*
X012271Y015440D01*
X012260Y015440D01*
X012257Y015437D01*
X005860Y015437D01*
X005860Y015505D01*
X005790Y015576D01*
X005294Y015576D01*
X005224Y015505D01*
X005224Y015010D01*
X005294Y014939D01*
X005790Y014939D01*
X005860Y015010D01*
X005860Y015077D01*
X012253Y015077D01*
X012253Y015073D01*
X012324Y015003D01*
X012823Y015003D01*
X012892Y015072D02*
X013354Y015072D01*
X013354Y015171D02*
X012893Y015171D01*
X012893Y015269D02*
X013354Y015269D01*
X013354Y015368D02*
X012893Y015368D01*
X012850Y015466D02*
X013354Y015466D01*
X013354Y015565D02*
X012885Y015565D01*
X012893Y015573D02*
X012893Y015922D01*
X012823Y015993D01*
X012324Y015993D01*
X012320Y015989D01*
X004836Y015989D01*
X004836Y016056D01*
X004766Y016127D01*
X004270Y016127D01*
X004200Y016056D01*
X004200Y015561D01*
X004270Y015491D01*
X004766Y015491D01*
X004836Y015561D01*
X004836Y015629D01*
X012253Y015629D01*
X012253Y015573D01*
X012324Y015503D01*
X012823Y015503D01*
X012893Y015573D01*
X012893Y015663D02*
X013354Y015663D01*
X013354Y015762D02*
X012893Y015762D01*
X012893Y015860D02*
X013267Y015860D01*
X013169Y015959D02*
X012857Y015959D01*
X012972Y016156D02*
X003506Y016156D01*
X003407Y016057D02*
X004201Y016057D01*
X004200Y015959D02*
X003360Y015959D01*
X003360Y015860D02*
X004200Y015860D01*
X004200Y015762D02*
X003360Y015762D01*
X003360Y015663D02*
X004200Y015663D01*
X004200Y015565D02*
X003360Y015565D01*
X003360Y015466D02*
X005224Y015466D01*
X005224Y015368D02*
X003360Y015368D01*
X003360Y015269D02*
X003413Y015269D01*
X003413Y014773D01*
X003483Y014703D01*
X003794Y014703D01*
X004011Y014487D01*
X005932Y014487D01*
X005932Y014419D01*
X006003Y014349D01*
X006498Y014349D01*
X006569Y014419D01*
X006569Y014915D01*
X006498Y014985D01*
X006003Y014985D01*
X005932Y014915D01*
X005932Y014847D01*
X004160Y014847D01*
X004049Y014958D01*
X004049Y015269D01*
X005224Y015269D01*
X005224Y015171D02*
X004049Y015171D01*
X004049Y015269D02*
X003979Y015339D01*
X003483Y015339D01*
X003413Y015269D01*
X003413Y015171D02*
X003360Y015171D01*
X003360Y015072D02*
X003413Y015072D01*
X003413Y014974D02*
X003360Y014974D01*
X003360Y014875D02*
X003413Y014875D01*
X003413Y014777D02*
X003360Y014777D01*
X003360Y014678D02*
X003820Y014678D01*
X003918Y014580D02*
X003360Y014580D01*
X003360Y014481D02*
X005932Y014481D01*
X005969Y014383D02*
X004088Y014383D01*
X003452Y014383D02*
X003360Y014383D01*
X003360Y014284D02*
X003452Y014284D01*
X003452Y014186D02*
X003360Y014186D01*
X003360Y014087D02*
X003452Y014087D01*
X003452Y013989D02*
X003360Y013989D01*
X003360Y013890D02*
X003469Y013890D01*
X003360Y013792D02*
X003861Y013792D01*
X003762Y013693D02*
X003360Y013693D01*
X003360Y013595D02*
X003506Y013595D01*
X003408Y013496D02*
X003360Y013496D01*
X004132Y014875D02*
X005932Y014875D01*
X005991Y014974D02*
X005824Y014974D01*
X005860Y015072D02*
X012254Y015072D01*
X012305Y014974D02*
X006510Y014974D01*
X006569Y014875D02*
X012253Y014875D01*
X012253Y014777D02*
X006569Y014777D01*
X006569Y014678D02*
X012253Y014678D01*
X012253Y014580D02*
X006569Y014580D01*
X006569Y014481D02*
X012312Y014481D01*
X012253Y014383D02*
X006532Y014383D01*
X005260Y014974D02*
X004049Y014974D01*
X004049Y015072D02*
X005224Y015072D01*
X005283Y015565D02*
X004836Y015565D01*
X004836Y016057D02*
X013070Y016057D01*
X012262Y015565D02*
X005801Y015565D01*
X005860Y015466D02*
X012297Y015466D01*
X012835Y014481D02*
X013869Y014481D01*
X013869Y014383D02*
X012893Y014383D01*
X012893Y014284D02*
X013869Y014284D01*
X013869Y014186D02*
X012893Y014186D01*
X012893Y014087D02*
X013869Y014087D01*
X013869Y013989D02*
X012870Y013989D01*
X012923Y013890D02*
X013869Y013890D01*
X013869Y013792D02*
X012923Y013792D01*
X012923Y013693D02*
X013869Y013693D01*
X013869Y013595D02*
X012921Y013595D01*
X012854Y013496D02*
X013869Y013496D01*
X014349Y013595D02*
X016253Y013595D01*
X016253Y013693D02*
X014349Y013693D01*
X014349Y013792D02*
X016253Y013792D01*
X016253Y013890D02*
X014349Y013890D01*
X014349Y013989D02*
X016320Y013989D01*
X016253Y014087D02*
X014349Y014087D01*
X014349Y014186D02*
X016253Y014186D01*
X016253Y014284D02*
X014349Y014284D01*
X014349Y014383D02*
X016253Y014383D01*
X016312Y014481D02*
X014349Y014481D01*
X014349Y014580D02*
X016253Y014580D01*
X016253Y014678D02*
X014349Y014678D01*
X014349Y014777D02*
X016253Y014777D01*
X016253Y014875D02*
X014349Y014875D01*
X014349Y014974D02*
X014791Y014974D01*
X014791Y015072D02*
X014349Y015072D01*
X014349Y015171D02*
X014791Y015171D01*
X014791Y015269D02*
X014349Y015269D01*
X014349Y015565D02*
X015302Y015565D01*
X015302Y015663D02*
X014349Y015663D01*
X014349Y015762D02*
X015302Y015762D01*
X015939Y015466D02*
X016297Y015466D01*
X016850Y015466D02*
X018712Y015466D01*
X018712Y015368D02*
X016893Y015368D01*
X016893Y015269D02*
X018712Y015269D01*
X018712Y015171D02*
X016893Y015171D01*
X016892Y015072D02*
X018712Y015072D01*
X018712Y014974D02*
X018608Y014974D01*
X018608Y014875D02*
X018712Y014875D01*
X018712Y014777D02*
X018608Y014777D01*
X018608Y014678D02*
X018712Y014678D01*
X018692Y014580D02*
X018608Y014580D01*
X019072Y014580D02*
X019115Y014580D01*
X019115Y014678D02*
X019072Y014678D01*
X019072Y014777D02*
X019115Y014777D01*
X019115Y014875D02*
X019072Y014875D01*
X019072Y014974D02*
X019115Y014974D01*
X019115Y015072D02*
X019072Y015072D01*
X019072Y015171D02*
X019115Y015171D01*
X019115Y015269D02*
X019072Y015269D01*
X019092Y015368D02*
X019115Y015368D01*
X018779Y015565D02*
X016885Y015565D01*
X016893Y015663D02*
X018878Y015663D01*
X018976Y015762D02*
X016893Y015762D01*
X016842Y014974D02*
X017972Y014974D01*
X017973Y014481D02*
X016835Y014481D01*
X016827Y013989D02*
X019115Y013989D01*
X019115Y014087D02*
X018709Y014087D01*
X018807Y014186D02*
X019115Y014186D01*
X019115Y014284D02*
X018906Y014284D01*
X019004Y014383D02*
X019115Y014383D01*
X019115Y014481D02*
X019072Y014481D01*
X019115Y013890D02*
X017665Y013890D01*
X017763Y013792D02*
X017841Y013792D01*
X018631Y013792D02*
X019112Y013792D01*
X019013Y013693D02*
X018651Y013693D01*
X016305Y014974D02*
X015427Y014974D01*
X012561Y013760D02*
X012561Y013735D01*
X012223Y013735D01*
X012223Y013603D01*
X012234Y013565D01*
X012253Y013531D01*
X012281Y013503D01*
X012314Y013483D01*
X012259Y013428D01*
X011997Y013428D01*
X011764Y013195D01*
X011764Y013197D01*
X011712Y013249D01*
X011736Y013263D01*
X011764Y013291D01*
X011784Y013326D01*
X011794Y013364D01*
X011794Y013589D01*
X011399Y013589D01*
X011399Y013689D01*
X011794Y013689D01*
X011794Y013915D01*
X011784Y013953D01*
X011771Y013975D01*
X012264Y013975D01*
X012253Y013965D01*
X012234Y013931D01*
X012223Y013892D01*
X012223Y013760D01*
X012561Y013760D01*
X012223Y013792D02*
X011794Y013792D01*
X011794Y013890D02*
X012223Y013890D01*
X012223Y013693D02*
X011794Y013693D01*
X011794Y013496D02*
X012293Y013496D01*
X012226Y013595D02*
X011399Y013595D01*
X011299Y013595D02*
X010333Y013595D01*
X010235Y013693D02*
X010904Y013693D01*
X010904Y013689D02*
X011299Y013689D01*
X011299Y013589D01*
X010904Y013589D01*
X010904Y013364D01*
X010914Y013326D01*
X010934Y013291D01*
X010962Y013263D01*
X010986Y013249D01*
X010934Y013197D01*
X010934Y012642D01*
X010931Y012642D01*
X010840Y012734D01*
X010840Y013088D01*
X009953Y013975D01*
X010927Y013975D01*
X010914Y013953D01*
X010904Y013915D01*
X010904Y013689D01*
X010904Y013792D02*
X010136Y013792D01*
X010038Y013890D02*
X010904Y013890D01*
X010904Y013496D02*
X010432Y013496D01*
X010530Y013398D02*
X010904Y013398D01*
X010929Y013299D02*
X010629Y013299D01*
X010727Y013201D02*
X010937Y013201D01*
X010934Y013102D02*
X010826Y013102D01*
X010840Y013004D02*
X010934Y013004D01*
X010934Y012905D02*
X010840Y012905D01*
X010840Y012807D02*
X010934Y012807D01*
X010934Y012708D02*
X010866Y012708D01*
X010781Y012283D02*
X010782Y012282D01*
X011994Y012282D01*
X012100Y012388D01*
X012269Y012557D01*
X012324Y012503D01*
X012823Y012503D01*
X012862Y012541D01*
X012862Y012454D01*
X012823Y012493D01*
X012324Y012493D01*
X012253Y012422D01*
X012253Y012073D01*
X012324Y012003D01*
X012823Y012003D01*
X012827Y012007D01*
X013136Y012007D01*
X013242Y012112D01*
X013274Y012144D01*
X013427Y012144D01*
X013498Y012214D01*
X013498Y012710D01*
X013427Y012780D01*
X012932Y012780D01*
X012893Y012742D01*
X012893Y012922D01*
X012823Y012993D01*
X012324Y012993D01*
X012259Y012928D01*
X012131Y012928D01*
X011845Y012642D01*
X011764Y012642D01*
X011764Y012686D01*
X011856Y012777D01*
X012146Y013068D01*
X012259Y013068D01*
X012324Y013003D01*
X012823Y013003D01*
X012888Y013068D01*
X013839Y013068D01*
X013832Y012967D01*
X013826Y012962D01*
X013826Y012894D01*
X013822Y012826D01*
X013826Y012820D01*
X013826Y008226D01*
X013813Y008176D01*
X013826Y008154D01*
X013826Y008128D01*
X013838Y008117D01*
X013832Y008097D01*
X013845Y008002D01*
X013933Y007852D01*
X013945Y007822D01*
X013956Y007811D01*
X013965Y007796D01*
X013990Y007777D01*
X014012Y007755D01*
X014027Y007749D01*
X014040Y007739D01*
X014071Y007730D01*
X014100Y007718D01*
X014117Y007718D01*
X014133Y007714D01*
X014164Y007718D01*
X014537Y007718D01*
X014632Y007623D01*
X014548Y007539D01*
X014484Y007385D01*
X014484Y006618D01*
X014508Y006560D01*
X014331Y006560D01*
X014343Y006596D01*
X014354Y006666D01*
X014354Y006952D01*
X013954Y006952D01*
X013954Y007052D01*
X013854Y007052D01*
X013854Y007749D01*
X013799Y007740D01*
X013731Y007719D01*
X013668Y007686D01*
X013611Y007645D01*
X013561Y007595D01*
X013519Y007537D01*
X013487Y007474D01*
X013465Y007407D01*
X013454Y007337D01*
X013454Y007052D01*
X013854Y007052D01*
X013854Y006952D01*
X013454Y006952D01*
X013454Y006666D01*
X013465Y006596D01*
X013487Y006529D01*
X013519Y006466D01*
X013551Y006422D01*
X013218Y006422D01*
X013260Y006464D01*
X013324Y006618D01*
X013324Y007385D01*
X013260Y007539D01*
X013142Y007658D01*
X013092Y007678D01*
X013092Y009214D01*
X013091Y009215D01*
X013569Y009215D01*
X013639Y009285D01*
X013639Y009781D01*
X013569Y009851D01*
X013501Y009851D01*
X013501Y011360D01*
X013013Y011848D01*
X012908Y011953D01*
X012862Y011953D01*
X012823Y011993D01*
X012324Y011993D01*
X012253Y011922D01*
X012253Y011573D01*
X012324Y011503D01*
X012823Y011503D01*
X012836Y011516D01*
X013141Y011210D01*
X013141Y009851D01*
X013074Y009851D01*
X013003Y009781D01*
X013003Y009303D01*
X012986Y009319D01*
X012893Y009413D01*
X012893Y009422D01*
X012823Y009493D01*
X012324Y009493D01*
X012253Y009422D01*
X012253Y009073D01*
X012324Y009003D01*
X012732Y009003D01*
X012732Y007685D01*
X012666Y007658D01*
X012548Y007539D01*
X012484Y007385D01*
X012484Y006618D01*
X012548Y006464D01*
X012590Y006422D01*
X012218Y006422D01*
X012260Y006464D01*
X012324Y006618D01*
X012324Y007385D01*
X012260Y007539D01*
X012142Y007658D01*
X012112Y007670D01*
X012112Y009396D01*
X012271Y009555D01*
X012324Y009503D01*
X012823Y009503D01*
X012893Y009573D01*
X012893Y009922D01*
X012823Y009993D01*
X012324Y009993D01*
X012259Y009928D01*
X012135Y009928D01*
X011857Y009650D01*
X011752Y009545D01*
X011752Y008314D01*
X011735Y008331D01*
X011239Y008331D01*
X011169Y008261D01*
X011169Y007766D01*
X011239Y007695D01*
X011724Y007695D01*
X011724Y007682D01*
X011666Y007658D01*
X011548Y007539D01*
X011484Y007385D01*
X011484Y006618D01*
X011548Y006464D01*
X011590Y006422D01*
X011218Y006422D01*
X011260Y006464D01*
X011324Y006618D01*
X011324Y007385D01*
X011260Y007539D01*
X011142Y007658D01*
X011080Y007683D01*
X011080Y009671D01*
X011477Y010068D01*
X012259Y010068D01*
X012324Y010003D01*
X012823Y010003D01*
X012893Y010073D01*
X012893Y010422D01*
X012823Y010493D01*
X012324Y010493D01*
X012259Y010428D01*
X011328Y010428D01*
X010826Y009926D01*
X010720Y009820D01*
X010720Y007680D01*
X010666Y007658D01*
X010548Y007539D01*
X010484Y007385D01*
X010484Y007117D01*
X010142Y007063D01*
X009325Y007027D01*
X009325Y007080D01*
X009254Y007150D01*
X008759Y007150D01*
X008688Y007080D01*
X008688Y006584D01*
X008759Y006514D01*
X009254Y006514D01*
X009325Y006584D01*
X009325Y006666D01*
X010105Y006701D01*
X010115Y006694D01*
X010178Y006704D01*
X010242Y006707D01*
X010250Y006716D01*
X010484Y006753D01*
X010484Y006618D01*
X010548Y006464D01*
X010590Y006422D01*
X005159Y006422D01*
X005131Y006459D01*
X005131Y006474D01*
X005088Y006517D01*
X005051Y006567D01*
X005036Y006569D01*
X005026Y006579D01*
X004964Y006579D01*
X004903Y006588D01*
X004891Y006579D01*
X004874Y006579D01*
X004888Y006593D01*
X005199Y006593D01*
X005269Y006663D01*
X005269Y007159D01*
X005225Y007203D01*
X010060Y007203D01*
X010082Y007190D01*
X010132Y007203D01*
X010183Y007203D01*
X010202Y007222D01*
X010227Y007228D01*
X010253Y007273D01*
X010289Y007309D01*
X010289Y007335D01*
X010528Y007745D01*
X010564Y007781D01*
X010564Y007807D01*
X010577Y007830D01*
X010564Y007879D01*
X010564Y010299D01*
X010570Y010294D01*
X011065Y010294D01*
X011136Y010364D01*
X011136Y010432D01*
X012073Y010432D01*
X012179Y010537D01*
X012179Y010537D01*
X012209Y010568D01*
X012259Y010568D01*
X012324Y010503D01*
X012823Y010503D01*
X012893Y010573D01*
X012893Y010922D01*
X012823Y010993D01*
X012324Y010993D01*
X012259Y010928D01*
X012242Y010928D01*
X012242Y010983D01*
X012270Y010983D01*
X012307Y011020D01*
X012324Y011003D01*
X012823Y011003D01*
X012893Y011073D01*
X012893Y011422D01*
X012823Y011493D01*
X012324Y011493D01*
X012253Y011422D01*
X012231Y011422D01*
X012172Y011481D01*
X011676Y011481D01*
X011606Y011411D01*
X011606Y010915D01*
X011676Y010845D01*
X011977Y010845D01*
X011954Y010822D01*
X011924Y010792D01*
X011136Y010792D01*
X011136Y010860D01*
X011065Y010930D01*
X010570Y010930D01*
X010564Y010925D01*
X010564Y011264D01*
X010822Y011435D01*
X011223Y011435D01*
X011293Y011506D01*
X011293Y012001D01*
X011223Y012072D01*
X010781Y012072D01*
X010781Y012283D01*
X010781Y012216D02*
X012253Y012216D01*
X012253Y012314D02*
X012026Y012314D01*
X012125Y012413D02*
X012253Y012413D01*
X012223Y012511D02*
X012315Y012511D01*
X012831Y012511D02*
X012862Y012511D01*
X012893Y012807D02*
X013826Y012807D01*
X013826Y012905D02*
X012893Y012905D01*
X012824Y013004D02*
X013834Y013004D01*
X013826Y012708D02*
X013498Y012708D01*
X013498Y012610D02*
X013826Y012610D01*
X013826Y012511D02*
X013498Y012511D01*
X013498Y012413D02*
X013826Y012413D01*
X013826Y012314D02*
X013498Y012314D01*
X013498Y012216D02*
X013826Y012216D01*
X013826Y012117D02*
X013247Y012117D01*
X013148Y012019D02*
X013826Y012019D01*
X013826Y011920D02*
X012941Y011920D01*
X013039Y011822D02*
X013826Y011822D01*
X013826Y011723D02*
X013138Y011723D01*
X013236Y011625D02*
X013826Y011625D01*
X013826Y011526D02*
X013335Y011526D01*
X013433Y011428D02*
X013826Y011428D01*
X013826Y011329D02*
X013501Y011329D01*
X013501Y011231D02*
X013826Y011231D01*
X013826Y011132D02*
X013501Y011132D01*
X013501Y011034D02*
X013826Y011034D01*
X013826Y010935D02*
X013501Y010935D01*
X013501Y010837D02*
X013826Y010837D01*
X013826Y010738D02*
X013501Y010738D01*
X013501Y010640D02*
X013826Y010640D01*
X013826Y010541D02*
X013501Y010541D01*
X013501Y010443D02*
X013826Y010443D01*
X013826Y010344D02*
X013501Y010344D01*
X013501Y010246D02*
X013826Y010246D01*
X013826Y010147D02*
X013501Y010147D01*
X013501Y010049D02*
X013826Y010049D01*
X013826Y009950D02*
X013501Y009950D01*
X013501Y009852D02*
X013826Y009852D01*
X013826Y009753D02*
X013639Y009753D01*
X013639Y009655D02*
X013826Y009655D01*
X013826Y009556D02*
X013639Y009556D01*
X013639Y009458D02*
X013826Y009458D01*
X013826Y009359D02*
X013639Y009359D01*
X013615Y009261D02*
X013826Y009261D01*
X013826Y009162D02*
X013092Y009162D01*
X013092Y009064D02*
X013826Y009064D01*
X013826Y008965D02*
X013092Y008965D01*
X013092Y008867D02*
X013826Y008867D01*
X013826Y008768D02*
X013092Y008768D01*
X013092Y008670D02*
X013826Y008670D01*
X013826Y008571D02*
X013092Y008571D01*
X013092Y008473D02*
X013826Y008473D01*
X013826Y008374D02*
X013092Y008374D01*
X013092Y008276D02*
X013826Y008276D01*
X013813Y008177D02*
X013092Y008177D01*
X013092Y008079D02*
X013835Y008079D01*
X013858Y007980D02*
X013092Y007980D01*
X013092Y007882D02*
X013915Y007882D01*
X013982Y007783D02*
X013092Y007783D01*
X013092Y007685D02*
X013666Y007685D01*
X013554Y007586D02*
X013214Y007586D01*
X013282Y007488D02*
X013494Y007488D01*
X013462Y007389D02*
X013322Y007389D01*
X013324Y007291D02*
X013454Y007291D01*
X013454Y007192D02*
X013324Y007192D01*
X013324Y007094D02*
X013454Y007094D01*
X013324Y006995D02*
X013854Y006995D01*
X013854Y007094D02*
X013954Y007094D01*
X013954Y007052D02*
X013954Y007749D01*
X014009Y007740D01*
X014077Y007719D01*
X014140Y007686D01*
X014197Y007645D01*
X014247Y007595D01*
X014289Y007537D01*
X014321Y007474D01*
X014343Y007407D01*
X014354Y007337D01*
X014354Y007052D01*
X013954Y007052D01*
X013954Y006995D02*
X014484Y006995D01*
X014484Y006897D02*
X014354Y006897D01*
X014354Y006798D02*
X014484Y006798D01*
X014484Y006700D02*
X014354Y006700D01*
X014344Y006601D02*
X014491Y006601D01*
X014484Y007094D02*
X014354Y007094D01*
X014354Y007192D02*
X014484Y007192D01*
X014484Y007291D02*
X014354Y007291D01*
X014346Y007389D02*
X014486Y007389D01*
X014526Y007488D02*
X014314Y007488D01*
X014254Y007586D02*
X014595Y007586D01*
X014571Y007685D02*
X014143Y007685D01*
X013954Y007685D02*
X013854Y007685D01*
X013854Y007586D02*
X013954Y007586D01*
X013954Y007488D02*
X013854Y007488D01*
X013854Y007389D02*
X013954Y007389D01*
X013954Y007291D02*
X013854Y007291D01*
X013854Y007192D02*
X013954Y007192D01*
X013454Y006897D02*
X013324Y006897D01*
X013324Y006798D02*
X013454Y006798D01*
X013454Y006700D02*
X013324Y006700D01*
X013317Y006601D02*
X013464Y006601D01*
X013500Y006503D02*
X013276Y006503D01*
X012532Y006503D02*
X012276Y006503D01*
X012317Y006601D02*
X012491Y006601D01*
X012484Y006700D02*
X012324Y006700D01*
X012324Y006798D02*
X012484Y006798D01*
X012484Y006897D02*
X012324Y006897D01*
X012324Y006995D02*
X012484Y006995D01*
X012484Y007094D02*
X012324Y007094D01*
X012324Y007192D02*
X012484Y007192D01*
X012484Y007291D02*
X012324Y007291D01*
X012322Y007389D02*
X012486Y007389D01*
X012526Y007488D02*
X012282Y007488D01*
X012214Y007586D02*
X012595Y007586D01*
X012731Y007685D02*
X012112Y007685D01*
X012112Y007783D02*
X012732Y007783D01*
X012732Y007882D02*
X012112Y007882D01*
X012112Y007980D02*
X012732Y007980D01*
X012732Y008079D02*
X012112Y008079D01*
X012112Y008177D02*
X012732Y008177D01*
X012732Y008276D02*
X012112Y008276D01*
X012112Y008374D02*
X012732Y008374D01*
X012732Y008473D02*
X012112Y008473D01*
X012112Y008571D02*
X012732Y008571D01*
X012732Y008670D02*
X012112Y008670D01*
X012112Y008768D02*
X012732Y008768D01*
X012732Y008867D02*
X012112Y008867D01*
X012112Y008965D02*
X012732Y008965D01*
X012947Y009359D02*
X013003Y009359D01*
X013003Y009458D02*
X012858Y009458D01*
X012876Y009556D02*
X013003Y009556D01*
X013003Y009655D02*
X012893Y009655D01*
X012893Y009753D02*
X013003Y009753D01*
X012893Y009852D02*
X013141Y009852D01*
X013141Y009950D02*
X012866Y009950D01*
X012869Y010049D02*
X013141Y010049D01*
X013141Y010147D02*
X012893Y010147D01*
X012893Y010246D02*
X013141Y010246D01*
X013141Y010344D02*
X012893Y010344D01*
X012873Y010443D02*
X013141Y010443D01*
X013141Y010541D02*
X012861Y010541D01*
X012893Y010640D02*
X013141Y010640D01*
X013141Y010738D02*
X012893Y010738D01*
X012893Y010837D02*
X013141Y010837D01*
X013141Y010935D02*
X012881Y010935D01*
X012854Y011034D02*
X013141Y011034D01*
X013141Y011132D02*
X012893Y011132D01*
X012893Y011231D02*
X013121Y011231D01*
X013023Y011329D02*
X012893Y011329D01*
X012888Y011428D02*
X012924Y011428D01*
X012300Y011526D02*
X011293Y011526D01*
X011293Y011625D02*
X012253Y011625D01*
X012253Y011723D02*
X011293Y011723D01*
X011293Y011822D02*
X012253Y011822D01*
X012253Y011920D02*
X011293Y011920D01*
X011276Y012019D02*
X012308Y012019D01*
X012253Y012117D02*
X010781Y012117D01*
X010810Y011428D02*
X011622Y011428D01*
X011606Y011329D02*
X010663Y011329D01*
X010564Y011231D02*
X011606Y011231D01*
X011606Y011132D02*
X010564Y011132D01*
X010564Y011034D02*
X011606Y011034D01*
X011606Y010935D02*
X010564Y010935D01*
X011136Y010837D02*
X011969Y010837D01*
X011954Y010822D02*
X011954Y010822D01*
X012242Y010935D02*
X012266Y010935D01*
X012285Y010541D02*
X012182Y010541D01*
X012274Y010443D02*
X012084Y010443D01*
X012278Y010049D02*
X011458Y010049D01*
X011359Y009950D02*
X012281Y009950D01*
X012059Y009852D02*
X011261Y009852D01*
X011162Y009753D02*
X011960Y009753D01*
X011862Y009655D02*
X011080Y009655D01*
X011080Y009556D02*
X011763Y009556D01*
X011752Y009458D02*
X011080Y009458D01*
X011080Y009359D02*
X011752Y009359D01*
X011752Y009261D02*
X011080Y009261D01*
X011080Y009162D02*
X011752Y009162D01*
X011752Y009064D02*
X011080Y009064D01*
X011080Y008965D02*
X011752Y008965D01*
X011752Y008867D02*
X011080Y008867D01*
X011080Y008768D02*
X011752Y008768D01*
X011752Y008670D02*
X011080Y008670D01*
X011080Y008571D02*
X011752Y008571D01*
X011752Y008473D02*
X011080Y008473D01*
X011080Y008374D02*
X011752Y008374D01*
X011183Y008276D02*
X011080Y008276D01*
X011080Y008177D02*
X011169Y008177D01*
X011169Y008079D02*
X011080Y008079D01*
X011080Y007980D02*
X011169Y007980D01*
X011169Y007882D02*
X011080Y007882D01*
X011080Y007783D02*
X011169Y007783D01*
X011080Y007685D02*
X011724Y007685D01*
X011595Y007586D02*
X011214Y007586D01*
X011282Y007488D02*
X011526Y007488D01*
X011486Y007389D02*
X011322Y007389D01*
X011324Y007291D02*
X011484Y007291D01*
X011484Y007192D02*
X011324Y007192D01*
X011324Y007094D02*
X011484Y007094D01*
X011484Y006995D02*
X011324Y006995D01*
X011324Y006897D02*
X011484Y006897D01*
X011484Y006798D02*
X011324Y006798D01*
X011324Y006700D02*
X011484Y006700D01*
X011491Y006601D02*
X011317Y006601D01*
X011276Y006503D02*
X011532Y006503D01*
X010532Y006503D02*
X005103Y006503D01*
X005207Y006601D02*
X008688Y006601D01*
X008688Y006700D02*
X005269Y006700D01*
X005269Y006798D02*
X008688Y006798D01*
X008688Y006897D02*
X005269Y006897D01*
X005269Y006995D02*
X008688Y006995D01*
X008702Y007094D02*
X005269Y007094D01*
X005236Y007192D02*
X010080Y007192D01*
X010089Y007192D02*
X010484Y007192D01*
X010484Y007291D02*
X010270Y007291D01*
X010320Y007389D02*
X010486Y007389D01*
X010526Y007488D02*
X010378Y007488D01*
X010435Y007586D02*
X010595Y007586D01*
X010493Y007685D02*
X010720Y007685D01*
X010720Y007783D02*
X010564Y007783D01*
X010564Y007882D02*
X010720Y007882D01*
X010720Y007980D02*
X010564Y007980D01*
X010564Y008079D02*
X010720Y008079D01*
X010720Y008177D02*
X010564Y008177D01*
X010564Y008276D02*
X010720Y008276D01*
X010720Y008374D02*
X010564Y008374D01*
X010564Y008473D02*
X010720Y008473D01*
X010720Y008571D02*
X010564Y008571D01*
X010564Y008670D02*
X010720Y008670D01*
X010720Y008768D02*
X010564Y008768D01*
X010564Y008867D02*
X010720Y008867D01*
X010720Y008965D02*
X010564Y008965D01*
X010564Y009064D02*
X010720Y009064D01*
X010720Y009162D02*
X010564Y009162D01*
X010564Y009261D02*
X010720Y009261D01*
X010720Y009359D02*
X010564Y009359D01*
X010564Y009458D02*
X010720Y009458D01*
X010720Y009556D02*
X010564Y009556D01*
X010564Y009655D02*
X010720Y009655D01*
X010720Y009753D02*
X010564Y009753D01*
X010564Y009852D02*
X010751Y009852D01*
X010850Y009950D02*
X010564Y009950D01*
X010564Y010049D02*
X010948Y010049D01*
X011047Y010147D02*
X010564Y010147D01*
X010564Y010246D02*
X011145Y010246D01*
X011116Y010344D02*
X011244Y010344D01*
X012174Y009458D02*
X012289Y009458D01*
X012253Y009359D02*
X012112Y009359D01*
X012112Y009261D02*
X012253Y009261D01*
X012253Y009162D02*
X012112Y009162D01*
X012112Y009064D02*
X012263Y009064D01*
X014077Y008081D02*
X014109Y008100D01*
X016100Y008079D02*
X016283Y008079D01*
X016283Y008177D02*
X016100Y008177D01*
X016100Y008276D02*
X016283Y008276D01*
X016283Y008360D02*
X016283Y007864D01*
X016353Y007794D01*
X016664Y007794D01*
X016744Y007714D01*
X016849Y007609D01*
X016959Y007609D01*
X016959Y007306D01*
X017030Y007236D01*
X017365Y007236D01*
X017435Y007306D01*
X017435Y008272D01*
X017365Y008342D01*
X017030Y008342D01*
X016959Y008272D01*
X016959Y008008D01*
X016919Y008048D01*
X016919Y008360D01*
X016849Y008430D01*
X016353Y008430D01*
X016283Y008360D01*
X016297Y008374D02*
X016100Y008374D01*
X016100Y008473D02*
X018299Y008473D01*
X018299Y008399D02*
X018326Y008372D01*
X018206Y008372D01*
X018206Y007798D01*
X018188Y007798D01*
X018188Y008372D01*
X018060Y008372D01*
X018021Y008362D01*
X017987Y008342D01*
X017959Y008314D01*
X017939Y008280D01*
X017935Y008265D01*
X017935Y008272D01*
X017865Y008342D01*
X017530Y008342D01*
X017459Y008272D01*
X017459Y007306D01*
X017482Y007283D01*
X017369Y007170D01*
X017164Y007170D01*
X016408Y006414D01*
X016210Y006414D01*
X016260Y006464D01*
X016324Y006618D01*
X016324Y007385D01*
X016260Y007539D01*
X016142Y007658D01*
X016100Y007675D01*
X016100Y008553D01*
X016549Y009003D01*
X016823Y009003D01*
X016888Y009068D01*
X017229Y009068D01*
X017229Y008944D01*
X017299Y008874D01*
X017989Y008874D01*
X018001Y008886D01*
X018011Y008876D01*
X018299Y008876D01*
X018299Y008399D01*
X018324Y008374D02*
X016905Y008374D01*
X016919Y008276D02*
X016963Y008276D01*
X016959Y008177D02*
X016919Y008177D01*
X016919Y008079D02*
X016959Y008079D01*
X017435Y008079D02*
X017459Y008079D01*
X017459Y008177D02*
X017435Y008177D01*
X017432Y008276D02*
X017463Y008276D01*
X017932Y008276D02*
X017938Y008276D01*
X018188Y008276D02*
X018206Y008276D01*
X018206Y008177D02*
X018188Y008177D01*
X018188Y008079D02*
X018206Y008079D01*
X018206Y007980D02*
X018188Y007980D01*
X018188Y007882D02*
X018206Y007882D01*
X018188Y007685D02*
X018206Y007685D01*
X018206Y007586D02*
X018188Y007586D01*
X018188Y007488D02*
X018206Y007488D01*
X018206Y007389D02*
X018188Y007389D01*
X018188Y007291D02*
X018206Y007291D01*
X018451Y007291D02*
X018475Y007291D01*
X017944Y007291D02*
X017920Y007291D01*
X017475Y007291D02*
X017420Y007291D01*
X017435Y007389D02*
X017459Y007389D01*
X017459Y007488D02*
X017435Y007488D01*
X017435Y007586D02*
X017459Y007586D01*
X017459Y007685D02*
X017435Y007685D01*
X017435Y007783D02*
X017459Y007783D01*
X017459Y007882D02*
X017435Y007882D01*
X017435Y007980D02*
X017459Y007980D01*
X016959Y007586D02*
X016214Y007586D01*
X016282Y007488D02*
X016959Y007488D01*
X016959Y007389D02*
X016322Y007389D01*
X016324Y007291D02*
X016975Y007291D01*
X017088Y007094D02*
X016324Y007094D01*
X016324Y007192D02*
X017391Y007192D01*
X017703Y006995D02*
X019978Y006995D01*
X020315Y006995D02*
X020415Y006995D01*
X020415Y006897D02*
X020315Y006897D01*
X020315Y006798D02*
X020415Y006798D01*
X020983Y006439D02*
X021127Y006582D01*
X021164Y006620D01*
X021164Y008340D01*
X021451Y008628D01*
X022955Y008628D01*
X023869Y008628D01*
X024093Y008403D01*
X024093Y006427D01*
X024542Y005978D01*
X024542Y005482D01*
X024873Y005151D01*
X024610Y004828D02*
X024609Y004828D01*
X024699Y004730D02*
X024754Y004730D01*
X024740Y004631D02*
X024897Y004631D01*
X024917Y004533D02*
X024757Y004533D01*
X024757Y004434D02*
X024917Y004434D01*
X024917Y004336D02*
X024757Y004336D01*
X024003Y003646D02*
X023744Y003646D01*
X023744Y003548D02*
X024106Y003548D01*
X022923Y004336D02*
X019241Y004336D01*
X019150Y004434D02*
X023021Y004434D01*
X023120Y004533D02*
X019060Y004533D01*
X018969Y004631D02*
X023218Y004631D01*
X023317Y004730D02*
X018879Y004730D01*
X018788Y004828D02*
X023415Y004828D01*
X023514Y004927D02*
X018698Y004927D01*
X018609Y005025D02*
X023612Y005025D01*
X023711Y005124D02*
X018511Y005124D01*
X018456Y005222D02*
X018412Y005222D01*
X018197Y005196D02*
X018197Y005742D01*
X017959Y005715D02*
X017935Y005715D01*
X017935Y005813D02*
X017959Y005813D01*
X017959Y005912D02*
X017935Y005912D01*
X017935Y006010D02*
X017959Y006010D01*
X017959Y006109D02*
X017935Y006109D01*
X017935Y006207D02*
X017959Y006207D01*
X018688Y005715D02*
X018706Y005715D01*
X018706Y005616D02*
X018688Y005616D01*
X018688Y005518D02*
X018706Y005518D01*
X018706Y005419D02*
X018688Y005419D01*
X018688Y005321D02*
X018706Y005321D01*
X018706Y005222D02*
X018688Y005222D01*
X018939Y005222D02*
X019509Y005222D01*
X019519Y005212D02*
X019880Y005212D01*
X020134Y005467D01*
X020134Y005827D01*
X019880Y006082D01*
X019519Y006082D01*
X019264Y005827D01*
X019264Y005467D01*
X019519Y005212D01*
X019411Y005321D02*
X018965Y005321D01*
X018965Y005419D02*
X019312Y005419D01*
X019264Y005518D02*
X018965Y005518D01*
X018965Y005616D02*
X019264Y005616D01*
X019264Y005715D02*
X018965Y005715D01*
X018965Y005813D02*
X019264Y005813D01*
X019348Y005912D02*
X018965Y005912D01*
X018965Y006010D02*
X019447Y006010D01*
X019952Y006010D02*
X020451Y006010D01*
X020352Y005912D02*
X020050Y005912D01*
X020134Y005813D02*
X020276Y005813D01*
X020276Y005715D02*
X020134Y005715D01*
X020134Y005616D02*
X020276Y005616D01*
X020276Y005518D02*
X020134Y005518D01*
X020086Y005419D02*
X020332Y005419D01*
X020431Y005321D02*
X019988Y005321D01*
X019889Y005222D02*
X020529Y005222D01*
X021753Y005518D02*
X024116Y005518D01*
X024116Y005616D02*
X021769Y005616D01*
X021769Y005715D02*
X024092Y005715D01*
X023994Y005813D02*
X021769Y005813D01*
X021769Y005912D02*
X023683Y005912D01*
X023608Y005986D02*
X023608Y005986D01*
X023584Y006010D02*
X021769Y006010D01*
X021769Y006109D02*
X023486Y006109D01*
X023376Y006219D02*
X023376Y006513D01*
X023352Y006456D01*
X023352Y006305D01*
X023282Y006234D01*
X022628Y006234D01*
X022558Y006305D01*
X022558Y006820D01*
X022352Y006820D01*
X022352Y006809D01*
X022282Y006738D01*
X021628Y006738D01*
X021558Y006809D01*
X021558Y007462D01*
X021628Y007533D01*
X022282Y007533D01*
X022352Y007462D01*
X022352Y007380D01*
X022554Y007380D01*
X022554Y007954D01*
X022557Y007958D01*
X022345Y007958D01*
X022345Y007801D01*
X022274Y007730D01*
X021621Y007730D01*
X021550Y007801D01*
X021550Y008454D01*
X021553Y008458D01*
X021522Y008458D01*
X021334Y008270D01*
X021334Y006601D01*
X021334Y006700D02*
X022558Y006700D01*
X022558Y006798D02*
X022342Y006798D01*
X021569Y006798D02*
X021334Y006798D01*
X021334Y006897D02*
X021558Y006897D01*
X021558Y006995D02*
X021334Y006995D01*
X021334Y007094D02*
X021558Y007094D01*
X021558Y007192D02*
X021334Y007192D01*
X021334Y007291D02*
X021558Y007291D01*
X021558Y007389D02*
X021334Y007389D01*
X021334Y007488D02*
X021583Y007488D01*
X021334Y007586D02*
X022554Y007586D01*
X022554Y007488D02*
X022327Y007488D01*
X022352Y007389D02*
X022554Y007389D01*
X022554Y007685D02*
X021334Y007685D01*
X021334Y007783D02*
X021568Y007783D01*
X021550Y007882D02*
X021334Y007882D01*
X021334Y007980D02*
X021550Y007980D01*
X021550Y008079D02*
X021334Y008079D01*
X021334Y008177D02*
X021550Y008177D01*
X021550Y008276D02*
X021340Y008276D01*
X021438Y008374D02*
X021550Y008374D01*
X021947Y008128D02*
X023258Y008128D01*
X023546Y007840D01*
X023546Y006289D01*
X023778Y006057D01*
X023991Y006057D01*
X024286Y005761D01*
X024286Y005100D01*
X025829Y005321D02*
X027762Y005321D01*
X027762Y005419D02*
X026007Y005419D01*
X026106Y005518D02*
X027762Y005518D01*
X027762Y005616D02*
X026204Y005616D01*
X026253Y005715D02*
X027762Y005715D01*
X027762Y005813D02*
X026294Y005813D01*
X026335Y005912D02*
X027762Y005912D01*
X027762Y006010D02*
X026355Y006010D01*
X026355Y006109D02*
X027762Y006109D01*
X027762Y006207D02*
X026355Y006207D01*
X026355Y006306D02*
X027762Y006306D01*
X027762Y006404D02*
X026319Y006404D01*
X026279Y006503D02*
X027762Y006503D01*
X027762Y006601D02*
X026238Y006601D01*
X026167Y006700D02*
X027762Y006700D01*
X027762Y006798D02*
X026069Y006798D01*
X025970Y006897D02*
X027762Y006897D01*
X027762Y006995D02*
X025740Y006995D01*
X025170Y006995D02*
X024263Y006995D01*
X024263Y006897D02*
X024940Y006897D01*
X024842Y006798D02*
X024263Y006798D01*
X024263Y006700D02*
X024743Y006700D01*
X024673Y006601D02*
X024263Y006601D01*
X024263Y006503D02*
X024632Y006503D01*
X024591Y006404D02*
X024356Y006404D01*
X024455Y006306D02*
X024556Y006306D01*
X024553Y006207D02*
X024556Y006207D01*
X023376Y006306D02*
X023352Y006306D01*
X023352Y006404D02*
X023376Y006404D01*
X023371Y006503D02*
X023376Y006503D01*
X024263Y007094D02*
X027762Y007094D01*
X027762Y007192D02*
X024263Y007192D01*
X024263Y007291D02*
X027762Y007291D01*
X027762Y007389D02*
X024263Y007389D01*
X024263Y007488D02*
X027762Y007488D01*
X027762Y007586D02*
X024263Y007586D01*
X024263Y007685D02*
X027762Y007685D01*
X027762Y007783D02*
X024263Y007783D01*
X024263Y007882D02*
X027762Y007882D01*
X027762Y007980D02*
X024263Y007980D01*
X024263Y008079D02*
X027762Y008079D01*
X027762Y008177D02*
X024263Y008177D01*
X024263Y008276D02*
X027762Y008276D01*
X027762Y008374D02*
X024263Y008374D01*
X024263Y008473D02*
X027762Y008473D01*
X027762Y008571D02*
X024166Y008571D01*
X024067Y008670D02*
X027762Y008670D01*
X027762Y008768D02*
X023969Y008768D01*
X023352Y008867D02*
X027762Y008867D01*
X027762Y008965D02*
X023342Y008965D01*
X023290Y009203D02*
X023325Y009222D01*
X023352Y009250D01*
X023372Y009285D01*
X023382Y009323D01*
X023382Y009581D01*
X022994Y009581D01*
X022994Y009193D01*
X023252Y009193D01*
X023290Y009203D01*
X023358Y009261D02*
X027762Y009261D01*
X027762Y009359D02*
X023382Y009359D01*
X023382Y009458D02*
X027762Y009458D01*
X027762Y009556D02*
X023382Y009556D01*
X023382Y009753D02*
X025216Y009753D01*
X024978Y009852D02*
X023382Y009852D01*
X023373Y009950D02*
X024861Y009950D01*
X022994Y009556D02*
X022917Y009556D01*
X022917Y009458D02*
X022994Y009458D01*
X022994Y009359D02*
X022917Y009359D01*
X022917Y009261D02*
X022994Y009261D01*
X021351Y008768D02*
X020745Y008768D01*
X020745Y008867D02*
X020892Y008867D01*
X020820Y008965D02*
X020744Y008965D01*
X020791Y009064D02*
X019428Y009064D01*
X019330Y009162D02*
X020791Y009162D01*
X020831Y009261D02*
X019231Y009261D01*
X019133Y009359D02*
X020869Y009359D01*
X020869Y009458D02*
X019034Y009458D01*
X019115Y009556D02*
X018936Y009556D01*
X018837Y009655D02*
X019115Y009655D01*
X019115Y009753D02*
X018739Y009753D01*
X018640Y009852D02*
X019115Y009852D01*
X019115Y009950D02*
X018542Y009950D01*
X018443Y010049D02*
X019115Y010049D01*
X019115Y010147D02*
X018345Y010147D01*
X018246Y010246D02*
X019115Y010246D01*
X019115Y010344D02*
X018148Y010344D01*
X018049Y010443D02*
X019115Y010443D01*
X018712Y010541D02*
X017951Y010541D01*
X017464Y010443D02*
X017395Y010443D01*
X017360Y010541D02*
X017448Y010541D01*
X017448Y010640D02*
X016893Y010640D01*
X016893Y010738D02*
X017464Y010738D01*
X017393Y010837D02*
X016893Y010837D01*
X016881Y010935D02*
X016983Y010935D01*
X015416Y012019D02*
X014349Y012019D01*
X014349Y012117D02*
X015318Y012117D01*
X015219Y012216D02*
X015113Y012216D01*
X015433Y012511D02*
X016273Y012511D01*
X016253Y012413D02*
X015531Y012413D01*
X015334Y012610D02*
X016223Y012610D01*
X016223Y012708D02*
X015151Y012708D01*
X015094Y012807D02*
X016223Y012807D01*
X016227Y012905D02*
X014349Y012905D01*
X014349Y012807D02*
X014572Y012807D01*
X014515Y012708D02*
X014349Y012708D01*
X014349Y012610D02*
X014515Y012610D01*
X014515Y012511D02*
X014349Y012511D01*
X014349Y012413D02*
X014515Y012413D01*
X014515Y012314D02*
X014349Y012314D01*
X014349Y012216D02*
X014553Y012216D01*
X014349Y011526D02*
X014906Y011526D01*
X014865Y011428D02*
X014349Y011428D01*
X012259Y011428D02*
X012225Y011428D01*
X012253Y011422D02*
X012253Y011422D01*
X011911Y012708D02*
X011786Y012708D01*
X011885Y012807D02*
X012010Y012807D01*
X011983Y012905D02*
X012108Y012905D01*
X012082Y013004D02*
X012323Y013004D01*
X011967Y013398D02*
X011794Y013398D01*
X011769Y013299D02*
X011868Y013299D01*
X011770Y013201D02*
X011761Y013201D01*
X018577Y009261D02*
X018665Y009261D01*
X018577Y009162D02*
X018764Y009162D01*
X018862Y009064D02*
X018577Y009064D01*
X018865Y008965D02*
X018961Y008965D01*
X018935Y008867D02*
X019059Y008867D01*
X019158Y008768D02*
X018935Y008768D01*
X018935Y008670D02*
X019245Y008670D01*
X019245Y008571D02*
X018935Y008571D01*
X018935Y008473D02*
X019245Y008473D01*
X019245Y008374D02*
X018909Y008374D01*
X018932Y008276D02*
X019245Y008276D01*
X018935Y008177D02*
X020008Y008177D01*
X020008Y008079D02*
X018935Y008079D01*
X018935Y007980D02*
X020008Y007980D01*
X020008Y007882D02*
X018935Y007882D01*
X018935Y007783D02*
X020008Y007783D01*
X020008Y007685D02*
X018935Y007685D01*
X020315Y007389D02*
X020415Y007389D01*
X020415Y007291D02*
X020315Y007291D01*
X020737Y007389D02*
X020994Y007389D01*
X020994Y007291D02*
X020751Y007291D01*
X022327Y007783D02*
X022554Y007783D01*
X022554Y007882D02*
X022345Y007882D01*
X020869Y009556D02*
X020142Y009556D01*
X020142Y009655D02*
X020869Y009655D01*
X020869Y009753D02*
X020142Y009753D01*
X020142Y009852D02*
X020869Y009852D01*
X020869Y009950D02*
X020142Y009950D01*
X018299Y008867D02*
X016413Y008867D01*
X016512Y008965D02*
X017229Y008965D01*
X017229Y009064D02*
X016884Y009064D01*
X016315Y008768D02*
X018299Y008768D01*
X018299Y008670D02*
X016216Y008670D01*
X016118Y008571D02*
X018299Y008571D01*
X016744Y007714D02*
X016744Y007714D01*
X016774Y007685D02*
X016100Y007685D01*
X016100Y007783D02*
X016675Y007783D01*
X016283Y007882D02*
X016100Y007882D01*
X016100Y007980D02*
X016283Y007980D01*
X016324Y006995D02*
X016989Y006995D01*
X016891Y006897D02*
X016324Y006897D01*
X016324Y006798D02*
X016792Y006798D01*
X016694Y006700D02*
X016324Y006700D01*
X016317Y006601D02*
X016595Y006601D01*
X016497Y006503D02*
X016276Y006503D01*
X016612Y006109D02*
X016959Y006109D01*
X016959Y006207D02*
X016711Y006207D01*
X016959Y006010D02*
X016179Y006010D01*
X016080Y005912D02*
X016959Y005912D01*
X016959Y005813D02*
X015159Y005813D01*
X015162Y005715D02*
X016959Y005715D01*
X016959Y005616D02*
X015164Y005616D01*
X015138Y005518D02*
X016152Y005518D01*
X016134Y005419D02*
X015387Y005419D01*
X015387Y005321D02*
X016134Y005321D01*
X016134Y005222D02*
X015976Y005222D01*
X015959Y005226D02*
X015712Y005226D01*
X015712Y004928D01*
X016089Y004928D01*
X016089Y005096D01*
X016079Y005134D01*
X016060Y005168D01*
X016032Y005196D01*
X015997Y005216D01*
X015959Y005226D01*
X016082Y005124D02*
X016134Y005124D01*
X016134Y005025D02*
X016089Y005025D01*
X016089Y004828D02*
X018021Y004828D01*
X018021Y004730D02*
X016926Y004730D01*
X016926Y004336D02*
X018779Y004336D01*
X018688Y004434D02*
X018345Y004434D01*
X018361Y004533D02*
X018598Y004533D01*
X018507Y004631D02*
X018361Y004631D01*
X018361Y004730D02*
X018417Y004730D01*
X018021Y004927D02*
X015712Y004927D01*
X015712Y005025D02*
X015615Y005025D01*
X015615Y005124D02*
X015712Y005124D01*
X015712Y005222D02*
X015615Y005222D01*
X015615Y004828D02*
X015712Y004828D01*
X015712Y004730D02*
X015615Y004730D01*
X015615Y004631D02*
X015712Y004631D01*
X015417Y004533D02*
X016134Y004533D01*
X016134Y004631D02*
X016081Y004631D01*
X016089Y004730D02*
X016134Y004730D01*
X016134Y004434D02*
X015017Y004434D01*
X015017Y004336D02*
X014917Y004336D01*
X014917Y004344D02*
X014917Y003994D01*
X014647Y003994D01*
X014609Y004005D01*
X014575Y004024D01*
X014547Y004052D01*
X014527Y004086D01*
X014517Y004125D01*
X014517Y004344D01*
X014917Y004344D01*
X014917Y004434D02*
X011930Y004434D01*
X011930Y004369D02*
X011930Y004549D01*
X011920Y004587D01*
X011900Y004621D01*
X011872Y004649D01*
X011838Y004669D01*
X011800Y004679D01*
X011405Y004679D01*
X011405Y004369D01*
X011930Y004369D01*
X011930Y004237D02*
X014517Y004237D01*
X014517Y004139D02*
X011930Y004139D01*
X011913Y004040D02*
X014559Y004040D01*
X014517Y004336D02*
X011405Y004336D01*
X011405Y004434D02*
X011305Y004434D01*
X011305Y004336D02*
X010244Y004336D01*
X010244Y004434D02*
X010780Y004434D01*
X010780Y004533D02*
X010244Y004533D01*
X010244Y004631D02*
X010820Y004631D01*
X010780Y004237D02*
X010244Y004237D01*
X010244Y004139D02*
X010780Y004139D01*
X010796Y004040D02*
X010244Y004040D01*
X010244Y003942D02*
X010843Y003942D01*
X010810Y003843D02*
X010244Y003843D01*
X010244Y003745D02*
X010810Y003745D01*
X010810Y003646D02*
X010244Y003646D01*
X010244Y003548D02*
X010810Y003548D01*
X010810Y003449D02*
X010244Y003449D01*
X010244Y003351D02*
X010849Y003351D01*
X010793Y003252D02*
X010244Y003252D01*
X010244Y003154D02*
X010780Y003154D01*
X010780Y003055D02*
X010244Y003055D01*
X010244Y002957D02*
X011305Y002957D01*
X011405Y002957D02*
X013202Y002957D01*
X013202Y002858D02*
X011930Y002858D01*
X011930Y002760D02*
X013202Y002760D01*
X013202Y002661D02*
X011884Y002661D01*
X012497Y002563D02*
X013202Y002563D01*
X013232Y001873D02*
X011900Y001873D01*
X012746Y001972D02*
X010244Y001972D01*
X010244Y002070D02*
X010810Y002070D01*
X010810Y002169D02*
X010244Y002169D01*
X010244Y002267D02*
X010810Y002267D01*
X010810Y002366D02*
X010244Y002366D01*
X010244Y002464D02*
X010810Y002464D01*
X010810Y002563D02*
X010244Y002563D01*
X010244Y002661D02*
X010826Y002661D01*
X010780Y002760D02*
X010244Y002760D01*
X010244Y002858D02*
X010780Y002858D01*
X010810Y001873D02*
X010244Y001873D01*
X010244Y001775D02*
X010810Y001775D01*
X010810Y001676D02*
X010244Y001676D01*
X010244Y001578D02*
X010810Y001578D01*
X010810Y001479D02*
X010244Y001479D01*
X010244Y001381D02*
X010810Y001381D01*
X010244Y001282D02*
X012151Y001282D01*
X012888Y001775D02*
X013232Y001775D01*
X013187Y001184D02*
X010244Y001184D01*
X010244Y001085D02*
X013232Y001085D01*
X013232Y000987D02*
X010244Y000987D01*
X010244Y000888D02*
X013232Y000888D01*
X014023Y000987D02*
X027772Y000987D01*
X027772Y001085D02*
X014023Y001085D01*
X014023Y001184D02*
X027772Y001184D01*
X027773Y000888D02*
X014050Y000888D01*
X014023Y001282D02*
X014674Y001282D01*
X014511Y001381D02*
X014023Y001381D01*
X014023Y001479D02*
X014384Y001479D01*
X014257Y001578D02*
X014023Y001578D01*
X014023Y001676D02*
X014130Y001676D01*
X014530Y002928D02*
X014530Y002998D01*
X014917Y004040D02*
X015017Y004040D01*
X015017Y004139D02*
X014917Y004139D01*
X014917Y004237D02*
X015017Y004237D01*
X015417Y004237D02*
X015873Y004237D01*
X015839Y004139D02*
X015417Y004139D01*
X015375Y004040D02*
X015830Y004040D01*
X015972Y004336D02*
X015417Y004336D01*
X014517Y004533D02*
X011930Y004533D01*
X011890Y004631D02*
X014517Y004631D01*
X014543Y004730D02*
X010244Y004730D01*
X010244Y004828D02*
X014564Y004828D01*
X014547Y004927D02*
X010244Y004927D01*
X010244Y005025D02*
X014547Y005025D01*
X014547Y005124D02*
X010244Y005124D01*
X010177Y005222D02*
X014547Y005222D01*
X014547Y005321D02*
X004246Y005321D01*
X004246Y005419D02*
X014547Y005419D01*
X014647Y005518D02*
X004246Y005518D01*
X004246Y005616D02*
X014669Y005616D01*
X014682Y005715D02*
X004754Y005715D01*
X004797Y005813D02*
X014679Y005813D01*
X014676Y005912D02*
X004797Y005912D01*
X004797Y006010D02*
X014082Y006010D01*
X016908Y005518D02*
X016959Y005518D01*
X016959Y005419D02*
X016926Y005419D01*
X016926Y005321D02*
X016959Y005321D01*
X017435Y005321D02*
X017454Y005321D01*
X017454Y005419D02*
X017435Y005419D01*
X017435Y005518D02*
X017454Y005518D01*
X017441Y005616D02*
X017435Y005616D01*
X017935Y005616D02*
X017959Y005616D01*
X017959Y005518D02*
X017935Y005518D01*
X017935Y005419D02*
X017959Y005419D01*
X017959Y005321D02*
X017935Y005321D01*
X017899Y005222D02*
X017996Y005222D01*
X018021Y005124D02*
X017764Y005124D01*
X017753Y005025D02*
X018021Y005025D01*
X018870Y004237D02*
X016904Y004237D01*
X016700Y004139D02*
X018960Y004139D01*
X019050Y004040D02*
X016700Y004040D01*
X019586Y003646D02*
X022354Y003646D01*
X022354Y003548D02*
X019586Y003548D01*
X019586Y003449D02*
X022354Y003449D01*
X022354Y003351D02*
X019586Y003351D01*
X019586Y003252D02*
X022354Y003252D01*
X022354Y003154D02*
X019586Y003154D01*
X019586Y003055D02*
X022354Y003055D01*
X022354Y002957D02*
X019586Y002957D01*
X019586Y002858D02*
X022354Y002858D01*
X022354Y002760D02*
X019586Y002760D01*
X019586Y002661D02*
X021781Y002661D01*
X021779Y002563D02*
X019586Y002563D01*
X019586Y002464D02*
X021779Y002464D01*
X021779Y002366D02*
X019180Y002366D01*
X019144Y002267D02*
X021779Y002267D01*
X021779Y002169D02*
X019067Y002169D01*
X020121Y000825D02*
X020121Y000825D01*
X020232Y000825D02*
X020232Y000825D01*
X022415Y002169D02*
X024113Y002169D01*
X023928Y002267D02*
X023228Y002267D01*
X023272Y002366D02*
X023744Y002366D01*
X026168Y005124D02*
X027762Y005124D01*
X027762Y005222D02*
X025939Y005222D01*
X024786Y011231D02*
X023184Y011231D01*
X023588Y011329D02*
X024884Y011329D01*
X025036Y011428D02*
X023679Y011428D01*
X021371Y012413D02*
X021323Y012413D01*
X025678Y012905D02*
X028172Y012905D01*
X028172Y012807D02*
X026790Y012807D01*
X026948Y012708D02*
X028172Y012708D01*
X028172Y012610D02*
X027107Y012610D01*
X027265Y012511D02*
X028172Y012511D01*
X028172Y012413D02*
X027423Y012413D01*
X027582Y012314D02*
X028172Y012314D01*
X028172Y012216D02*
X027740Y012216D01*
X027899Y012117D02*
X028172Y012117D01*
X028172Y012019D02*
X028057Y012019D01*
X012026Y003942D02*
X011867Y003942D01*
X011405Y004533D02*
X011305Y004533D01*
X011305Y004631D02*
X011405Y004631D01*
X010491Y006601D02*
X009325Y006601D01*
X009311Y007094D02*
X010335Y007094D01*
X010484Y006700D02*
X010149Y006700D01*
X010107Y006700D02*
X010075Y006700D01*
X005973Y005222D02*
X004183Y005222D01*
X003773Y005124D02*
X005906Y005124D01*
X005906Y005025D02*
X003773Y005025D01*
X003773Y004927D02*
X005906Y004927D01*
X005906Y004828D02*
X003773Y004828D01*
X003773Y004730D02*
X005906Y004730D01*
X005906Y004631D02*
X003710Y004631D01*
X003300Y004533D02*
X005906Y004533D01*
X005906Y004434D02*
X002892Y004434D01*
X002990Y004336D02*
X005906Y004336D01*
X005906Y004237D02*
X003017Y004237D01*
X003017Y004139D02*
X005906Y004139D01*
X005906Y004040D02*
X003017Y004040D01*
X002981Y003942D02*
X005906Y003942D01*
X005906Y003843D02*
X002882Y003843D01*
X002784Y003745D02*
X005906Y003745D01*
X005906Y003646D02*
X002492Y003646D01*
X002439Y003573D02*
X002187Y003321D01*
X002187Y003183D01*
X002577Y003183D01*
X002577Y003103D01*
X002657Y003103D01*
X002657Y003183D01*
X003047Y003183D01*
X003047Y003321D01*
X002795Y003573D01*
X002657Y003573D01*
X002657Y003183D01*
X002577Y003183D01*
X002577Y003573D01*
X002439Y003573D01*
X002413Y003548D02*
X002394Y003548D01*
X002314Y003449D02*
X001919Y003449D01*
X001994Y003351D02*
X002216Y003351D01*
X002187Y003252D02*
X002033Y003252D01*
X002046Y003103D02*
X001657Y003103D01*
X001657Y002714D01*
X001717Y002724D01*
X001782Y002745D01*
X001842Y002776D01*
X001897Y002815D01*
X001945Y002863D01*
X001984Y002918D01*
X002015Y002978D01*
X002036Y003043D01*
X002046Y003103D01*
X002038Y003055D02*
X002187Y003055D01*
X002187Y003103D02*
X002187Y002965D01*
X002439Y002713D01*
X002577Y002713D01*
X002577Y003103D01*
X002187Y003103D01*
X002195Y002957D02*
X002004Y002957D01*
X001939Y002858D02*
X002294Y002858D01*
X002392Y002760D02*
X001811Y002760D01*
X001657Y002760D02*
X001577Y002760D01*
X001577Y002714D02*
X001577Y003103D01*
X001188Y003103D01*
X001197Y003043D01*
X001218Y002978D01*
X001249Y002918D01*
X001289Y002863D01*
X001337Y002815D01*
X001391Y002776D01*
X001452Y002745D01*
X001516Y002724D01*
X001577Y002714D01*
X001577Y002858D02*
X001657Y002858D01*
X001657Y002957D02*
X001577Y002957D01*
X001577Y003055D02*
X001657Y003055D01*
X001657Y003154D02*
X002577Y003154D01*
X002657Y003154D02*
X005906Y003154D01*
X005906Y003252D02*
X003047Y003252D01*
X003018Y003351D02*
X005906Y003351D01*
X005906Y003449D02*
X002919Y003449D01*
X002821Y003548D02*
X005906Y003548D01*
X005906Y003055D02*
X003047Y003055D01*
X003047Y003103D02*
X002657Y003103D01*
X002657Y002713D01*
X002795Y002713D01*
X003047Y002965D01*
X003047Y003103D01*
X003038Y002957D02*
X005906Y002957D01*
X005906Y002858D02*
X002939Y002858D01*
X002841Y002760D02*
X005906Y002760D01*
X005906Y002661D02*
X000979Y002661D01*
X000979Y002563D02*
X005906Y002563D01*
X005906Y002464D02*
X000979Y002464D01*
X000979Y002366D02*
X005906Y002366D01*
X005906Y002267D02*
X000979Y002267D01*
X000979Y002169D02*
X005906Y002169D01*
X005906Y002070D02*
X000979Y002070D01*
X000979Y001972D02*
X005906Y001972D01*
X005906Y001873D02*
X000979Y001873D01*
X000979Y001775D02*
X005906Y001775D01*
X005906Y001676D02*
X000979Y001676D01*
X000979Y001578D02*
X005906Y001578D01*
X005906Y001479D02*
X000979Y001479D01*
X000979Y001381D02*
X005906Y001381D01*
X005906Y001282D02*
X000979Y001282D01*
X000979Y001184D02*
X005906Y001184D01*
X005906Y001085D02*
X000979Y001085D01*
X000979Y000987D02*
X005906Y000987D01*
X005906Y000888D02*
X000979Y000888D01*
X000979Y002760D02*
X001423Y002760D01*
X001294Y002858D02*
X000979Y002858D01*
X000979Y002957D02*
X001229Y002957D01*
X001195Y003055D02*
X000979Y003055D01*
X000979Y003154D02*
X001577Y003154D01*
X001200Y003252D02*
X000979Y003252D01*
X000979Y003351D02*
X001240Y003351D01*
X001314Y003449D02*
X000979Y003449D01*
X000979Y003548D02*
X001092Y003548D01*
X000993Y003646D02*
X000979Y003646D01*
X002577Y003548D02*
X002657Y003548D01*
X002657Y003449D02*
X002577Y003449D01*
X002577Y003351D02*
X002657Y003351D01*
X002657Y003252D02*
X002577Y003252D01*
X002577Y003055D02*
X002657Y003055D01*
X002657Y002957D02*
X002577Y002957D01*
X002577Y002858D02*
X002657Y002858D01*
X002657Y002760D02*
X002577Y002760D01*
X004797Y006109D02*
X004944Y006109D01*
X004870Y006207D02*
X004797Y006207D01*
D38*
X004951Y006399D02*
X005069Y006242D01*
X014400Y006242D01*
X014904Y006348D02*
X015172Y006080D01*
X015995Y006080D01*
X016148Y006234D01*
X016483Y006234D01*
X017239Y006990D01*
X017443Y006990D01*
X017697Y007244D01*
X017697Y007789D01*
X017197Y007789D02*
X016924Y007789D01*
X016601Y008112D01*
X015920Y008628D02*
X015920Y007017D01*
X015904Y007002D01*
X014943Y007041D02*
X014904Y007002D01*
X015384Y007738D02*
X015424Y009391D01*
X015778Y009746D01*
X016571Y009746D01*
X016573Y009748D01*
X016542Y009250D02*
X015920Y008628D01*
X016542Y009250D02*
X017644Y009250D01*
X017699Y009194D01*
X018258Y009194D01*
X017644Y009250D02*
X017642Y009248D01*
X016573Y009248D01*
X017644Y009998D02*
X017644Y010600D01*
X017644Y010840D01*
X017266Y011218D01*
X016573Y011248D02*
X015941Y011248D01*
X015699Y011006D01*
X015660Y011006D01*
X015502Y010848D01*
X015266Y010848D01*
X015109Y010691D01*
X015109Y010336D01*
X015069Y010297D01*
X015936Y010651D02*
X016516Y010691D01*
X016573Y010748D01*
X016583Y010257D02*
X016573Y010248D01*
X016583Y010257D02*
X017077Y010257D01*
X015184Y011238D02*
X014050Y011198D01*
X014006Y011155D01*
X014006Y012887D01*
X014032Y013248D01*
X012573Y013248D01*
X012071Y013248D01*
X011676Y012852D01*
X011388Y012852D01*
X011349Y012891D01*
X010857Y012462D02*
X010660Y012659D01*
X010660Y013013D01*
X009754Y013919D01*
X004243Y013919D01*
X003770Y013446D01*
X003613Y013446D01*
X003416Y013250D01*
X003416Y011320D01*
X003219Y011124D01*
X002636Y011124D01*
X002617Y011143D01*
X001959Y010651D02*
X005030Y010651D01*
X005266Y010887D01*
X008573Y010887D01*
X008967Y011281D01*
X008967Y011399D01*
X009321Y011754D01*
X009794Y012108D02*
X009754Y012305D01*
X009794Y012108D02*
X009794Y008407D01*
X009530Y008143D01*
X002617Y008143D01*
X003101Y008565D02*
X009282Y008565D01*
X009518Y008801D01*
X009518Y011045D01*
X009361Y011202D01*
X010069Y011793D02*
X010463Y012147D01*
X010857Y012462D02*
X011920Y012462D01*
X012205Y012748D01*
X012573Y012748D01*
X012573Y012248D02*
X012634Y012187D01*
X013062Y012187D01*
X013180Y012305D01*
X013180Y012462D01*
X012833Y011773D02*
X012599Y011773D01*
X012573Y011748D01*
X012833Y011773D02*
X013321Y011285D01*
X013321Y009533D01*
X012912Y009139D02*
X012912Y007009D01*
X012904Y007002D01*
X011932Y007029D02*
X011904Y007002D01*
X011904Y007872D01*
X011802Y007974D01*
X011526Y007974D01*
X011487Y008013D01*
X010384Y007856D02*
X010384Y011360D01*
X010975Y011754D01*
X010069Y011793D02*
X010069Y008053D01*
X009833Y007817D01*
X004518Y007817D01*
X004282Y007659D01*
X002117Y007659D01*
X001680Y007143D01*
X001617Y007143D01*
X002156Y006635D02*
X004676Y006635D01*
X004951Y006911D01*
X004597Y007383D02*
X004357Y007143D01*
X002617Y007143D01*
X002156Y006635D02*
X001664Y006143D01*
X001617Y006143D01*
X002156Y005651D02*
X002865Y005651D01*
X003258Y006006D01*
X004479Y006006D01*
X003928Y005533D02*
X003888Y005494D01*
X003140Y005494D01*
X002790Y005143D01*
X002617Y005143D01*
X002156Y005651D02*
X001688Y005143D01*
X001617Y005143D01*
X002117Y004667D02*
X003180Y004667D01*
X003455Y004943D01*
X002617Y004143D02*
X002617Y004025D01*
X002235Y003643D01*
X001251Y003643D01*
X001093Y003801D01*
X001093Y012541D01*
X001211Y012659D01*
X002983Y012659D01*
X003180Y012856D01*
X003180Y016084D01*
X003455Y016360D01*
X013022Y016360D01*
X013534Y015848D01*
X013534Y014982D01*
X013298Y014746D01*
X012575Y014746D01*
X012573Y014748D01*
X012573Y015248D02*
X012327Y015257D01*
X005542Y015257D01*
X006251Y014667D02*
X004085Y014667D01*
X003731Y015021D01*
X003770Y014155D02*
X012481Y014155D01*
X012573Y014248D01*
X012573Y015748D02*
X012512Y015809D01*
X004518Y015809D01*
X012195Y011163D02*
X012274Y011242D01*
X012567Y011242D01*
X012573Y011248D01*
X012195Y011163D02*
X011924Y011163D01*
X012134Y010748D02*
X011999Y010612D01*
X010817Y010612D01*
X011402Y010248D02*
X010900Y009746D01*
X010900Y007006D01*
X010904Y007002D01*
X010160Y006883D01*
X009006Y006832D01*
X010109Y007383D02*
X010384Y007856D01*
X010109Y007383D02*
X004597Y007383D01*
X004951Y006399D02*
X003180Y006399D01*
X002924Y006143D01*
X002617Y006143D01*
X002117Y004667D02*
X001617Y004167D01*
X001617Y004143D01*
X001617Y008143D02*
X001656Y008143D01*
X002077Y008643D01*
X003022Y008643D01*
X003101Y008565D01*
X002617Y009143D02*
X008821Y009143D01*
X008888Y009076D01*
X011402Y010248D02*
X012573Y010248D01*
X012573Y010748D02*
X012134Y010748D01*
X012209Y009748D02*
X011932Y009470D01*
X011932Y007029D01*
X014006Y008202D02*
X014077Y008081D01*
X014006Y008202D02*
X014006Y011155D01*
X015188Y012502D02*
X015502Y012187D01*
X016512Y012187D01*
X016573Y012248D01*
X015188Y012502D02*
X014833Y012502D01*
X016573Y014248D02*
X016579Y014242D01*
X018609Y014242D01*
X018892Y014525D01*
X018892Y015423D01*
X019160Y015691D01*
X020380Y015691D01*
X020573Y015498D01*
X020573Y015191D01*
X020703Y015061D01*
X021306Y015061D01*
X022136Y015061D01*
X022144Y015069D01*
X022152Y015076D01*
X022676Y015076D01*
X022971Y014781D01*
X022995Y014781D01*
X023073Y014702D01*
X023188Y014702D01*
X023317Y014572D01*
X023392Y014572D01*
X023467Y014498D01*
X023699Y014498D01*
X024248Y015047D01*
X025294Y015047D01*
X026656Y015789D02*
X026656Y014041D01*
X026510Y013817D01*
X026471Y013730D01*
X026085Y013265D01*
X022943Y013265D01*
X021754Y013257D01*
X021085Y013376D01*
X023514Y015047D02*
X023514Y015478D01*
X023160Y015832D01*
X022160Y015832D01*
X022144Y015817D01*
X018290Y014730D02*
X018274Y014714D01*
X016648Y014714D01*
X016615Y014748D01*
X016573Y014748D01*
X016544Y015218D02*
X016573Y015248D01*
X016544Y015218D02*
X015109Y015218D01*
X015621Y015691D02*
X016516Y015691D01*
X016573Y015748D01*
X012573Y009748D02*
X012209Y009748D01*
X012573Y009248D02*
X012804Y009248D01*
X012912Y009139D01*
X018197Y007789D02*
X018211Y007775D01*
X018211Y006978D01*
X018697Y007789D02*
X018697Y008567D01*
X018617Y008647D01*
X018697Y005742D02*
X019062Y005742D01*
X019097Y005706D01*
X018197Y005742D02*
X018188Y005732D01*
X023049Y003054D02*
X023032Y002411D01*
X012298Y003647D02*
X012296Y003629D01*
X005463Y010336D02*
X005270Y010143D01*
X002617Y010143D01*
X001959Y010651D02*
X001617Y010994D01*
X001617Y011143D01*
D39*
X014640Y002438D03*
D40*
X012298Y003647D03*
X014400Y006242D03*
X015384Y007738D03*
X016601Y008112D03*
X018258Y009194D03*
X018617Y008647D03*
X019754Y007069D03*
X018211Y006978D03*
X019097Y005706D03*
X022097Y002411D03*
X011487Y008013D03*
X013321Y009533D03*
X015069Y010297D03*
X015936Y010651D03*
X015184Y011238D03*
X017077Y010257D03*
X017266Y011218D03*
X017223Y011785D03*
X017105Y012722D03*
X014833Y012502D03*
X013180Y012462D03*
X011924Y011163D03*
X010975Y011754D03*
X010463Y012147D03*
X009754Y012305D03*
X009321Y011754D03*
X009361Y011202D03*
X010817Y010612D03*
X008888Y009076D03*
X005463Y010336D03*
X004951Y006911D03*
X004479Y006006D03*
X003928Y005533D03*
X003455Y004943D03*
X009006Y006832D03*
X018888Y011281D03*
X019463Y012238D03*
X021046Y012124D03*
X021085Y013376D03*
X018290Y014730D03*
X015621Y015691D03*
X015109Y015218D03*
X010751Y013702D03*
X006251Y014667D03*
X005542Y015257D03*
X004518Y015809D03*
X003731Y015021D03*
X003770Y014155D03*
D41*
X016109Y004100D03*
M02*
